<?xml version="1.0" encoding="utf-8"?>
<!-- Generator: Adobe Illustrator 17.1.0, SVG Export Plug-In . SVG Version: 6.00 Build 0)  -->
<!DOCTYPE svg PUBLIC "-//W3C//DTD SVG 1.1//EN" "http://www.w3.org/Graphics/SVG/1.1/DTD/svg11.dtd">
<svg version="1.1" id="Layer_1" xmlns="http://www.w3.org/2000/svg" xmlns:xlink="http://www.w3.org/1999/xlink" x="0px" y="0px"
	 viewBox="0 0 360 216" enable-background="new 0 0 360 216" xml:space="preserve">
<circle fill="none" stroke="#FFFFFF" stroke-width="3.4485" stroke-miterlimit="10" cx="198.1" cy="104.6" r="52.7"/>
<path fill="#2C9560" d="M202.6,134c0.3,1,0.7,1.9,1.2,3.4c-1.4-0.6-2.6-1-3.6-1.6c-1-0.5-1.9-1.2-2.7-2c-4-3.8-8.4-3.5-13.1-1.3
	c-4.5,2.1-9.2,3.8-13.8,5.7c-0.2-0.2-0.3-0.4-0.5-0.6c1.2-1.1,2.3-2.5,3.6-3.4c1.7-1.2,3.6-2.1,5.5-3.2c2.6-1.5,4.7-3.6,5.7-6.5
	c0.6-1.6,0.1-2.9-0.9-4c-1.1-1.2-2.4-1.8-4.1-1.3c-2.7,0.8-5.3,1.9-8.1,2.5c-4.2,0.8-8.5,1.2-13,1.8c0-1.4,0-2.2,0-3.3
	c5.3-1,10.6-2.6,15-6.1c-0.1-0.2-0.1-0.5-0.2-0.7c-1.8,0.6-3.7,0.9-5.3,1.8c-3.9,2.1-7.8,3-12.1,2c-0.8-0.2-1.6-0.6-2.4-1
	c0.6-0.7,1-1.5,1.7-1.9c4.6-2.6,9.2-5.1,13.8-7.7c0.5-0.3,1.1-0.4,1.4-0.8c0.4-0.6,0.4-1.4,0.6-2c-0.6-0.1-1.2-0.4-1.7-0.3
	c-1.4,0.4-2.8,1.1-4.3,1.5c-2.7,0.8-3.9,0.1-5-2.9c3.8-2.1,7.7-4.3,11.6-6.5c2.6-1.5,3.4-3.5,2.3-6.2c-2.3,0.2-4.7,0.5-7.3,0.8
	c0.8-2.2,2.4-3.3,4.2-4.4c3.7-2.2,7.4-4.6,11-6.9c0.5-0.3,0.9-0.8,1.4-1.2c-0.1-0.2-0.2-0.3-0.2-0.5c-0.7,0.2-1.4,0.4-2.1,0.5
	c-0.4,0.1-0.8,0.1-1.2,0.1c0-0.5-0.1-1.1,0.1-1.4c1.6-1.6,3.3-3.1,5.1-4.6c-1.5-1.1-0.6-2.2,0.8-3.2c1.2-0.9,2.5-1.7,3.6-2.7
	c1.9-1.7,3.6-3.5,5.7-5.6c1.1,0.8,2.8,1.7,4,3c2.5,2.8,5.6,4.4,9.1,5.5c2.1,0.7,4.3,1.4,6.2,2.6c1.6,0.9,2.7,2.5,4.5,4.1
	c-1.9,0.5-3.2,0.8-4.9,1.3c3,1.1,5.6,2.1,7.2,4.8c-3.8-0.2-7-3-10.7-1.9c-0.1,0.3-0.2,0.6-0.4,0.9c7,4.4,14,8.7,20.9,13.1
	c-0.1,0.3-0.2,0.6-0.3,0.9c-3.1-0.4-6.2-0.8-9.2-1.1c-0.7-0.1-1.5,0.2-2.2,0.3c0,0.3,0,0.5,0,0.8c2.8,0.8,5.6,1.7,8.4,2.5
	c1.3,0.4,2.6,0.6,3.8,1c0.5,0.2,0.8,0.6,1.2,1c-0.4,0.3-0.8,0.8-1.3,0.8c-2.9,0.4-5.7,0.7-8.6,1c-0.8,0.1-1.5,0.2-2.3,0.6
	c3.4,0.3,6.7,1.1,9.4,3.3c2.6,2,5.6,3.6,7.4,6.8c-3,1.1-5.5,0.9-8-0.1c-2.1-0.9-3.9-0.3-5.8,1.2c6.4,2.3,12.6,4.8,16.6,10.8
	c-2.6,1.2-4.8,0.6-7.2-0.1c-4.2-1.4-8.3-2.9-12.5-4c-3.3-0.9-6.8-1.2-10.2-1.8c-2.2-0.4-4.2,1-4.2,3.5c0,4.7,1.9,8.6,5.7,11.6
	c1.7,1.3,3.3,2.8,5.1,4.4c-2.3,1-4,0.4-5.8-0.3c-2.7-1.1-5.4-2.2-8.1-3.3C202.8,133.7,202.7,133.9,202.6,134z M172.7,101.3
	c-0.1,0.3-0.2,0.5-0.2,0.8c0.7,0.6,1.5,1.9,2.1,1.8c2.1-0.4,4.2-1.2,6.3-1.9c0.3-0.1,0.6-0.9,0.5-1.3c0-0.3-0.7-0.7-1.1-0.7
	C177.8,100.4,175.3,100.9,172.7,101.3z M221.2,111.5c1.6,0.1,2.7-0.6,2.8-1.8c0.1-1.4-1.5-2.8-3.6-2.8c-1.3,0-2.6,0-3,1.6
	C217.1,109.7,219.3,111.4,221.2,111.5z M214,108.8c0,0,0-0.1,0-0.1c0.3,0,0.6,0.1,0.8,0c0.8-0.5,1.5-1,2.3-1.5
	c-0.6-0.7-1.3-1.9-1.9-1.9c-1.9,0-3.8,0.5-5.7,0.8c-0.3,0.1-0.7,0.7-0.6,1c0,0.3,0.6,0.7,0.9,0.8C211.2,108.3,212.6,108.5,214,108.8
	z M183.1,89.8c-1.4-1.2-2-2.2-2.9-2.4c-1.8-0.4-4.4,1.1-4,1.9c0.5,1.2,1.6,3.1,2.4,3C180,92.2,181.3,91,183.1,89.8z M187,111.5
	c0-1.9-1.3-3.6-3.1-4c-0.5-0.1-1.2,0-1.6,0.3c-0.3,0.2-0.3,1-0.1,1.4c0.7,1.4,1.5,2.7,2.4,4.1c0.3,0.4,1,0.9,1.2,0.7
	c0.4-0.2,0.8-0.8,1-1.3C187,112.2,186.9,111.7,187,111.5z M191.5,79.5c-0.9-0.3-1.9-1-2.2-0.8c-1.5,1.1-2.9,2.4-4.2,3.8
	c-0.3,0.3-0.3,1.2-0.1,1.4c0.4,0.3,1.2,0.4,1.6,0.2c1.4-0.9,2.7-1.9,4-2.9C190.9,80.9,191,80.4,191.5,79.5z M208.3,89.6
	c0.4-0.3,1.5-0.7,1.7-1.4c0.4-1.1-1.4-2.8-2.8-2.5c-1.1,0.2-3,1.1-3,1.7C204.2,89.5,206.3,89.1,208.3,89.6z M200,99.1
	c-0.2-1.9-0.4-3.6-2.2-3.4c-0.8,0-1.9,1.1-2.2,2c-0.4,1,1.8,2.8,3.2,2.6C199.4,100.1,199.8,99.4,200,99.1z M196.3,113.1
	c0.4-0.4,1.2-1,1.4-1.8c0.3-1.1-1.9-3-3.1-2.6c-0.5,0.2-1.1,1.1-1.2,1.8C193.3,112,194.1,113,196.3,113.1z M194,87.6
	c1.2-0.4,2.3-0.5,3.3-1.1c0.5-0.3,0.6-1.1,0.9-1.7c-0.5-0.3-1.1-0.8-1.6-0.7c-1.1,0.2-2.1,0.6-3.1,1.1c-0.5,0.3-0.7,0.9-1.1,1.4
	C192.9,87,193.5,87.3,194,87.6z M185,84.9c-1.1,1-1.8,1.7-2.6,2.5c0.7,0.7,1.3,1.6,2.1,1.9c1,0.3,2.8-1.4,2.5-2.4
	C186.9,86.2,186,85.8,185,84.9z M196.1,76.5c-2.1,0.1-4.4,1.5-4.1,2.4c0.1,0.4,1,0.9,1.6,0.9c1.6,0.1,3.6-1.3,3.4-2.3
	C196.9,77,196.2,76.6,196.1,76.5z M216.9,93.3c0.1,0.1,0.3,0.2,0.4,0.3c0.4-0.5,0.7-1,1.1-1.5c-1.2-0.5-2.4-1-3.6-1.4
	c-0.2-0.1-0.7,0.7-1,1.1c1,0.5,1.9,1,2.9,1.5C216.8,93.3,216.9,93.3,216.9,93.3z M199.3,87.5c1.7-0.2,3.5,0,4-2
	c0.1-0.3-0.8-1.2-1.4-1.3C200.7,83.9,199.5,85.4,199.3,87.5z M192.2,111.9c-0.8-1.1-1.5-1.9-2.1-2.8c-0.4,0.6-1,1.1-1,1.7
	c-0.2,1.1,0.1,2.4,1.5,2.5C191,113.3,191.4,112.6,192.2,111.9z M193.6,93.3c-0.8,1-1.8,1.8-1.7,2.1c0.4,0.7,1.2,1.3,1.9,1.9
	c0.5-0.6,1.3-1.2,1.3-1.8C195.1,94.8,194.3,94.2,193.6,93.3z M200.4,79.2c0.9-0.8,1.5-1.3,2-1.8c-0.6-0.4-1.1-1.2-1.7-1.2
	c-0.7,0-1.3,0.8-1.9,1.2C199.3,77.9,199.7,78.4,200.4,79.2z M190.1,98c0.2-0.4,0.5-0.7,0.7-1.1c-0.7-0.4-1.3-0.9-2-1.1
	c-0.7-0.2-1.5,0.1-2.2,0.1c0.4,0.6,0.7,1.4,1.3,1.7C188.5,98,189.4,97.9,190.1,98z M203,77.9c0,0.3,0,0.5,0,0.8
	c1.1,0.1,2.3,0.2,3.4,0.3c0-0.5,0.1-1.1-0.2-1.3C205.1,76.6,204,77.1,203,77.9z M187.8,74.9c-0.2-0.1-0.4-0.3-0.6-0.4
	c-0.9,0.7-1.9,1.4-2.8,2.1c0.1,0.3,0.2,0.5,0.4,0.8c0.7-0.2,1.6-0.3,2.2-0.8C187.4,76.3,187.5,75.5,187.8,74.9z"/>
<circle fill="none" stroke="#FFFFFF" stroke-width="6.8969" stroke-miterlimit="10" cx="194.8" cy="107.5" r="102.7"/>
<path fill="#FFFFFF" d="M120.3,114.2c-6.3-1-7.9,8.8-1.5,9.8S126.6,115.2,120.3,114.2z"/>
<path fill="#FFFFFF" d="M273.7,114.2c-6.3-1-7.9,8.8-1.5,9.8C278.5,125,280.1,115.2,273.7,114.2z"/>
<path fill="none" d="M136.6,105.3c0-33.7,27.3-61,61-61s61,27.3,61,61"/>
<text transform="matrix(0.231 -0.973 0.973 0.231 136.1968 99.8369)"><tspan x="0" y="0" fill="#FFFFFF" stroke="#FFFFFF" stroke-width="1.7242" stroke-miterlimit="10" font-family="'Futura'" font-size="33.1201">S</tspan><tspan x="16.9" y="-0.5" fill="#FFFFFF" stroke="#FFFFFF" stroke-width="1.7242" stroke-miterlimit="10" font-family="'Futura'" font-size="33.1201" rotate="17.9">h</tspan><tspan x="38.8" y="6.6" fill="#FFFFFF" stroke="#FFFFFF" stroke-width="1.7242" stroke-miterlimit="10" font-family="'Futura'" font-size="33.1201" rotate="39.7">a</tspan><tspan x="54.7" y="17.3" fill="#FFFFFF" stroke="#FFFFFF" stroke-width="1.7242" stroke-miterlimit="10" font-family="'Futura'" font-size="33.1201" rotate="62">w</tspan><tspan x="68.4" y="43.4" fill="#FFFFFF" stroke="#FFFFFF" stroke-width="1.7242" stroke-miterlimit="10" font-family="'Futura'" font-size="33.1201" rotate="84.2">a</tspan><tspan x="70.1" y="67.9" fill="#FFFFFF" stroke="#FFFFFF" stroke-width="1.7242" stroke-miterlimit="10" font-family="'Futura'" font-size="33.1201" rotate="104.9">r</tspan><tspan x="65.3" y="88.1" fill="#FFFFFF" stroke="#FFFFFF" stroke-width="1.7242" stroke-miterlimit="10" font-family="'Futura'" font-size="33.1201" rotate="128.6">m</tspan><tspan x="44.9" y="111.5" fill="#FFFFFF" stroke="#FFFFFF" stroke-width="1.7242" stroke-miterlimit="10" font-family="'Futura'" font-size="33.1201" rotate="155.3">a</tspan></text>
<path fill="none" d="M120.5,150.3c23.1,42.9,76.6,59,119.5,35.9s59-76.6,35.9-119.5"/>
<text transform="matrix(0.587 0.8096 -0.8096 0.587 121.0228 152.2961)"><tspan x="0" y="0" fill="#FFFFFF" stroke="#FFFFFF" stroke-miterlimit="10" font-family="'Futura'" font-size="38.0287">E</tspan><tspan x="29.6" y="-1.5" fill="#FFFFFF" stroke="#FFFFFF" stroke-miterlimit="10" font-family="'Futura'" font-size="38.0287" rotate="-19.9">X</tspan><tspan x="57.6" y="-13.5" fill="#FFFFFF" stroke="#FFFFFF" stroke-miterlimit="10" font-family="'Futura'" font-size="38.0287" rotate="-38.7">P</tspan><tspan x="78.2" y="-31.5" fill="#FFFFFF" stroke="#FFFFFF" stroke-miterlimit="10" font-family="'Futura'" font-size="38.0287" rotate="-57">R</tspan><tspan x="91.8" y="-54.3" fill="#FFFFFF" stroke="#FFFFFF" stroke-miterlimit="10" font-family="'Futura'" font-size="38.0287" rotate="-74">E</tspan><tspan x="98.2" y="-80.1" fill="#FFFFFF" stroke="#FFFFFF" stroke-miterlimit="10" font-family="'Futura'" font-size="38.0287" rotate="-91.3">S</tspan><tspan x="96.7" y="-106.4" fill="#FFFFFF" stroke="#FFFFFF" stroke-miterlimit="10" font-family="'Futura'" font-size="38.0287" rotate="-108.4">S</tspan></text>
</svg>
