<?xml version="1.0" encoding="utf-8"?>
<!-- Generator: Adobe Illustrator 17.1.0, SVG Export Plug-In . SVG Version: 6.00 Build 0)  -->
<!DOCTYPE svg PUBLIC "-//W3C//DTD SVG 1.1//EN" "http://www.w3.org/Graphics/SVG/1.1/DTD/svg11.dtd">
<svg version="1.1" id="Layer_1" xmlns="http://www.w3.org/2000/svg" xmlns:xlink="http://www.w3.org/1999/xlink" x="0px" y="0px"
	 viewBox="0 0 360 216" enable-background="new 0 0 360 216" xml:space="preserve">
<g>
	<circle fill="none" stroke="#FFFFFF" stroke-width="3.5107" stroke-miterlimit="10" cx="185.5" cy="106.2" r="53.7"/>
	<path fill="#2C9560" d="M190.1,136.2c0.3,1,0.7,1.9,1.2,3.4c-1.5-0.6-2.6-1-3.7-1.6c-1-0.6-1.9-1.2-2.8-2
		c-4.1-3.9-8.5-3.6-13.3-1.3c-4.6,2.1-9.4,3.9-14,5.8c-0.2-0.2-0.3-0.4-0.5-0.6c1.2-1.2,2.3-2.5,3.7-3.5c1.7-1.2,3.7-2.1,5.5-3.2
		c2.7-1.6,4.7-3.6,5.8-6.6c0.6-1.6,0.2-2.9-0.9-4.1c-1.1-1.2-2.5-1.8-4.2-1.3c-2.7,0.9-5.4,2-8.2,2.5c-4.3,0.8-8.7,1.3-13.2,1.9
		c0-1.4,0-2.3,0-3.4c5.4-1.1,10.8-2.7,15.3-6.3c-0.1-0.2-0.2-0.5-0.2-0.7c-1.8,0.6-3.8,0.9-5.4,1.8c-3.9,2.1-8,3.1-12.4,2.1
		c-0.8-0.2-1.6-0.7-2.4-1c0.6-0.7,1-1.6,1.7-2c4.6-2.7,9.3-5.2,14-7.8c0.5-0.3,1.1-0.4,1.4-0.8c0.4-0.6,0.4-1.4,0.6-2.1
		c-0.6-0.1-1.2-0.4-1.7-0.3c-1.5,0.4-2.9,1.1-4.3,1.6c-2.8,0.8-4,0.1-5.1-3c3.9-2.2,7.9-4.4,11.8-6.6c2.7-1.5,3.4-3.5,2.3-6.3
		c-2.4,0.2-4.8,0.5-7.4,0.8c0.8-2.2,2.4-3.4,4.2-4.5c3.8-2.3,7.5-4.6,11.2-7c0.5-0.3,0.9-0.8,1.4-1.3c-0.1-0.2-0.2-0.3-0.3-0.5
		c-0.7,0.2-1.4,0.4-2.1,0.5c-0.4,0.1-0.8,0.1-1.3,0.1c0-0.5-0.1-1.1,0.1-1.4c1.6-1.6,3.4-3.1,5.2-4.7c-1.5-1.2-0.6-2.3,0.8-3.3
		c1.2-0.9,2.5-1.8,3.7-2.8c1.9-1.7,3.7-3.6,5.8-5.7c1.1,0.8,2.9,1.7,4.1,3.1c2.5,2.9,5.7,4.5,9.3,5.6c2.2,0.7,4.3,1.4,6.3,2.6
		c1.6,1,2.8,2.5,4.5,4.2c-1.9,0.5-3.2,0.8-5,1.3c3,1.2,5.7,2.1,7.3,4.9c-3.8-0.2-7.1-3-10.9-1.9c-0.1,0.3-0.3,0.6-0.4,1
		c7.1,4.5,14.2,8.9,21.3,13.4c-0.1,0.3-0.2,0.6-0.3,0.9c-3.1-0.4-6.3-0.8-9.4-1.1c-0.7-0.1-1.5,0.2-2.3,0.3c0,0.3,0,0.6,0,0.8
		c2.8,0.8,5.7,1.7,8.5,2.5c1.3,0.4,2.6,0.6,3.9,1c0.5,0.2,0.8,0.7,1.3,1c-0.4,0.3-0.8,0.8-1.3,0.9c-2.9,0.4-5.8,0.7-8.8,1.1
		c-0.8,0.1-1.6,0.2-2.4,0.6c3.5,0.3,6.8,1.1,9.5,3.3c2.6,2.1,5.7,3.7,7.5,7c-3,1.1-5.6,1-8.2-0.1c-2.2-0.9-4-0.3-5.9,1.3
		c6.6,2.3,12.8,4.8,16.9,11c-2.6,1.2-4.9,0.7-7.3-0.1c-4.2-1.4-8.5-2.9-12.8-4c-3.4-0.9-6.9-1.2-10.4-1.9c-2.3-0.4-4.3,1-4.2,3.6
		c0,4.8,2,8.8,5.8,11.8c1.7,1.4,3.3,2.8,5.2,4.5c-2.3,1-4.1,0.4-5.9-0.4c-2.7-1.1-5.5-2.2-8.2-3.4
		C190.3,135.9,190.2,136,190.1,136.2z M159.7,102.9c-0.1,0.3-0.2,0.5-0.2,0.8c0.7,0.6,1.6,1.9,2.2,1.8c2.2-0.4,4.3-1.2,6.4-1.9
		c0.3-0.1,0.6-0.9,0.5-1.3c0-0.3-0.7-0.7-1.1-0.7C164.8,102,162.2,102.5,159.7,102.9z M209,113.3c1.6,0.1,2.7-0.6,2.8-1.9
		c0.1-1.5-1.6-2.8-3.7-2.9c-1.3,0-2.7,0-3,1.6C204.9,111.5,207.1,113.2,209,113.3z M201.7,110.5c0,0,0-0.1,0-0.1
		c0.3,0,0.6,0.1,0.8,0c0.8-0.5,1.6-1,2.3-1.5c-0.7-0.7-1.3-1.9-2-1.9c-1.9,0-3.9,0.5-5.8,0.9c-0.3,0.1-0.7,0.7-0.7,1.1
		c0.1,0.3,0.6,0.7,1,0.8C198.8,110,200.2,110.2,201.7,110.5z M170.3,91.2c-1.4-1.2-2.1-2.3-3-2.4c-1.8-0.4-4.4,1.1-4.1,1.9
		c0.6,1.2,1.7,3.1,2.4,3.1C167,93.7,168.3,92.4,170.3,91.2z M174.1,113.2c0-2-1.3-3.6-3.2-4.1c-0.5-0.1-1.2,0-1.6,0.3
		c-0.3,0.2-0.3,1.1-0.1,1.4c0.7,1.4,1.5,2.8,2.4,4.1c0.3,0.4,1,0.9,1.3,0.8c0.4-0.2,0.8-0.8,1-1.3
		C174.1,114,174.1,113.5,174.1,113.2z M178.8,80.7c-0.9-0.3-1.9-1-2.2-0.8c-1.5,1.1-2.9,2.5-4.3,3.8c-0.3,0.3-0.3,1.3-0.1,1.4
		c0.4,0.3,1.2,0.4,1.6,0.2c1.4-0.9,2.7-1.9,4-2.9C178.2,82.1,178.3,81.6,178.8,80.7z M195.9,91c0.4-0.3,1.5-0.7,1.7-1.4
		c0.4-1.1-1.4-2.8-2.8-2.6c-1.1,0.2-3.1,1.1-3.1,1.7C191.7,90.9,193.9,90.4,195.9,91z M187.4,100.7c-0.2-2-0.4-3.6-2.2-3.5
		c-0.8,0-1.9,1.2-2.2,2c-0.4,1,1.9,2.8,3.2,2.6C186.8,101.7,187.2,100.9,187.4,100.7z M183.7,114.9c0.4-0.4,1.2-1,1.4-1.8
		c0.3-1.1-2-3-3.2-2.7c-0.6,0.2-1.2,1.2-1.2,1.8C180.6,113.8,181.4,114.8,183.7,114.9z M181.3,88.9c1.2-0.4,2.4-0.6,3.3-1.1
		c0.5-0.3,0.7-1.1,1-1.7c-0.6-0.3-1.2-0.8-1.7-0.7c-1.1,0.2-2.2,0.6-3.1,1.2c-0.5,0.3-0.8,0.9-1.1,1.4
		C180.2,88.3,180.8,88.6,181.3,88.9z M172.2,86.2c-1.1,1-1.9,1.8-2.6,2.5c0.7,0.7,1.3,1.7,2.2,1.9c1,0.4,2.9-1.4,2.6-2.4
		C174.1,87.5,173.1,87.1,172.2,86.2z M183.4,77.6c-2.2,0.1-4.5,1.6-4.2,2.5c0.1,0.5,1.1,0.9,1.7,0.9c1.6,0.1,3.7-1.3,3.5-2.3
		C184.3,78.2,183.6,77.8,183.4,77.6z M204.7,94.7c0.1,0.1,0.3,0.2,0.4,0.3c0.4-0.5,0.7-1,1.1-1.5c-1.2-0.5-2.4-1.1-3.7-1.4
		c-0.2-0.1-0.7,0.7-1,1.1c1,0.5,2,1,3,1.5C204.5,94.8,204.6,94.7,204.7,94.7z M186.7,88.8c1.7-0.3,3.5,0,4-2
		c0.1-0.3-0.8-1.2-1.4-1.3C188.1,85.2,186.9,86.7,186.7,88.8z M179.5,113.7c-0.8-1.1-1.5-2-2.2-2.9c-0.4,0.6-1,1.1-1.1,1.7
		c-0.2,1.2,0.1,2.4,1.5,2.6C178.2,115.1,178.7,114.4,179.5,113.7z M180.9,94.7c-0.8,1-1.8,1.9-1.7,2.1c0.4,0.8,1.3,1.3,2,1.9
		c0.5-0.6,1.3-1.2,1.3-1.8C182.5,96.3,181.6,95.7,180.9,94.7z M187.8,80.4c0.9-0.8,1.5-1.3,2.1-1.9c-0.6-0.4-1.1-1.2-1.7-1.2
		c-0.7,0-1.3,0.8-1.9,1.2C186.7,79.1,187.1,79.6,187.8,80.4z M177.4,99.5c0.2-0.4,0.5-0.8,0.7-1.1c-0.7-0.4-1.3-0.9-2.1-1.1
		c-0.7-0.2-1.5,0.1-2.3,0.1c0.4,0.6,0.7,1.4,1.3,1.7C175.7,99.5,176.6,99.4,177.4,99.5z M190.5,79c0,0.3,0,0.5,0,0.8
		c1.2,0.1,2.3,0.2,3.5,0.3c0-0.5,0.1-1.1-0.2-1.4C192.6,77.7,191.5,78.2,190.5,79z M175,76c-0.2-0.1-0.4-0.3-0.6-0.4
		c-1,0.7-1.9,1.4-2.9,2.2c0.1,0.3,0.2,0.5,0.4,0.8c0.8-0.2,1.6-0.3,2.2-0.8C174.6,77.4,174.7,76.6,175,76z"/>
	<g>
		<path fill="#FFFFFF" stroke="#FFFFFF" stroke-width="1.7554" stroke-miterlimit="10" d="M108.1,67c-1.8,0.2-3.1,0.9-3.9,2.7
			c-0.9,1.8-0.6,4.4,1.4,5.4c1.8,0.9,3.6-0.5,4.8-1.6l1.4-1.3c2.8-2.6,5.8-4.2,9.6-2.4c4.2,2,5.6,6.6,3.7,10.7
			c-1.8,3.7-5.9,5.3-9.8,4l0.8-3.2c2.5,1.2,5.3,0.1,6.5-2.4c1.2-2.5-0.1-5.2-2.5-6.4c-2.5-1.2-4.5,0.3-6.2,1.9l-1.4,1.3
			c-2.4,2.1-5,3.7-8.2,2.2c-3.7-1.8-4.4-6.1-2.7-9.6c1.2-2.6,3.5-4.1,6.3-4.3L108.1,67z"/>
		<path fill="#FFFFFF" stroke="#FFFFFF" stroke-width="1.7554" stroke-miterlimit="10" d="M127.9,49.9l-7.6-6.9l2.1-2.3l18.8,17.1
			l-2.1,2.3l-9-8.2l-8.1,9l9,8.2l-2.1,2.3l-18.8-17.1l2.1-2.3l7.6,6.9L127.9,49.9z"/>
		<path fill="#FFFFFF" stroke="#FFFFFF" stroke-width="1.7554" stroke-miterlimit="10" d="M143.5,48.7l0.5,7l-3,1.6l-2.1-29.1
			l23.4,17.4l-3,1.6l-5.6-4.2L143.5,48.7z M142.3,34.3l1,11.2l7.9-4.4L142.3,34.3z"/>
		<path fill="#FFFFFF" stroke="#FFFFFF" stroke-width="1.7554" stroke-miterlimit="10" d="M165.9,37.9l4.6-19.5l9.6,17.6l4.6-19
			l3.4-0.5l-6.9,27.6l-9.6-17.5L167,46.1l-14-24.8l3.4-0.5L165.9,37.9z"/>
		<path fill="#FFFFFF" stroke="#FFFFFF" stroke-width="1.7554" stroke-miterlimit="10" d="M193.2,37.7l-4.3,5.5l-3.3-0.8l18-23
			l5.7,28.6l-3.3-0.8l-1.3-6.9L193.2,37.7z M201.9,26.2l-6.8,9l8.8,2.1L201.9,26.2z"/>
		<path fill="#FFFFFF" stroke="#FFFFFF" stroke-width="1.7554" stroke-miterlimit="10" d="M222.9,57l-3.3-2l-1-13.1l-1.1-0.7
			l-5.5,9.3l-2.7-1.6l12.9-21.9l3.3,2c1.9,1.1,4,2.4,5.2,4.4c1.2,2.2,1,4.8-0.2,6.9c-1.8,3.1-5.5,4.5-8.9,3L222.9,57z M218.8,39.1
			l0.9,0.5c2.8,1.6,6.1,2.9,8.2-0.6c2-3.4-0.9-5.8-3.6-7.4l-0.7-0.4L218.8,39.1z"/>
		<path fill="#FFFFFF" stroke="#FFFFFF" stroke-width="1.7554" stroke-miterlimit="10" d="M239.4,49.6L239.4,49.6l-14.8,8.5
			l-2.1-2.5l23.6-13.1L236.4,62l20.9-6.3l-16.9,21.1l-2.1-2.5l10.9-13.1l0-0.1l-18.2,5.4L239.4,49.6z"/>
		<path fill="#FFFFFF" stroke="#FFFFFF" stroke-width="1.7554" stroke-miterlimit="10" d="M247.4,79.4l-7-0.7l-1.1-3.2l29,2.9
			l-21.2,20l-1.1-3.2l5.1-4.8L247.4,79.4z M261.7,80.7l-11.2-1l2.9,8.6L261.7,80.7z"/>
	</g>
	<circle fill="none" stroke="#FFFFFF" stroke-width="7.0215" stroke-miterlimit="10" cx="182.1" cy="109.2" r="104.5"/>
	<g>
		<g>
			<path fill="#FFFFFF" stroke="#FFFFFF" stroke-width="1.7554" stroke-miterlimit="10" d="M244.9,146c-1.8-0.5-3.2-0.2-4.6,1.1
				c-1.4,1.4-2.1,4-0.5,5.5c1.4,1.4,3.5,0.8,5.1,0.1l1.8-0.8c3.6-1.5,6.9-2,9.9,1.1c3.2,3.3,3,8.2-0.3,11.3c-2.9,2.9-7.4,3-10.6,0.4
				l1.8-2.7c1.9,2,4.9,1.9,6.9,0c2-1.9,1.7-4.9-0.1-6.8c-1.9-2-4.3-1.3-6.5-0.4l-1.8,0.7c-2.9,1.1-6,1.8-8.5-0.7
				c-2.9-2.9-2-7.2,0.7-9.9c2-2,4.7-2.6,7.4-1.8L244.9,146z"/>
		</g>
		<g>
			<path fill="#FFFFFF" stroke="#FFFFFF" stroke-width="1.7554" stroke-miterlimit="10" d="M127.6,142.6l11.2,7.8l-1.7,2.4l-8.6-6
				l-4.1,5.8l8.4,5.8l-1.7,2.4l-8.4-5.8l-5.5,7.9l8.6,6l-1.7,2.4l-11.2-7.8L127.6,142.6z"/>
		</g>
		<g>
			<path fill="#FFFFFF" stroke="#FFFFFF" stroke-width="1.7554" stroke-miterlimit="10" d="M141.3,156.5l3.2,1.7l0.3,10.6l9.2-5.7
				l3.2,1.7l-12.1,7.4l0.7,15.4l-3.1-1.6l-0.5-12l-10.3,6.4l-3.1-1.6l13.2-8.1L141.3,156.5z"/>
		</g>
		<g>
			<path fill="#FFFFFF" stroke="#FFFFFF" stroke-width="1.7554" stroke-miterlimit="10" d="M196.9,194.7l-3.8,0.4l-8.7-9.8l-1.3,0.2
				l1.2,10.7l-3.1,0.4l-2.9-25.3l3.8-0.4c2.2-0.3,4.7-0.5,6.8,0.4c2.3,1,3.7,3.2,4,5.6c0.4,3.6-1.6,6.9-5.2,7.8L196.9,194.7z
				 M182.8,182.9l1-0.1c3.2-0.4,6.6-1.4,6.2-5.4c-0.5-4-4.3-4.1-7.4-3.7l-0.8,0.1L182.8,182.9z"/>
		</g>
		<g>
			<path fill="#FFFFFF" stroke="#FFFFFF" stroke-width="1.7554" stroke-miterlimit="10" d="M197.7,169.3l12.8-4.9l1,2.7l-9.8,3.7
				l2.5,6.6l9.5-3.6l1,2.7l-9.5,3.6l3.4,9l9.8-3.7l1,2.7l-12.8,4.9L197.7,169.3z"/>
		</g>
		<g>
			<path fill="#FFFFFF" stroke="#FFFFFF" stroke-width="1.7554" stroke-miterlimit="10" d="M230.4,160.3c-1.6-0.9-3.1-1-4.7,0
				c-1.8,1-3,3.3-1.9,5.3c1,1.7,3.2,1.6,4.9,1.4l1.9-0.3c3.8-0.6,7.2-0.2,9.3,3.5c2.3,4,0.9,8.6-3.1,10.9c-3.6,2.1-7.9,1-10.4-2.2
				l2.4-2.2c1.4,2.4,4.3,3.1,6.7,1.7c2.4-1.4,2.9-4.3,1.6-6.6c-1.4-2.4-3.9-2.3-6.2-2l-1.9,0.2c-3.1,0.4-6.2,0.3-8-2.8
				c-2.1-3.6-0.1-7.5,3.2-9.4c2.5-1.4,5.2-1.4,7.6,0.1L230.4,160.3z"/>
		</g>
		<g>
			<path fill="#FFFFFF" stroke="#FFFFFF" stroke-width="1.7554" stroke-miterlimit="10" d="M157.2,192.7l-3.1-0.7l5.6-24.8l3.6,0.8
				c7.6,1.7,9.4,4.9,8.4,9.4c-1.2,5.2-5.6,6.3-10.3,5.3l-1.8-0.4L157.2,192.7z M160.2,179.5l1,0.2c3.2,0.7,6.7,0.9,7.6-3.1
				c0.9-3.9-2.7-5.2-5.8-5.9l-0.8-0.2L160.2,179.5z"/>
		</g>
	</g>
	<path fill="#FFFFFF" d="M106.3,111.9c-6.4-1-8,9-1.6,10C111.1,123,112.7,113,106.3,111.9z"/>
	<path fill="#FFFFFF" d="M262.5,111.9c-6.4-1-8,9-1.6,10C267.4,123,268.9,113,262.5,111.9z"/>
</g>
</svg>
