<?xml version="1.0" encoding="utf-8"?>
<!-- Generator: Adobe Illustrator 17.1.0, SVG Export Plug-In . SVG Version: 6.00 Build 0)  -->
<!DOCTYPE svg PUBLIC "-//W3C//DTD SVG 1.1//EN" "http://www.w3.org/Graphics/SVG/1.1/DTD/svg11.dtd">
<svg version="1.1" id="Layer_1" xmlns="http://www.w3.org/2000/svg" xmlns:xlink="http://www.w3.org/1999/xlink" x="0px" y="0px"
	 viewBox="0 0 291 123.6" style="enable-background:new 0 0 291 123.6;" xml:space="preserve">
<path style="fill:#FFFFFF;" d="M56.1,53.2 M38.4,55.6c-0.1-0.1-0.2-0.2-0.3-0.3c0.7-0.6,1.3-1.4,2-1.9c0.9-0.7,2-1.2,3-1.8
	c1.4-0.9,2.6-2,3.2-3.6c0.3-0.9,0.1-1.6-0.5-2.2c-0.6-0.7-1.3-1-2.3-0.7c-1.5,0.5-2.9,1.1-4.5,1.4c-2.3,0.4-4.7,0.7-7.2,1
	c0-0.8,0-1.2,0-1.8c2.9-0.6,5.9-1.5,8.3-3.4c0-0.1-0.1-0.3-0.1-0.4c-1,0.3-2,0.5-2.9,1c-2.1,1.2-4.3,1.7-6.7,1.1
	c-0.5-0.1-0.9-0.4-1.3-0.5c0.3-0.4,0.5-0.8,0.9-1.1c2.5-1.4,5.1-2.8,7.6-4.2c0.3-0.1,0.6-0.2,0.7-0.4c0.2-0.3,0.2-0.7,0.3-1.1
	c-0.3-0.1-0.7-0.2-0.9-0.2c-0.8,0.2-1.6,0.6-2.3,0.8c-1.5,0.4-2.2,0.1-2.7-1.6c2.1-1.2,4.3-2.4,6.4-3.6c1.5-0.8,1.9-1.9,1.3-3.4
	c-1.3,0.1-2.6,0.3-4,0.4c0.5-1.2,1.3-1.8,2.3-2.4c2.1-1.2,4.1-2.5,6.1-3.8c0.3-0.2,0.5-0.5,0.7-0.7c0-0.1-0.1-0.2-0.1-0.3
	c-0.4,0.1-0.8,0.2-1.2,0.3c-0.2,0-0.5,0-0.7,0.1c0-0.3-0.1-0.6,0.1-0.8c0.9-0.9,1.8-1.7,2.8-2.6c-0.8-0.6-0.3-1.2,0.4-1.8
	c0.7-0.5,1.4-1,2-1.5c1-0.9,2-2,3.1-3.1c0.6,0.5,1.6,0.9,2.2,1.7c1.4,1.6,3.1,2.4,5.1,3c1.2,0.4,2.4,0.8,3.4,1.4
	c0.9,0.5,1.5,1.4,2.5,2.3c-1,0.3-1.8,0.5-2.7,0.7c1.6,0.6,3.1,1.1,4,2.7c-2.1-0.1-3.9-1.6-5.9-1.1c-0.1,0.2-0.1,0.3-0.2,0.5
	c3.9,2.4,7.7,4.8,11.6,7.2c-0.1,0.2-0.1,0.3-0.2,0.5c-1.7-0.2-3.4-0.4-5.1-0.6c-0.4,0-0.8,0.1-1.2,0.2c0,0.1,0,0.3,0,0.4
	c1.5,0.5,3.1,0.9,4.6,1.4c0.7,0.2,1.4,0.3,2.1,0.6c0.3,0.1,0.5,0.4,0.7,0.5c-0.2,0.2-0.5,0.4-0.7,0.5c-1.6,0.2-3.2,0.4-4.8,0.6
	c-0.4,0.1-0.8,0.1-1.3,0.3c1.9,0.2,3.7,0.6,5.2,1.8c1.4,1.1,3.1,2,4.1,3.8c-1.6,0.6-3,0.5-4.4-0.1c-1.2-0.5-2.2-0.2-3.2,0.7
	c3.6,1.3,7,2.6,9.2,5.9c-1.4,0.6-2.7,0.4-4-0.1c-2.3-0.8-4.6-1.6-6.9-2.2c-1.8-0.5-3.8-0.7-5.7-1C59,44,58,44.7,58,46.1
	c0,2.6,1.1,4.8,3.1,6.4c0.9,0.7,1.8,1.5,2.8,2.4c-1.3,0.6-2.2,0.2-3.2-0.2C60.7,54.8,51.4,49.4,38.4,55.6z M39.6,35.2
	c0,0.1-0.1,0.3-0.1,0.4c0.4,0.4,0.8,1.1,1.2,1c1.2-0.2,2.3-0.6,3.5-1c0.2-0.1,0.3-0.5,0.3-0.7c0-0.2-0.4-0.4-0.6-0.4
	C42.4,34.7,41,34.9,39.6,35.2z M66.3,40.8c0.9,0.1,1.5-0.3,1.5-1c0.1-0.8-0.9-1.5-2-1.6c-0.7,0-1.5,0-1.6,0.9
	C64.1,39.8,65.3,40.7,66.3,40.8z M62.4,39.3C62.4,39.3,62.4,39.2,62.4,39.3c0.2-0.1,0.3,0,0.4-0.1c0.4-0.3,0.8-0.5,1.3-0.8
	c-0.4-0.4-0.7-1-1.1-1c-1,0-2.1,0.3-3.1,0.5c-0.2,0-0.4,0.4-0.4,0.6c0,0.2,0.3,0.4,0.5,0.4C60.8,39,61.6,39.1,62.4,39.3z M45.3,28.8
	c-0.7-0.6-1.1-1.2-1.6-1.3c-1-0.2-2.4,0.6-2.2,1c0.3,0.7,0.9,1.7,1.3,1.7C43.6,30.1,44.3,29.4,45.3,28.8z M47.4,40.8
	c0-1.1-0.7-2-1.7-2.2c-0.3-0.1-0.7,0-0.9,0.2c-0.1,0.1-0.2,0.6-0.1,0.8c0.4,0.8,0.8,1.5,1.3,2.2c0.1,0.2,0.5,0.5,0.7,0.4
	c0.2-0.1,0.4-0.4,0.5-0.7C47.4,41.2,47.4,40.9,47.4,40.8z M50,23.1c-0.5-0.2-1-0.6-1.2-0.4c-0.8,0.6-1.6,1.3-2.3,2.1
	c-0.1,0.1-0.2,0.7,0,0.8c0.2,0.1,0.7,0.2,0.9,0.1c0.8-0.5,1.5-1,2.2-1.6C49.6,23.9,49.7,23.6,50,23.1z M59.2,28.7
	c0.2-0.2,0.8-0.4,0.9-0.8c0.2-0.6-0.8-1.5-1.5-1.4C58,26.6,57,27.1,57,27.5C57,28.7,58.1,28.4,59.2,28.7z M54.7,33.9
	c-0.1-1.1-0.2-2-1.2-1.9c-0.4,0-1,0.6-1.2,1.1c-0.2,0.5,1,1.5,1.8,1.4C54.3,34.5,54.5,34.1,54.7,33.9z M52.6,41.7
	c0.2-0.2,0.7-0.6,0.8-1c0.2-0.6-1.1-1.6-1.7-1.4c-0.3,0.1-0.6,0.6-0.7,1C51,41,51.4,41.6,52.6,41.7z M51.3,27.6
	c0.7-0.2,1.3-0.3,1.8-0.6c0.3-0.1,0.4-0.6,0.5-0.9c-0.3-0.1-0.6-0.4-0.9-0.4c-0.6,0.1-1.2,0.3-1.7,0.6c-0.3,0.1-0.4,0.5-0.6,0.8
	C50.7,27.2,51,27.4,51.3,27.6z M46.4,26.1c-0.6,0.6-1,1-1.4,1.4c0.4,0.4,0.7,0.9,1.2,1.1c0.6,0.2,1.6-0.8,1.4-1.3
	C47.4,26.8,46.9,26.6,46.4,26.1z M52.5,21.4c-1.2,0-2.5,0.8-2.3,1.3c0.1,0.2,0.6,0.5,0.9,0.5c0.9,0,2-0.7,1.9-1.3
	C52.9,21.7,52.6,21.5,52.5,21.4z M64,30.7c0.1,0.1,0.2,0.1,0.2,0.2c0.2-0.3,0.4-0.6,0.6-0.8c-0.7-0.3-1.3-0.6-2-0.8
	c-0.1,0-0.4,0.4-0.6,0.6c0.5,0.3,1.1,0.6,1.6,0.8C63.9,30.7,64,30.7,64,30.7z M54.2,27.5c0.9-0.1,1.9,0,2.2-1.1
	c0-0.2-0.5-0.7-0.8-0.7C55,25.5,54.4,26.3,54.2,27.5z M50.4,41c-0.5-0.6-0.8-1.1-1.2-1.6c-0.2,0.3-0.5,0.6-0.6,0.9
	c-0.1,0.6,0,1.3,0.8,1.4C49.7,41.8,49.9,41.4,50.4,41z M51.1,30.7c-0.4,0.5-1,1-0.9,1.1c0.2,0.4,0.7,0.7,1.1,1
	c0.3-0.3,0.7-0.6,0.7-1C52,31.6,51.5,31.3,51.1,30.7z M54.9,22.9c0.5-0.4,0.8-0.7,1.1-1c-0.3-0.2-0.6-0.7-0.9-0.6
	c-0.4,0-0.7,0.4-1.1,0.6C54.2,22.2,54.5,22.5,54.9,22.9z M49.2,33.3c0.1-0.2,0.3-0.4,0.4-0.6c-0.4-0.2-0.7-0.5-1.1-0.6
	c-0.4-0.1-0.8,0-1.2,0.1c0.2,0.3,0.4,0.8,0.7,0.9C48.3,33.3,48.8,33.3,49.2,33.3z M56.3,22.2c0,0.1,0,0.3,0,0.4
	c0.6,0,1.2,0.1,1.9,0.1c0-0.3,0-0.6-0.1-0.7C57.4,21.5,56.9,21.8,56.3,22.2z M47.9,20.6c-0.1-0.1-0.2-0.2-0.3-0.2
	c-0.5,0.4-1,0.8-1.6,1.2c0.1,0.1,0.1,0.3,0.2,0.4c0.4-0.1,0.9-0.2,1.2-0.4C47.7,21.3,47.8,20.9,47.9,20.6z"/>
<g>
	<path style="fill:#FFFFFF;" d="M82.8,37c0,1,0.3,1.8,0.9,2.6s1.3,1.5,2.3,2.1s2,1.3,3.2,1.9c1.2,0.6,2.4,1.2,3.7,1.8
		c1.2,0.6,2.5,1.3,3.7,2c1.2,0.7,2.3,1.5,3.2,2.4c0.9,0.9,1.7,1.9,2.3,3.1c0.6,1.1,0.9,2.4,0.9,3.9c0,1.3-0.2,2.6-0.6,3.7
		c-0.4,1.1-1,2.1-1.8,3c-0.7,0.9-1.6,1.7-2.6,2.3c-1,0.7-2.1,1.2-3.3,1.7c-1.2,0.4-2.4,0.8-3.7,1s-2.6,0.3-3.9,0.3
		c-1.8,0-3.6-0.2-5.4-0.7c-1.7-0.5-3.3-1.1-4.7-2c-1.4-0.9-2.4-2-3.3-3.4c-0.8-1.4-1.2-3-1.2-4.8c0-0.9,0.2-1.8,0.5-2.5
		c0.3-0.7,0.7-1.3,1.1-1.8c0.5-0.5,0.9-0.8,1.5-1.1c0.5-0.2,1-0.4,1.5-0.4c0.5,0,0.9,0.1,1.2,0.4c0.3,0.3,0.5,0.7,0.5,1.2
		c0,0.3,0,0.5-0.1,0.8s-0.1,0.6-0.2,0.9S78,56.2,78,56.6c-0.1,0.4-0.1,0.8-0.1,1.3c0,1,0.2,1.9,0.7,2.7s1.1,1.4,1.9,1.9
		s1.7,0.8,2.7,1.1c1,0.2,2.1,0.4,3.2,0.4c1.3,0,2.6-0.2,3.9-0.5c1.3-0.3,2.4-0.8,3.5-1.4c1-0.6,1.8-1.3,2.5-2.2s1-1.9,1-3
		c0-1-0.3-2-0.9-2.8c-0.6-0.8-1.3-1.6-2.3-2.3c-0.9-0.7-2-1.4-3.2-2s-2.4-1.2-3.7-1.9c-1.2-0.6-2.5-1.3-3.7-2
		c-1.2-0.7-2.3-1.5-3.2-2.3c-0.9-0.8-1.7-1.8-2.3-2.8c-0.6-1-0.9-2.2-0.9-3.6c0-1.2,0.3-2.5,0.9-3.7c0.6-1.2,1.5-2.3,2.7-3.2
		c1.2-1,2.7-1.7,4.5-2.3c1.8-0.6,3.9-0.9,6.3-0.9c1.5,0,3,0.2,4.5,0.7c1.5,0.5,2.8,1.1,3.9,1.9c1.2,0.8,2.1,1.8,2.8,3
		c0.7,1.2,1.1,2.5,1.1,3.9c0,0.8-0.1,1.7-0.4,2.6c-0.3,0.9-0.7,1.8-1.4,2.8c-0.6,0.9-1.3,1.6-2,2.1c-0.7,0.5-1.4,0.7-2,0.7
		c-0.4,0-0.8-0.1-1.1-0.4s-0.4-0.6-0.4-1.2c0-0.4,0.1-0.8,0.3-1.4c0.2-0.5,0.5-1.1,0.9-1.8c0.4-0.6,0.7-1.3,0.9-1.8
		c0.2-0.6,0.3-1.1,0.3-1.6c0-0.8-0.2-1.4-0.6-2c-0.4-0.6-1-1-1.7-1.4c-0.7-0.4-1.6-0.7-2.6-0.9c-1-0.2-2.1-0.3-3.3-0.3
		c-1.3,0-2.5,0.2-3.5,0.5c-1,0.3-1.8,0.7-2.5,1.2c-0.7,0.5-1.1,1-1.5,1.6C83,35.8,82.8,36.4,82.8,37z"/>
	<path style="fill:#FFFFFF;" d="M114.6,52.3c0.6-0.8,1.3-1.7,2-2.6c0.8-0.9,1.5-1.8,2.3-2.6c0.8-0.8,1.6-1.4,2.4-2
		c0.8-0.5,1.6-0.8,2.3-0.8c0.2,0,0.4,0,0.6,0.1c0.2,0.1,0.4,0.2,0.6,0.4s0.4,0.4,0.5,0.7c0.1,0.3,0.2,0.7,0.2,1.2c0,1-0.1,2-0.4,2.9
		c-0.3,1-0.6,1.9-0.9,2.9c-0.3,1-0.6,1.9-0.9,2.9c-0.3,1-0.4,2-0.4,3.1c0,0.6,0.1,1.1,0.3,1.4c0.2,0.4,0.4,0.5,0.7,0.5
		c0.4,0,0.7-0.1,1.1-0.2c0.4-0.1,0.8-0.3,1.2-0.6c0.4-0.2,0.8-0.5,1.2-0.8c0.4-0.3,0.7-0.6,1.1-0.9c0.8-0.8,1.6-1.6,2.4-2.6l0.4,5.9
		c-0.3,0.2-0.6,0.5-1,0.8c-0.4,0.3-0.9,0.6-1.4,1c-0.5,0.3-1,0.7-1.6,1.1c-0.6,0.4-1.2,0.7-1.7,0.9c-0.6,0.3-1.2,0.5-1.7,0.7
		c-0.6,0.2-1.1,0.3-1.7,0.3c-0.8,0-1.5-0.2-2.1-0.7c-0.6-0.4-1.1-1-1.5-1.7c-0.4-0.7-0.7-1.4-0.9-2.2s-0.3-1.5-0.3-2.3
		c0-0.5,0.1-1,0.2-1.6c0.1-0.6,0.3-1.2,0.5-1.8c0.2-0.6,0.4-1.2,0.6-1.7c0.2-0.6,0.4-1.1,0.6-1.5c0.2-0.4,0.4-0.8,0.5-1.1
		c0.1-0.3,0.2-0.4,0.3-0.5l-0.5-0.1c-0.3,0.2-0.7,0.6-1.3,1.2c-0.6,0.7-1.3,1.5-2,2.5c-0.8,1-1.5,2.1-2.3,3.4
		c-0.8,1.3-1.5,2.6-2.2,3.9c-0.3,0.7-0.6,1.2-0.8,1.7c-0.2,0.5-0.4,0.9-0.6,1.2s-0.4,0.6-0.7,0.7c-0.2,0.2-0.5,0.2-0.9,0.2
		c-0.5,0-0.9-0.1-1.2-0.4s-0.5-0.7-0.6-1.1c-0.1-0.5-0.2-1-0.3-1.6c0-0.6-0.1-1.2-0.1-1.8c0-1,0-2.3,0-3.9c0-1.6,0.1-3.4,0.2-5.3
		c0.1-1.9,0.3-4,0.5-6.2c0.2-2.2,0.5-4.3,0.9-6.4c0.4-2.1,0.9-4.1,1.5-6c0.6-1.9,1.4-3.6,2.2-5s1.9-2.6,3.1-3.5
		c1.2-0.9,2.5-1.3,4.1-1.3c0.8,0,1.5,0.1,2,0.4c0.5,0.2,0.9,0.6,1.2,1c0.3,0.4,0.5,0.9,0.6,1.5c0.1,0.6,0.2,1.3,0.2,2
		c0,1.1-0.2,2.3-0.5,3.6c-0.3,1.3-0.7,2.7-1.2,4.1c-0.5,1.4-1.1,2.9-1.7,4.4c-0.6,1.5-1.3,2.9-2,4.3c-0.7,1.4-1.3,2.7-2,3.9
		s-1.2,2.3-1.7,3.2L114.6,52.3z M116.6,38.6c0.9-2.3,1.5-4.2,1.9-5.7c0.4-1.5,0.6-2.7,0.6-3.4c0-1.1-0.1-1.7-0.4-1.7
		c-0.4,0-1,0.6-1.7,1.9s-1.6,3.1-2.7,5.5c-0.3,0.8-0.5,1.7-0.7,2.5c-0.2,0.9-0.4,1.7-0.6,2.6c-0.2,0.9-0.3,1.7-0.5,2.5
		c-0.1,0.8-0.3,1.6-0.4,2.4c-0.3,1.8-0.4,3.5-0.6,5.2c0.4-0.9,0.8-1.9,1.3-3c0.5-1.1,0.9-2.2,1.4-3.2c0.5-1.1,0.9-2.1,1.3-3
		C116,40.1,116.3,39.3,116.6,38.6z"/>
	<path style="fill:#FFFFFF;" d="M152.8,60.6c-0.3,0.5-0.8,1-1.4,1.7c-0.6,0.6-1.2,1.2-1.9,1.8c-0.7,0.6-1.5,1.1-2.3,1.5
		s-1.6,0.6-2.4,0.6c-1,0-1.8-0.3-2.4-0.9c-0.6-0.6-1.2-1.5-1.7-2.7c-0.4,0.4-0.8,0.8-1.3,1.3c-0.5,0.4-1.1,0.8-1.7,1.2
		c-0.6,0.3-1.3,0.6-1.9,0.9c-0.7,0.2-1.3,0.3-2,0.3c-0.7,0-1.4-0.1-2.1-0.4c-0.7-0.3-1.3-0.7-1.8-1.2c-0.5-0.5-0.9-1.2-1.2-2
		s-0.5-1.6-0.5-2.6c0-1.1,0.2-2.2,0.5-3.4s0.7-2.3,1.3-3.4c0.5-1.1,1.2-2.2,1.9-3.2c0.7-1,1.6-1.9,2.4-2.6c0.9-0.7,1.8-1.3,2.8-1.8
		c1-0.4,2-0.7,3-0.7c0.3,0,0.6,0.1,0.8,0.2c0.2,0.1,0.4,0.3,0.5,0.5c0.1,0.2,0.2,0.3,0.4,0.5s0.3,0.3,0.4,0.4
		c0.2,0.1,0.4,0.1,0.5,0.1c0.2,0,0.4,0,0.6,0c0.2,0,0.3,0,0.5,0c0.2,0,0.3,0,0.5,0c0.2,0,0.4,0,0.6,0.1c0.2,0,0.4,0.1,0.5,0.3
		c0.1,0.1,0.3,0.4,0.3,0.6c0.1,0.3,0.1,0.6,0.1,1.1c0,0.7-0.1,1.5-0.2,2.4c-0.1,0.9-0.3,1.8-0.5,2.7c-0.2,0.9-0.3,1.8-0.5,2.7
		s-0.2,1.8-0.2,2.6c0,0.7,0.1,1.2,0.2,1.6c0.1,0.4,0.4,0.6,0.8,0.6c0.3,0,0.6-0.1,1-0.2c0.3-0.2,0.7-0.4,1-0.6
		c0.3-0.3,0.7-0.5,1-0.9c0.3-0.3,0.7-0.6,1-1c0.7-0.8,1.5-1.7,2.2-2.7L152.8,60.6z M133.9,58.9c0,0.4,0,0.7,0.1,1.1
		c0.1,0.3,0.1,0.7,0.3,0.9s0.3,0.5,0.5,0.7c0.2,0.2,0.5,0.3,0.8,0.3c0.5,0,1-0.2,1.5-0.7c0.4-0.5,0.8-1,1.2-1.7
		c0.3-0.7,0.6-1.4,0.8-2.1c0.2-0.7,0.3-1.3,0.4-1.8l1.4-6.5c-0.6,0-1.2,0.2-1.8,0.5s-1.1,0.7-1.6,1.2s-1,1.1-1.4,1.8
		s-0.8,1.4-1.1,2.1c-0.3,0.7-0.6,1.5-0.7,2.2C134,57.5,133.9,58.2,133.9,58.9z"/>
	<path style="fill:#FFFFFF;" d="M159.8,55.1c-0.4,1.6-0.9,3.1-1.5,4.4s-1.2,2.5-1.9,3.5c-0.7,1-1.4,1.7-2.1,2.3
		c-0.7,0.5-1.4,0.8-2.1,0.8c-1.2,0-2-0.8-2.5-2.5c-0.5-1.7-0.8-4.2-0.8-7.5c0-0.5,0-0.9,0-1.3s0-0.7,0-1.1c0-0.4,0-0.8,0.1-1.2
		c0-0.4,0.1-0.9,0.1-1.5c0-0.1,0-0.4,0.1-0.8c0.1-0.4,0.1-0.8,0.2-1.2c0.1-0.5,0.3-0.9,0.4-1.4c0.2-0.5,0.4-0.9,0.7-1.4
		c0.3-0.4,0.6-0.7,1-1c0.4-0.3,0.9-0.4,1.4-0.4l0.5,0c0.6,0,1.1,0.1,1.5,0.4c0.3,0.3,0.5,0.6,0.5,1l-1.6,12l0.3,0
		c0.6-1.5,1.2-2.9,1.7-4.1c0.5-1.2,0.9-2.4,1.3-3.4c0.4-1,0.8-1.9,1.2-2.6s0.8-1.4,1.2-1.8c0.4-0.5,0.9-0.9,1.5-1.1s1.2-0.4,2-0.4
		c0.6,0,1.1,0.1,1.5,0.4c0.3,0.3,0.5,0.6,0.5,1l-1.8,12l0.3,0l5.3-11.8c0.2-0.4,0.6-0.8,1.2-1.1c0.6-0.3,1.3-0.5,2.1-0.5
		c0.8,0,1.5,0.2,2,0.5c0.5,0.3,0.8,0.8,0.8,1.3c0,0.4-0.1,0.9-0.2,1.3s-0.3,0.9-0.5,1.3c-0.2,0.4-0.3,0.8-0.5,1s-0.2,0.4-0.2,0.5
		c-0.3,0.6-0.6,1.1-0.9,1.6c-0.3,0.5-0.5,0.9-0.7,1.3c-0.3,0.4-0.5,0.9-0.7,1.2c0.2,0.6,0.5,1.1,0.8,1.5c0.3,0.4,0.6,0.7,1,1.1
		c0.4,0.3,0.9,0.5,1.5,0.5c0.5,0,1-0.1,1.7-0.4c0.6-0.3,1.2-0.5,1.8-0.9c0.7-0.4,1.3-0.8,2-1.3v5.2c-1,0.6-2,1.1-3,1.5
		c-1,0.4-2,0.6-3,0.6c-0.8,0-1.5-0.1-2.1-0.3c-0.7-0.2-1.3-0.5-1.8-0.8s-0.9-0.9-1.2-1.5c-0.3-0.6-0.5-1.4-0.5-2.2
		c-0.5,1.2-1,2.3-1.6,3.2c-0.5,1-1.1,1.8-1.7,2.5c-0.6,0.7-1.2,1.3-1.7,1.7c-0.6,0.4-1.2,0.6-1.8,0.6c-0.2,0-0.4-0.2-0.5-0.5
		c-0.2-0.3-0.3-0.7-0.4-1.3c-0.1-0.5-0.2-1.2-0.3-1.9s-0.1-1.5-0.2-2.3c0-0.8-0.1-1.6-0.1-2.5c0-0.8,0-1.7,0-2.5L159.8,55.1z"/>
	<path style="fill:#FFFFFF;" d="M202.2,60.6c-0.3,0.5-0.8,1-1.4,1.7c-0.6,0.6-1.2,1.2-1.9,1.8c-0.7,0.6-1.5,1.1-2.3,1.5
		s-1.6,0.6-2.4,0.6c-1,0-1.8-0.3-2.4-0.9c-0.6-0.6-1.2-1.5-1.7-2.7c-0.4,0.4-0.8,0.8-1.3,1.3c-0.5,0.4-1.1,0.8-1.7,1.2
		c-0.6,0.3-1.3,0.6-1.9,0.9c-0.7,0.2-1.3,0.3-2,0.3c-0.7,0-1.4-0.1-2.1-0.4c-0.7-0.3-1.3-0.7-1.8-1.2c-0.5-0.5-0.9-1.2-1.2-2
		s-0.5-1.6-0.5-2.6c0-1.1,0.2-2.2,0.5-3.4s0.7-2.3,1.3-3.4c0.5-1.1,1.2-2.2,1.9-3.2c0.7-1,1.6-1.9,2.4-2.6c0.9-0.7,1.8-1.3,2.8-1.8
		c1-0.4,2-0.7,3-0.7c0.3,0,0.6,0.1,0.8,0.2c0.2,0.1,0.4,0.3,0.5,0.5c0.1,0.2,0.2,0.3,0.4,0.5s0.3,0.3,0.4,0.4
		c0.2,0.1,0.4,0.1,0.5,0.1c0.2,0,0.4,0,0.6,0c0.2,0,0.3,0,0.5,0c0.2,0,0.3,0,0.5,0c0.2,0,0.4,0,0.6,0.1c0.2,0,0.4,0.1,0.5,0.3
		c0.1,0.1,0.3,0.4,0.3,0.6c0.1,0.3,0.1,0.6,0.1,1.1c0,0.7-0.1,1.5-0.2,2.4c-0.1,0.9-0.3,1.8-0.5,2.7c-0.2,0.9-0.3,1.8-0.5,2.7
		s-0.2,1.8-0.2,2.6c0,0.7,0.1,1.2,0.2,1.6c0.1,0.4,0.4,0.6,0.8,0.6c0.3,0,0.6-0.1,1-0.2c0.3-0.2,0.7-0.4,1-0.6
		c0.3-0.3,0.7-0.5,1-0.9c0.3-0.3,0.7-0.6,1-1c0.7-0.8,1.5-1.7,2.2-2.7L202.2,60.6z M183.3,58.9c0,0.4,0,0.7,0.1,1.1
		c0.1,0.3,0.1,0.7,0.3,0.9s0.3,0.5,0.5,0.7c0.2,0.2,0.5,0.3,0.8,0.3c0.5,0,1-0.2,1.5-0.7c0.4-0.5,0.8-1,1.2-1.7
		c0.3-0.7,0.6-1.4,0.8-2.1c0.2-0.7,0.3-1.3,0.4-1.8l1.4-6.5c-0.6,0-1.2,0.2-1.8,0.5s-1.1,0.7-1.6,1.2s-1,1.1-1.4,1.8
		s-0.8,1.4-1.1,2.1c-0.3,0.7-0.6,1.5-0.7,2.2C183.4,57.5,183.3,58.2,183.3,58.9z"/>
	<path style="fill:#FFFFFF;" d="M199.6,61.4c0-0.7,0-1.4,0.1-2.3c0.1-0.9,0.2-1.8,0.3-2.7s0.3-1.9,0.4-2.9c0.2-1,0.4-1.9,0.5-2.8
		c0.2-0.9,0.4-1.7,0.6-2.5c0.2-0.8,0.4-1.4,0.6-1.9c0.1-0.3,0.2-0.6,0.4-0.8c0.1-0.2,0.3-0.3,0.4-0.5c0.2-0.1,0.3-0.2,0.6-0.2
		c0.2,0,0.5-0.1,0.9-0.1c0.4,0,0.7,0,0.9,0.1c0.2,0,0.4,0.1,0.5,0.3c0.1,0.1,0.2,0.3,0.2,0.6c0,0.3,0,0.6,0,1.1c0,0.5,0,1.2,0,2
		c0,0.8,0,1.5,0,2.3h0.2c0.3-0.6,0.6-1.3,1-2c0.4-0.7,0.8-1.4,1.3-2c0.5-0.6,1-1.2,1.7-1.6s1.3-0.7,2.1-0.7c0.3,0,0.6,0,0.8,0.1
		c0.3,0.1,0.5,0.2,0.7,0.4c0.2,0.2,0.4,0.4,0.5,0.7c0.1,0.3,0.2,0.6,0.2,0.9c0,0.3,0,0.6-0.1,1.1c-0.1,0.5-0.2,0.9-0.2,1.4
		c-0.1,0.5-0.2,1-0.2,1.4c-0.1,0.5-0.1,0.9-0.1,1.2c0,0.5,0.1,1,0.2,1.3c0.1,0.4,0.2,0.6,0.4,0.9c0.2,0.2,0.4,0.4,0.6,0.5
		c0.2,0.1,0.4,0.1,0.7,0.1c0.7,0,1.4-0.1,2.1-0.4c0.7-0.3,1.4-0.6,1.9-1c0.7-0.4,1.4-0.9,2-1.5l-0.3,5.2c-0.4,0.3-0.8,0.5-1.3,0.8
		c-0.5,0.3-1,0.6-1.6,0.9c-0.6,0.3-1.1,0.5-1.7,0.7c-0.6,0.2-1.2,0.3-1.8,0.3c-1.1,0-2-0.2-2.7-0.7c-0.7-0.5-1.2-1-1.6-1.8
		c-0.4-0.7-0.7-1.5-0.9-2.5s-0.3-1.8-0.5-2.8h-0.4l-4,11.1c-0.2,0.6-0.4,1.1-0.6,1.4c-0.2,0.4-0.4,0.7-0.6,0.9
		c-0.2,0.2-0.4,0.4-0.6,0.5c-0.2,0.1-0.5,0.1-0.7,0.1c-0.6,0-1.1-0.1-1.5-0.4c-0.4-0.3-0.7-0.6-0.9-1c-0.2-0.4-0.3-0.9-0.4-1.5
		S199.6,62,199.6,61.4z"/>
	<path style="fill:#FFFFFF;" d="M227.9,61.9c0-0.2,0-0.5,0-0.8c0-0.4,0.1-0.8,0.1-1.2c0.1-0.5,0.1-0.9,0.2-1.5
		c0.1-0.5,0.1-1,0.2-1.5c0.2-1.2,0.4-2.5,0.6-3.8h-0.3c-0.2,0.2-0.4,0.6-0.6,1c-0.2,0.4-0.5,1.1-1,1.9c-0.4,0.9-0.9,2-1.6,3.3
		s-1.5,3.1-2.5,5.1c-0.3,0.6-0.6,1-1,1.2c-0.4,0.2-0.8,0.3-1.3,0.3c-0.6,0-1.1-0.1-1.5-0.4c-0.4-0.3-0.7-0.6-0.9-1
		c-0.2-0.4-0.3-0.9-0.4-1.5S218,62,218,61.4c0-0.6,0-1.3,0.1-2.1c0.1-0.8,0.2-1.7,0.3-2.6c0.1-0.9,0.3-1.8,0.4-2.8
		c0.2-1,0.3-1.9,0.5-2.7c0.2-0.9,0.3-1.7,0.5-2.4s0.3-1.3,0.5-1.8c0.1-0.5,0.3-0.8,0.4-1.1c0.1-0.3,0.3-0.5,0.5-0.7
		c0.2-0.2,0.4-0.3,0.6-0.3c0.2-0.1,0.5-0.1,0.9-0.1c0.6,0,1,0,1.3,0.1c0.3,0,0.6,0.1,0.7,0.3c0.2,0.1,0.2,0.3,0.3,0.6
		c0,0.3,0,0.6,0,1.1c0,0.3,0,0.5,0,0.9c0,0.3-0.1,0.7-0.1,1s-0.1,0.8-0.1,1.1c-0.1,0.4-0.1,0.8-0.2,1.1c-0.1,0.9-0.3,1.8-0.4,2.7
		l0.2,0.3c0,0,0.2-0.3,0.5-0.8s0.6-1.1,1.1-1.9s0.9-1.5,1.4-2.3c0.5-0.8,1-1.5,1.4-2.1c0.4-0.6,0.9-1.1,1.4-1.5
		c0.5-0.4,1.1-0.6,1.7-0.6c0.6,0,1.2,0.2,1.6,0.5c0.4,0.4,0.7,0.9,0.7,1.5c0,0.6,0,1.1-0.1,1.6s-0.2,1-0.3,1.5
		c-0.1,0.5-0.2,1-0.3,1.4c-0.1,0.5-0.2,0.9-0.3,1.4c-0.1,0.3-0.1,0.6-0.1,0.6s0,0.1,0,0.2l0.2,0.3c0,0,0.2-0.3,0.5-0.8
		c0.3-0.5,0.7-1.1,1.1-1.8s0.9-1.5,1.4-2.3c0.5-0.8,1-1.5,1.4-2.1c0.4-0.6,0.9-1.1,1.3-1.5c0.4-0.4,1-0.6,1.6-0.6
		c0.7,0,1.3,0.2,1.8,0.5s0.7,0.9,0.7,1.5c0,1-0.1,2-0.2,2.9c-0.1,0.9-0.2,1.8-0.4,2.7s-0.3,1.8-0.4,2.7c-0.1,0.9-0.2,1.9-0.2,2.9
		c0,0.8,0.1,1.4,0.3,1.9s0.5,0.8,0.8,0.8c0.3,0,0.6-0.1,1-0.2s0.7-0.3,1-0.5c0.4-0.2,0.7-0.4,1-0.7c0.3-0.3,0.7-0.6,1-0.9
		c0.7-0.7,1.4-1.4,2.1-2.3l0.4,5.2c-0.7,0.5-1.3,1.1-1.9,1.6c-0.6,0.6-1.3,1.1-2,1.5s-1.5,0.8-2.4,1.1s-1.8,0.4-2.9,0.4
		c-0.5,0-1-0.2-1.3-0.5c-0.4-0.3-0.7-0.8-0.9-1.5s-0.4-1.4-0.5-2.2c-0.1-0.8-0.1-1.8-0.1-2.7c0-0.9,0-1.9,0.1-3
		c0.1-1,0.2-2.1,0.3-3.2h-0.3L233,64.5c-0.4,0.6-0.8,1-1.3,1.3c-0.5,0.2-1,0.3-1.6,0.3c-0.5,0-0.8-0.1-1.1-0.4
		c-0.3-0.3-0.5-0.6-0.7-1s-0.3-0.9-0.3-1.3C227.9,62.8,227.9,62.4,227.9,61.9z"/>
	<path style="fill:#FFFFFF;" d="M270.9,60.6c-0.3,0.5-0.8,1-1.4,1.7s-1.2,1.2-1.9,1.8c-0.7,0.6-1.5,1.1-2.3,1.5
		c-0.8,0.4-1.6,0.6-2.4,0.6c-1,0-1.8-0.3-2.4-0.9c-0.7-0.6-1.2-1.5-1.7-2.7c-0.4,0.4-0.8,0.8-1.3,1.3c-0.5,0.4-1.1,0.8-1.7,1.2
		c-0.6,0.3-1.3,0.6-1.9,0.9s-1.3,0.3-2,0.3c-0.7,0-1.4-0.1-2.1-0.4s-1.3-0.7-1.8-1.2c-0.5-0.5-0.9-1.2-1.2-2
		c-0.3-0.8-0.5-1.6-0.5-2.6c0-1.1,0.2-2.2,0.5-3.4c0.3-1.2,0.7-2.3,1.3-3.4c0.5-1.1,1.2-2.2,1.9-3.2c0.7-1,1.6-1.9,2.4-2.6
		c0.9-0.7,1.8-1.3,2.8-1.8c1-0.4,2-0.7,3-0.7c0.3,0,0.6,0.1,0.8,0.2c0.2,0.1,0.4,0.3,0.5,0.5c0.1,0.2,0.2,0.3,0.4,0.5
		s0.3,0.3,0.4,0.4c0.2,0.1,0.4,0.1,0.5,0.1c0.2,0,0.4,0,0.6,0c0.2,0,0.3,0,0.5,0c0.2,0,0.3,0,0.5,0c0.2,0,0.4,0,0.6,0.1
		c0.2,0,0.4,0.1,0.5,0.3c0.1,0.1,0.3,0.4,0.3,0.6s0.1,0.6,0.1,1.1c0,0.7-0.1,1.5-0.2,2.4c-0.1,0.9-0.3,1.8-0.5,2.7
		c-0.2,0.9-0.3,1.8-0.5,2.7s-0.2,1.8-0.2,2.6c0,0.7,0.1,1.2,0.2,1.6c0.1,0.4,0.4,0.6,0.8,0.6c0.3,0,0.6-0.1,1-0.2
		c0.3-0.2,0.7-0.4,1-0.6s0.7-0.5,1-0.9s0.7-0.6,1-1c0.7-0.8,1.5-1.7,2.2-2.7L270.9,60.6z M252,58.9c0,0.4,0,0.7,0.1,1.1
		s0.1,0.7,0.3,0.9s0.3,0.5,0.5,0.7c0.2,0.2,0.5,0.3,0.8,0.3c0.5,0,1-0.2,1.5-0.7c0.4-0.5,0.8-1,1.2-1.7c0.3-0.7,0.6-1.4,0.8-2.1
		c0.2-0.7,0.3-1.3,0.4-1.8l1.4-6.5c-0.6,0-1.2,0.2-1.8,0.5c-0.6,0.3-1.1,0.7-1.6,1.2c-0.5,0.5-1,1.1-1.4,1.8s-0.8,1.4-1.1,2.1
		c-0.3,0.7-0.5,1.5-0.7,2.2S252,58.2,252,58.9z"/>
</g>
<g>
	<path style="fill:#FFFFFF;" d="M62.6,88.1c-1.2,1.3-2.5,2.4-4,3.3s-3.1,1.7-4.7,2.4c-1.6,0.6-3.3,1.1-5,1.5
		c-1.7,0.3-3.3,0.5-4.9,0.5c-1.7,0-3.4-0.2-4.9-0.6c-1.5-0.4-2.9-1-4-1.9c-1.2-0.8-2.1-1.9-2.7-3.2s-1-2.8-1-4.6
		c0-1.5,0.3-2.9,0.8-4.3c0.5-1.4,1.4-2.6,2.5-3.7c1.1-1.1,2.6-1.9,4.3-2.6c1.8-0.6,3.9-1,6.3-1.1c-1.6,0-3-0.2-4.3-0.7
		c-1.2-0.5-2.2-1.1-3-1.9s-1.4-1.7-1.8-2.8c-0.4-1.1-0.6-2.2-0.6-3.4c0-1.1,0.2-2.1,0.6-3c0.4-0.9,0.9-1.7,1.6-2.5
		c0.7-0.7,1.5-1.4,2.4-1.9c0.9-0.5,1.9-1,3-1.4c1.1-0.4,2.2-0.6,3.4-0.8c1.2-0.2,2.4-0.3,3.6-0.3c1.7,0,3.4,0.2,5.1,0.6
		c1.7,0.4,3.1,0.9,4.4,1.7c1.3,0.8,2.3,1.7,3.1,2.8c0.8,1.1,1.2,2.4,1.2,4c0,0.5-0.2,1.1-0.5,1.6c-0.4,0.5-0.8,1-1.3,1.4
		c-0.5,0.4-1,0.7-1.6,1c-0.6,0.2-1,0.4-1.4,0.4c-0.3,0-0.5-0.3-0.5-0.8c0-0.5,0.1-1.1,0.2-1.9s0.4-1.7,0.8-2.9c-0.4-0.3-1-0.6-1.7-1
		c-0.8-0.3-1.6-0.6-2.6-0.9c-1-0.3-2-0.5-3.1-0.7c-1.1-0.2-2.2-0.3-3.2-0.3c-1,0-1.9,0.1-2.8,0.3c-0.9,0.2-1.7,0.5-2.4,0.9
		s-1.2,0.9-1.6,1.6c-0.4,0.7-0.6,1.5-0.6,2.5c0,0.8,0.1,1.5,0.4,2s0.7,1,1.2,1.4c0.5,0.4,1,0.7,1.6,0.9c0.6,0.2,1.3,0.5,1.9,0.7
		c0.7,0.2,1.3,0.4,2,0.6c0.6,0.2,1.2,0.4,1.8,0.6c0.5,0.2,1,0.5,1.4,0.8c0.4,0.3,0.6,0.7,0.7,1.2c0,0.3,0.1,0.6,0.1,0.9s0,0.6,0,0.9
		c0,0.8-0.2,1.4-0.5,1.8c-0.3,0.4-0.9,0.6-1.8,0.6c-0.4,0-0.9,0-1.4-0.1c-0.6,0-1.1-0.1-1.6-0.1c-1.2,0-2.3,0.2-3.5,0.5
		c-1.1,0.3-2.2,0.8-3.1,1.4c-0.9,0.6-1.6,1.3-2.2,2.2c-0.6,0.9-0.8,1.9-0.8,3.1c0,1.1,0.2,2,0.5,2.8c0.3,0.7,0.8,1.3,1.3,1.8
		c0.6,0.5,1.2,0.8,2,1c0.8,0.2,1.6,0.3,2.4,0.3c1,0,2.1-0.1,3.3-0.3c1.2-0.2,2.3-0.5,3.4-0.9s2.3-0.8,3.3-1.3c1.1-0.5,2.1-1,3-1.6
		s1.7-1.2,2.5-1.8c0.7-0.6,1.3-1.3,1.6-1.9L62.6,88.1z"/>
	<path style="fill:#FFFFFF;" d="M62,83.3c0,0.4,0,0.8,0,1.3c0,0.4,0,0.8,0,1.1s0,0.7,0,1c0,0.3,0.1,0.5,0.2,0.7s0.2,0.4,0.4,0.5
		c0.2,0.1,0.4,0.2,0.7,0.2c0.2,0,0.3-0.1,0.5-0.3c0.2-0.2,0.4-0.5,0.7-0.8c0.3-0.4,0.5-0.8,0.9-1.3s0.7-1,1.1-1.6
		c-0.5-1.1-0.9-2.2-1.4-3.5c-0.4-1.2-0.9-2.6-1.3-4.1c0-0.1,0-0.2,0-0.2c0-0.3,0.1-0.5,0.3-0.8c0.2-0.3,0.5-0.6,0.9-0.8
		c0.3-0.3,0.7-0.5,1.1-0.6c0.4-0.2,0.8-0.3,1.2-0.3c0.3,0,0.5,0.1,0.8,0.2c0.2,0.1,0.4,0.3,0.5,0.5c0.2,0.4,0.4,1,0.8,1.9
		c0.4,0.9,0.8,1.8,1.2,2.9c0.8-0.8,1.6-1.6,2.5-2.4c0.9-0.8,1.9-1.6,3-2.3c0.4-0.3,0.7-0.4,1-0.5c0.3-0.1,0.6-0.2,0.9-0.2
		c0.3,0,0.6,0.1,0.9,0.2c0.3,0.1,0.5,0.3,0.7,0.6c0.2,0.2,0.3,0.5,0.4,0.8c0.1,0.3,0.1,0.6,0.1,1c0,0.5-0.1,0.9-0.3,1.4
		c-0.2,0.4-0.5,0.8-0.9,1c-1.2,0.7-2.2,1.5-3.3,2.4c-1,0.9-2,1.8-2.9,2.8c0.3,0.6,0.7,1.3,1,1.8c0.3,0.6,0.7,1.1,1,1.5
		c0.3,0.4,0.6,0.8,0.9,1c0.3,0.2,0.6,0.4,0.8,0.4c0.3,0,0.7-0.1,1.2-0.2c0.5-0.2,1-0.4,1.5-0.7c0.5-0.3,1.1-0.6,1.6-0.9
		c0.5-0.3,1.1-0.7,1.6-1.1s0.9-0.8,1.4-1.1c0.4-0.4,0.7-0.7,1-1.1c0,0.5,0,0.9,0,1.3c0,0.4,0,0.8,0,1.1c0,0.4,0,0.7,0,1.1
		c0,0.4,0,0.8,0,1.3c-0.5,0.5-1.1,1-1.9,1.6c-0.8,0.6-1.6,1.2-2.6,1.7s-1.9,1-3,1.3c-1.1,0.4-2.1,0.5-3.2,0.5
		c-0.6,0-1.4-0.4-2.3-1.2c-0.9-0.8-1.9-2.1-3-4c-0.6,0.7-1.2,1.4-1.8,2c-0.6,0.6-1.1,1.2-1.6,1.6s-1,0.8-1.4,1.1
		c-0.4,0.3-0.8,0.4-1.2,0.4c-0.7,0-1.3-0.2-1.8-0.6c-0.5-0.4-0.9-0.9-1.1-1.5c-0.3-0.6-0.5-1.2-0.6-1.9c-0.1-0.7-0.2-1.4-0.2-2
		L62,83.3z"/>
	<path style="fill:#FFFFFF;" d="M92.1,89.7c1.5,0,2.8-0.1,4.1-0.4c1.2-0.3,2.3-0.7,3.3-1.2c1-0.5,1.9-1.1,2.7-1.8s1.5-1.4,2.2-2.2
		l0.2,5.1c-0.5,0.6-1,1.1-1.7,1.7c-0.7,0.5-1.4,1-2.2,1.4s-1.6,0.7-2.5,1c-0.9,0.2-1.7,0.4-2.6,0.4c-0.1,0-0.2,0-0.4,0
		c-0.2,0-0.4-0.1-0.8-0.2s-0.9-0.2-1.6-0.3c-0.7-0.1-1.7-0.3-2.9-0.5v0.4c0,2.7-0.2,5.1-0.7,7.3c-0.5,2.2-1.1,4.1-1.8,5.6
		c-0.8,1.6-1.6,2.7-2.6,3.6c-1,0.8-2,1.3-3,1.3c-0.8,0-1.5-0.2-2.1-0.6c-0.6-0.4-1-1-1.3-1.7c-0.3-0.7-0.6-1.5-0.7-2.5
		c-0.1-0.9-0.2-1.9-0.2-3c0-0.6,0.1-1.3,0.3-2c0.2-0.8,0.5-1.6,0.8-2.4c0.3-0.8,0.7-1.7,1.1-2.5c0.4-0.9,0.8-1.7,1.3-2.5
		c1-1.9,2.1-3.8,3.4-5.8c0.2-1.2,0.3-2.3,0.5-3.5c0.2-1.2,0.4-2.4,0.6-3.5c0.3-1.1,0.6-2.2,1-3.2c0.4-1,0.9-1.9,1.5-2.7
		c0.6-0.8,1.3-1.4,2.2-1.8c0.9-0.4,1.9-0.7,3.1-0.7c0.9,0,1.7,0.1,2.5,0.4c0.8,0.2,1.5,0.6,2.1,1.2s1.1,1.3,1.4,2.1
		c0.3,0.9,0.5,1.9,0.5,3.2c0,1-0.1,2-0.4,2.9c-0.3,0.9-0.8,1.8-1.4,2.7s-1.4,1.7-2.4,2.4c-1,0.7-2.1,1.4-3.4,2L92.1,89.7z
		 M81.6,103.4c0,0.1,0,0.3,0.1,0.6c0.1,0.3,0.1,0.5,0.3,0.8c0.1,0.3,0.3,0.5,0.5,0.7c0.2,0.2,0.4,0.3,0.7,0.3c0.3,0,0.5-0.1,0.6-0.4
		c0.2-0.3,0.3-0.6,0.4-1.1c0.1-0.5,0.2-1,0.2-1.6c0-0.6,0.1-1.2,0.1-1.8c0-0.6,0-1.2,0.1-1.8c0-0.6,0-1.1,0.1-1.6
		c0-0.8,0.1-1.5,0.1-2c0-0.6,0-1,0.1-1.4c0-0.4,0-0.8,0-1c-0.3,0.5-0.6,1.1-0.8,1.7c-0.3,0.6-0.5,1.3-0.8,2
		c-0.2,0.7-0.5,1.4-0.6,2.1s-0.4,1.3-0.5,1.9c-0.1,0.6-0.3,1.1-0.3,1.6C81.7,102.9,81.6,103.2,81.6,103.4z M89.3,87.5
		c0.9-0.4,1.6-0.9,2.3-1.5s1.2-1.1,1.7-1.8c0.5-0.6,0.8-1.3,1.1-1.9c0.3-0.7,0.5-1.3,0.7-2c0.1-0.3,0.1-0.7,0.1-1.1
		c0-0.4,0-0.8-0.1-1.2s-0.3-0.7-0.6-1c-0.3-0.3-0.7-0.4-1.1-0.4c-0.5,0-1,0.2-1.4,0.5s-0.8,0.7-1.1,1.2c-0.3,0.5-0.6,1.1-0.8,1.8
		c-0.2,0.7-0.4,1.5-0.5,2.3c-0.1,0.8-0.2,1.7-0.3,2.5C89.4,85.7,89.3,86.6,89.3,87.5z"/>
	<path style="fill:#FFFFFF;" d="M102,89c0-0.7,0-1.4,0.1-2.3c0.1-0.9,0.2-1.8,0.3-2.7s0.3-1.9,0.4-2.9c0.2-1,0.4-1.9,0.5-2.8
		c0.2-0.9,0.4-1.7,0.6-2.5c0.2-0.8,0.4-1.4,0.6-1.9c0.1-0.3,0.2-0.6,0.4-0.8c0.1-0.2,0.3-0.3,0.4-0.5c0.2-0.1,0.3-0.2,0.6-0.2
		c0.2,0,0.5-0.1,0.9-0.1c0.4,0,0.7,0,0.9,0.1c0.2,0,0.4,0.1,0.5,0.3c0.1,0.1,0.2,0.3,0.2,0.6c0,0.3,0,0.6,0,1.1c0,0.5,0,1.2,0,2
		c0,0.8,0,1.5,0,2.3h0.2c0.3-0.6,0.6-1.3,1-2c0.4-0.7,0.8-1.4,1.3-2c0.5-0.6,1-1.2,1.7-1.6c0.6-0.4,1.3-0.7,2.1-0.7
		c0.3,0,0.6,0,0.8,0.1s0.5,0.2,0.7,0.4c0.2,0.2,0.4,0.4,0.5,0.7c0.1,0.3,0.2,0.6,0.2,0.9c0,0.3,0,0.6-0.1,1.1
		c-0.1,0.5-0.2,0.9-0.2,1.4c-0.1,0.5-0.2,1-0.2,1.4c-0.1,0.5-0.1,0.9-0.1,1.2c0,0.5,0.1,1,0.2,1.3c0.1,0.4,0.2,0.6,0.4,0.9
		c0.2,0.2,0.4,0.4,0.6,0.5c0.2,0.1,0.4,0.1,0.7,0.1c0.7,0,1.4-0.1,2.1-0.4c0.7-0.3,1.4-0.6,1.9-1c0.7-0.4,1.4-0.9,2-1.5l-0.3,5.2
		c-0.4,0.3-0.8,0.5-1.3,0.8c-0.5,0.3-1,0.6-1.6,0.9c-0.6,0.3-1.1,0.5-1.7,0.7c-0.6,0.2-1.2,0.3-1.8,0.3c-1.1,0-2-0.2-2.7-0.7
		c-0.7-0.5-1.2-1-1.6-1.8c-0.4-0.7-0.7-1.5-0.9-2.5s-0.3-1.8-0.5-2.8h-0.4l-4,11.1c-0.2,0.6-0.4,1.1-0.6,1.4
		c-0.2,0.4-0.4,0.7-0.6,0.9c-0.2,0.2-0.4,0.4-0.6,0.5c-0.2,0.1-0.5,0.1-0.7,0.1c-0.6,0-1.1-0.1-1.5-0.4c-0.4-0.3-0.7-0.6-0.9-1
		c-0.2-0.4-0.3-0.9-0.4-1.5S102,89.6,102,89z"/>
	<path style="fill:#FFFFFF;" d="M128.6,93.7c-1.4,0-2.6-0.3-3.6-0.8s-1.9-1.2-2.6-2c-0.7-0.8-1.2-1.8-1.6-2.9
		c-0.3-1.1-0.5-2.3-0.5-3.5c0-0.8,0.1-1.7,0.2-2.6c0.2-0.9,0.4-1.8,0.7-2.7s0.7-1.7,1.3-2.5c0.5-0.8,1.1-1.5,1.8-2.1
		c0.7-0.6,1.4-1.1,2.3-1.5c0.8-0.4,1.8-0.5,2.8-0.5c0.8,0,1.6,0.1,2.3,0.4c0.7,0.3,1.3,0.6,1.8,1.1c0.5,0.5,0.9,1.1,1.2,1.7
		c0.3,0.7,0.4,1.4,0.4,2.3c0,0.9-0.2,1.8-0.7,2.7c-0.5,0.9-1.1,1.8-1.9,2.6c-0.8,0.8-1.7,1.5-2.8,2.2c-1.1,0.6-2.3,1.1-3.6,1.5
		c0.2,0.4,0.4,0.7,0.7,1c0.2,0.3,0.4,0.5,0.7,0.6c0.2,0.1,0.5,0.3,0.7,0.3c0.2,0.1,0.5,0.1,0.8,0.1c0.9,0,1.8-0.2,2.8-0.5
		c1-0.4,1.9-0.8,2.9-1.3c0.9-0.5,1.8-1.1,2.6-1.7c0.8-0.6,1.5-1.2,2.1-1.8l2.9,3c-1.3,1.3-2.7,2.5-4.1,3.6c-0.6,0.4-1.3,0.9-2,1.3
		c-0.7,0.4-1.5,0.8-2.3,1.1c-0.8,0.3-1.6,0.6-2.5,0.8S129.5,93.7,128.6,93.7z M125.7,83.2c0.5,0,1.1-0.1,1.7-0.4
		c0.6-0.3,1.2-0.6,1.7-1.1c0.5-0.4,1-0.9,1.4-1.4s0.6-1,0.6-1.5c0-0.7-0.1-1.2-0.4-1.6c-0.2-0.4-0.5-0.6-0.9-0.6
		c-0.6,0-1.2,0.1-1.6,0.4c-0.5,0.2-0.8,0.5-1.1,0.9c-0.3,0.4-0.5,0.8-0.7,1.3c-0.2,0.5-0.3,1-0.4,1.5c-0.1,0.5-0.2,1-0.2,1.4
		C125.7,82.5,125.7,82.9,125.7,83.2z"/>
	<path style="fill:#FFFFFF;" d="M137.9,85.1c0.8-0.7,1.5-1.3,2-1.8s1-0.9,1.3-1.3c0.4-0.4,0.7-0.8,1-1.2s0.7-0.9,1.1-1.4
		s0.9-1.2,1.5-2s1.4-1.8,2.3-3c0.2-0.3,0.4-0.5,0.6-0.8s0.5-0.5,0.8-0.7c0.3-0.2,0.6-0.4,1-0.5c0.3-0.1,0.7-0.2,1.2-0.2
		c0.7,0,1.3,0.1,1.6,0.2c0.4,0.2,0.7,0.3,0.8,0.6c0.2,0.2,0.3,0.5,0.3,0.7s0,0.5,0,0.6c0,0.4-0.1,0.7-0.4,1.2
		c-0.3,0.4-0.6,0.8-0.9,1.2s-0.7,0.8-1,1.1c-0.3,0.3-0.5,0.6-0.5,0.7c0,0.5,0,0.9,0.1,1.3c0.1,0.4,0.2,0.7,0.3,1.1
		c0.1,0.4,0.2,0.7,0.3,1.2c0.1,0.4,0.2,0.9,0.3,1.4c0.1,0.5,0.2,1.1,0.3,1.8c0.1,0.7,0.1,1.5,0.1,2.5c0.5-0.4,1.1-0.7,1.7-1
		c0.6-0.3,1.2-0.6,1.9-0.9c0.7-0.3,1.3-0.7,2-1c0.7-0.4,1.4-0.8,2.1-1.4l0,5c-0.9,0.7-2,1.4-3.2,2c-1.2,0.6-2.5,1.2-3.8,1.6
		c-1.3,0.5-2.7,0.8-4,1.1c-1.3,0.3-2.6,0.4-3.8,0.4c-0.9,0-1.7-0.1-2.4-0.2c-0.8-0.2-1.4-0.4-2-0.8c-0.6-0.3-1-0.8-1.4-1.4
		c-0.4-0.6-0.6-1.2-0.6-2c-0.2,0-0.4,0.1-0.6,0.1s-0.4,0-0.6,0c-0.2,0-0.5,0-0.7,0s-0.4-0.1-0.5-0.2c-0.1-0.1-0.3-0.3-0.4-0.5
		c-0.1-0.2-0.1-0.5-0.1-0.9c0-0.4,0.1-0.7,0.3-1s0.4-0.6,0.6-0.8c0.2-0.2,0.5-0.4,0.7-0.6S137.7,85.3,137.9,85.1z M140.7,88
		c0.2,0,0.4,0.1,0.6,0.3c0.2,0.2,0.5,0.5,0.7,0.7c0.3,0.3,0.6,0.5,1,0.7c0.4,0.2,0.8,0.3,1.3,0.3c0.6,0,1.1-0.1,1.4-0.3
		c0.4-0.2,0.7-0.4,0.9-0.8c0.2-0.3,0.4-0.7,0.5-1.1c0.1-0.4,0.1-0.9,0.1-1.3c0-0.4,0-0.8-0.1-1.2c-0.1-0.4-0.1-0.8-0.2-1.2
		c-0.1-0.4-0.2-0.7-0.3-1.1c-0.1-0.3-0.2-0.6-0.3-0.9L140.7,88z"/>
	<path style="fill:#FFFFFF;" d="M157,85.1c0.8-0.7,1.5-1.3,2-1.8c0.5-0.5,1-0.9,1.3-1.3c0.4-0.4,0.7-0.8,1-1.2s0.7-0.9,1.1-1.4
		c0.4-0.5,0.9-1.2,1.5-2c0.6-0.8,1.4-1.8,2.3-3c0.2-0.3,0.4-0.5,0.6-0.8c0.2-0.3,0.5-0.5,0.8-0.7s0.6-0.4,1-0.5
		c0.3-0.1,0.7-0.2,1.2-0.2c0.7,0,1.3,0.1,1.6,0.2c0.4,0.2,0.7,0.3,0.8,0.6c0.2,0.2,0.3,0.5,0.3,0.7c0,0.2,0,0.5,0,0.6
		c0,0.4-0.1,0.7-0.4,1.2c-0.3,0.4-0.6,0.8-0.9,1.2c-0.3,0.4-0.7,0.8-1,1.1c-0.3,0.3-0.5,0.6-0.5,0.7c0,0.5,0,0.9,0.1,1.3
		c0.1,0.4,0.2,0.7,0.3,1.1c0.1,0.4,0.2,0.7,0.3,1.2c0.1,0.4,0.2,0.9,0.3,1.4c0.1,0.5,0.2,1.1,0.3,1.8c0.1,0.7,0.1,1.5,0.1,2.5
		c0.5-0.4,1.1-0.7,1.7-1c0.6-0.3,1.3-0.6,1.9-0.9c0.7-0.3,1.3-0.7,2-1c0.7-0.4,1.4-0.8,2.1-1.4l0,5c-0.9,0.7-2,1.4-3.2,2
		c-1.2,0.6-2.5,1.2-3.8,1.6c-1.3,0.5-2.7,0.8-4,1.1c-1.4,0.3-2.6,0.4-3.8,0.4c-0.9,0-1.7-0.1-2.4-0.2c-0.8-0.2-1.4-0.4-2-0.8
		c-0.6-0.3-1-0.8-1.4-1.4c-0.4-0.6-0.6-1.2-0.6-2c-0.2,0-0.4,0.1-0.6,0.1s-0.4,0-0.6,0c-0.2,0-0.5,0-0.7,0s-0.4-0.1-0.5-0.2
		c-0.1-0.1-0.3-0.3-0.4-0.5s-0.1-0.5-0.1-0.9c0-0.4,0.1-0.7,0.3-1c0.2-0.3,0.4-0.6,0.6-0.8s0.5-0.4,0.7-0.6
		C156.7,85.4,156.9,85.3,157,85.1z M159.9,88c0.2,0,0.4,0.1,0.6,0.3c0.2,0.2,0.5,0.5,0.7,0.7s0.6,0.5,1,0.7c0.4,0.2,0.8,0.3,1.3,0.3
		c0.6,0,1.1-0.1,1.4-0.3c0.4-0.2,0.7-0.4,0.9-0.8c0.2-0.3,0.4-0.7,0.5-1.1s0.1-0.9,0.1-1.3c0-0.4,0-0.8-0.1-1.2
		c-0.1-0.4-0.1-0.8-0.2-1.2c-0.1-0.4-0.2-0.7-0.3-1.1c-0.1-0.3-0.2-0.6-0.3-0.9L159.9,88z"/>
</g>
</svg>
