<?xml version="1.0" encoding="utf-8"?>
<!-- Generator: Adobe Illustrator 17.1.0, SVG Export Plug-In . SVG Version: 6.00 Build 0)  -->
<!DOCTYPE svg PUBLIC "-//W3C//DTD SVG 1.1//EN" "http://www.w3.org/Graphics/SVG/1.1/DTD/svg11.dtd">
<svg version="1.1" id="Layer_1" xmlns="http://www.w3.org/2000/svg" xmlns:xlink="http://www.w3.org/1999/xlink" x="0px" y="0px"
	 viewBox="94 31 172 154" enable-background="new 94 31 172 154" xml:space="preserve">
<circle opacity="0.5" fill="#E6B62A" enable-background="new    " cx="179.5" cy="106.5" r="65.3"/>
<g enable-background="new    ">
	<path fill="#FFFFFF" d="M140.4,99.4c-0.6,0.4-1.1,0.8-1.6,1.3c-0.5,0.5-1,1.1-1.5,1.7c-0.5,0.6-1,1.2-1.5,1.9
		c-0.5,0.7-1.1,1.3-1.7,2c-0.6,0.7-1.3,1.3-2.1,2c-0.8,0.6-1.6,1.2-2.6,1.8s-2,1-3.2,1.5c-1.2,0.4-2.5,0.8-4,1
		c-1.6,0.3-3.2,0.2-4.6-0.2s-2.7-1.1-3.9-2.1c-1.1-1-2.1-2.2-2.8-3.6c-0.8-1.4-1.3-2.9-1.6-4.6c-0.2-1.1-0.3-2.4-0.3-3.7
		c0-1.3,0.2-2.7,0.4-4.1c0.2-1.4,0.6-2.8,1-4.3c0.4-1.4,1-2.8,1.6-4.2c0.6-1.4,1.4-2.7,2.2-3.9c0.8-1.2,1.7-2.3,2.7-3.3
		c1-1,2.1-1.8,3.3-2.4c1.2-0.7,2.5-1.1,3.8-1.3c0.9-0.1,1.8-0.1,2.8,0c1,0.2,1.8,0.5,2.7,1c0.8,0.5,1.6,1.2,2.2,2.2
		c0.6,0.9,1.1,2,1.3,3.4c0.2,0.9,0.2,1.8,0,2.8c-0.1,1-0.4,1.9-0.7,2.9c-0.4,0.9-0.8,1.8-1.4,2.7c-0.6,0.9-1.2,1.6-1.9,2.3
		c-0.7,0.7-1.4,1.2-2.2,1.7c-0.8,0.5-1.6,0.8-2.4,0.9c-1.1,0.2-2,0.2-2.6,0s-0.9-0.6-1-1.2c0-0.1,0-0.2-0.1-0.3
		c0-0.1-0.1-0.3-0.1-0.4c0-0.2-0.1-0.5-0.1-0.7c0-0.2,0-0.5,0-0.7s0.1-0.4,0.2-0.5c0.1-0.1,0.3-0.2,0.5-0.3c0.1,0,0.3,0,0.4,0
		c0.1,0,0.2,0,0.4,0.1c0.1,0,0.3,0,0.5,0.1c0.2,0,0.4,0,0.7-0.1c0.8-0.1,1.5-0.4,2.3-0.9s1.4-1.1,1.9-1.8c0.5-0.7,0.9-1.6,1.2-2.5
		c0.3-0.9,0.3-1.9,0.1-3c-0.1-0.5-0.3-1.1-0.5-1.5c-0.2-0.5-0.5-0.9-0.9-1.2c-0.4-0.3-0.9-0.5-1.4-0.7c-0.6-0.1-1.2-0.1-2,0
		c-0.9,0.1-1.7,0.5-2.5,1c-0.8,0.5-1.5,1.2-2.1,2c-0.7,0.8-1.3,1.7-1.8,2.7c-0.5,1-1,2.1-1.4,3.2c-0.4,1.1-0.8,2.3-1,3.5
		c-0.3,1.2-0.5,2.4-0.6,3.5c-0.1,1.2-0.2,2.3-0.2,3.4c0,1.1,0.1,2.1,0.2,2.9c0.2,1.3,0.6,2.3,1,3.2c0.5,0.9,1,1.6,1.7,2.1
		c0.7,0.5,1.5,0.9,2.3,1c0.9,0.2,1.8,0.2,2.9,0c1.3-0.2,2.5-0.6,3.5-1.1c1.1-0.5,2.1-1.1,3-1.8c0.9-0.7,1.8-1.5,2.6-2.3
		c0.8-0.8,1.7-1.6,2.5-2.5c0.8-0.8,1.7-1.6,2.6-2.4c0.9-0.8,1.8-1.5,2.9-2.1L140.4,99.4z"/>
	<path fill="#FFFFFF" d="M146.7,90.5c0.5,0.6,0.9,1.4,1.2,2.1c0.3,0.8,0.5,1.5,0.7,2.2c0.1,0.7,0.2,1.5,0.1,2.2
		c0,0.8-0.1,1.5-0.3,2.2c-0.2,0.7-0.4,1.4-0.8,2.1c-0.3,0.7-0.7,1.3-1.2,1.8c-0.5,0.5-1,1-1.6,1.4c-0.6,0.4-1.3,0.6-2,0.7
		c-1.1,0.2-2,0.1-2.9-0.2c-0.8-0.3-1.6-0.8-2.2-1.5c-0.6-0.7-1.1-1.5-1.5-2.4c-0.4-0.9-0.7-1.9-0.8-2.8c-0.2-1.3-0.2-2.6,0-3.9
		c0.2-1.2,0.6-2.3,1.2-3.3c0.6-1,1.4-1.8,2.4-2.5c1-0.7,2.2-1.1,3.5-1.4c1.2-0.2,2.3-0.2,3.4,0c1.1,0.2,2.1,0.5,3.1,1
		c1,0.5,1.9,1,2.8,1.7c0.9,0.7,1.7,1.3,2.5,2.1l0.1,2.6c-0.4-0.4-0.9-0.8-1.6-1.2c-0.6-0.4-1.3-0.8-2-1.2s-1.4-0.7-2.1-1.1
		c-0.7-0.3-1.3-0.6-1.8-0.8L146.7,90.5z M142.8,101.7c0.4-0.1,0.8-0.4,1.1-0.8c0.3-0.5,0.6-1.1,0.8-1.8s0.3-1.4,0.3-2.2
		c0-0.8,0-1.6-0.1-2.3c-0.1-0.6-0.2-1.1-0.4-1.5c-0.2-0.5-0.4-0.9-0.6-1.2c-0.2-0.3-0.5-0.6-0.8-0.7c-0.3-0.2-0.6-0.2-1-0.1
		c-0.5,0.1-0.9,0.4-1.3,0.9c-0.4,0.5-0.7,1.1-0.9,1.8c-0.2,0.7-0.4,1.5-0.4,2.3c-0.1,0.8,0,1.6,0.1,2.4c0.1,0.5,0.2,1,0.4,1.4
		c0.2,0.4,0.4,0.8,0.7,1.1c0.3,0.3,0.6,0.5,1,0.7C141.9,101.8,142.3,101.8,142.8,101.7z"/>
	<path fill="#FFFFFF" d="M160.8,98.7c0-0.2-0.1-0.4-0.1-0.7c0-0.3,0-0.6-0.1-1c0-0.4,0-0.8,0-1.2c0-0.4,0-0.9,0-1.3c0-1,0-2.1,0-3.2
		l-0.3,0c-0.1,0.2-0.2,0.5-0.4,0.9c-0.1,0.4-0.3,1-0.5,1.7c-0.2,0.8-0.5,1.8-0.8,3c-0.3,1.2-0.8,2.8-1.3,4.6
		c-0.2,0.5-0.4,0.9-0.7,1.2c-0.3,0.2-0.6,0.4-1,0.4c-0.5,0.1-0.9,0-1.3-0.1s-0.6-0.4-0.9-0.7c-0.2-0.3-0.4-0.7-0.5-1.2
		c-0.1-0.4-0.2-0.9-0.3-1.4c-0.1-0.5-0.2-1.1-0.2-1.8s-0.1-1.4-0.1-2.2c0-0.8,0-1.6-0.1-2.4c0-0.8,0-1.6,0-2.3c0-0.7,0-1.4,0.1-2.1
		c0-0.6,0.1-1.1,0.2-1.5c0.1-0.4,0.1-0.7,0.2-1c0.1-0.3,0.2-0.5,0.3-0.6c0.1-0.2,0.3-0.3,0.5-0.3c0.2-0.1,0.4-0.1,0.7-0.2
		c0.5-0.1,0.8-0.1,1.1-0.1c0.3,0,0.5,0,0.6,0.1c0.1,0.1,0.3,0.2,0.3,0.5c0.1,0.2,0.1,0.5,0.2,0.9c0,0.2,0.1,0.4,0.1,0.7
		c0,0.3,0,0.6,0.1,0.9s0,0.6,0,1c0,0.3,0,0.7,0,1c0,0.7,0,1.5,0,2.3l0.2,0.2c0,0,0.1-0.3,0.3-0.8c0.2-0.5,0.4-1,0.6-1.7
		c0.2-0.7,0.5-1.3,0.8-2.1c0.3-0.7,0.6-1.4,0.9-1.9c0.3-0.6,0.6-1,0.9-1.4c0.3-0.4,0.8-0.6,1.3-0.7c0.5-0.1,1,0,1.4,0.2
		c0.4,0.2,0.7,0.6,0.8,1.2c0.1,0.5,0.1,0.9,0.1,1.4c0,0.4,0,0.9,0,1.3c0,0.4-0.1,0.8-0.1,1.2c0,0.4-0.1,0.8-0.1,1.2
		c0,0.3,0,0.5,0,0.5c0,0.1,0,0.1,0,0.1l0.2,0.2c0,0,0.1-0.3,0.3-0.8c0.2-0.5,0.4-1,0.7-1.7c0.3-0.7,0.6-1.4,0.9-2.1
		c0.3-0.7,0.6-1.4,0.9-1.9c0.3-0.5,0.6-1,0.9-1.4c0.3-0.4,0.7-0.6,1.2-0.7c0.6-0.1,1.1,0,1.5,0.2c0.4,0.2,0.7,0.6,0.8,1.2
		c0.1,0.8,0.2,1.6,0.3,2.4c0,0.8,0.1,1.5,0.1,2.3c0,0.8,0,1.5,0.1,2.3c0,0.8,0.1,1.6,0.3,2.4c0.1,0.7,0.3,1.2,0.5,1.6
		c0.2,0.4,0.5,0.6,0.7,0.5c0.3,0,0.5-0.1,0.8-0.3c0.3-0.2,0.5-0.3,0.8-0.6c0.3-0.2,0.5-0.5,0.8-0.7c0.2-0.3,0.5-0.6,0.7-0.8
		c0.5-0.7,1-1.4,1.5-2.2l1,4.3c-0.5,0.5-0.9,1.1-1.4,1.6c-0.5,0.5-0.9,1.1-1.5,1.5c-0.5,0.5-1.1,0.9-1.8,1.2
		c-0.7,0.4-1.4,0.6-2.3,0.8c-0.4,0.1-0.8,0-1.2-0.2c-0.3-0.2-0.7-0.6-0.9-1.1s-0.5-1.1-0.7-1.7c-0.2-0.7-0.4-1.4-0.5-2.3
		c-0.1-0.8-0.2-1.6-0.3-2.5c-0.1-0.9-0.2-1.8-0.2-2.6l-0.3,0l-2.1,10.1c-0.2,0.6-0.5,1-0.9,1.2c-0.4,0.2-0.8,0.4-1.3,0.5
		c-0.4,0.1-0.7,0-1-0.2c-0.3-0.2-0.5-0.4-0.7-0.7c-0.2-0.3-0.3-0.7-0.4-1.1C161,99.5,160.9,99.1,160.8,98.7z"/>
	<path fill="#FFFFFF" d="M188.3,93.6c-0.4,0.5-0.8,1-1.4,1.6c-0.6,0.6-1.2,1.1-1.9,1.6c-0.7,0.5-1.4,1-2.2,1.4
		c-0.7,0.4-1.5,0.6-2.2,0.8c-0.6,0.1-1.2,0.1-1.6,0c-0.5-0.1-0.9-0.3-1.2-0.6c-0.3-0.3-0.6-0.6-0.8-1.1c-0.2-0.4-0.3-0.9-0.4-1.5
		c-0.1-0.8-0.2-1.7-0.2-2.7c0-1,0-2.1,0.1-3.3s0.2-2.3,0.3-3.4s0.2-2.2,0.2-3.1c0-0.3,0.2-0.6,0.4-0.9c0.2-0.3,0.5-0.5,0.8-0.7
		c0.3-0.2,0.6-0.4,1-0.5c0.3-0.1,0.6-0.2,0.9-0.3c0.5-0.1,0.9-0.1,1.1,0.1c0.2,0.2,0.4,0.4,0.4,0.7c0,0.3,0.1,0.7,0,1.2
		c0,0.5-0.1,1.1-0.2,1.8s-0.2,1.4-0.2,2.2c-0.1,0.8-0.2,1.5-0.2,2.3c-0.1,0.8-0.1,1.5-0.1,2.2c0,0.7,0,1.4,0.1,1.9
		c0.1,0.5,0.2,1,0.4,1.3c0.2,0.3,0.5,0.4,0.8,0.4c0.4-0.1,0.9-0.3,1.4-0.7c0.5-0.4,1-0.9,1.4-1.4c0.5-0.5,0.9-1.1,1.4-1.6
		c0.4-0.6,0.8-1,1.2-1.4L188.3,93.6z M176.9,76.1c0-0.3,0-0.6,0-1c0.1-0.4,0.2-0.7,0.4-1.1s0.5-0.7,1-1c0.4-0.3,1-0.5,1.7-0.6
		c0.4-0.1,0.8-0.1,1.2-0.1c0.4,0,0.8,0.1,1.1,0.3c0.3,0.2,0.6,0.4,0.8,0.7c0.2,0.3,0.4,0.7,0.4,1.1c0.1,0.4,0.1,0.8,0,1.2
		s-0.2,0.8-0.5,1.2s-0.6,0.7-1,0.9c-0.4,0.3-0.9,0.5-1.6,0.6c-1.1,0.2-1.9,0.1-2.5-0.4C177.4,77.6,177,77,176.9,76.1z"/>
	<path fill="#FFFFFF" d="M187,93.9c-0.1-0.8-0.2-1.7-0.3-2.8c-0.1-1.1-0.1-2.2-0.2-3.3c0-1.1-0.1-2.2,0-3.2c0-1,0-1.9,0.1-2.7
		c0-0.6,0.2-1.1,0.5-1.5c0.3-0.4,0.8-0.7,1.5-0.8c0.7-0.1,1.2,0,1.5,0.4c0.3,0.4,0.5,0.9,0.7,1.5c0,0.2,0.1,0.4,0.1,0.8
		c0,0.3,0,0.7,0,1c0,0.4,0,0.8,0,1.2c0,0.4,0,0.8,0,1.1c0,0.3,0,0.6,0,0.9c0,0.3,0,0.4,0,0.5l0.4-0.1c0.1-0.1,0.1-0.4,0.2-0.7
		c0.1-0.3,0.2-0.7,0.4-1.1c0.1-0.4,0.3-0.9,0.5-1.4c0.2-0.5,0.3-0.9,0.5-1.4c0.1-0.4,0.3-0.8,0.4-1.1c0.1-0.3,0.2-0.6,0.3-0.7
		c0.3-0.7,0.6-1.3,1.1-1.6c0.5-0.3,1-0.5,1.6-0.6s1.1,0.1,1.6,0.5c0.4,0.5,0.7,1.1,0.9,2c0,0.1,0,0.4,0,0.7c0,0.3,0,0.7,0,1.2
		c0,0.5,0,1,0,1.5c0,0.5,0,1.1,0,1.7c0,0.6,0,1.1,0.1,1.7c0,0.5,0.1,1,0.2,1.5c0.1,0.8,0.3,1.4,0.6,1.8c0.3,0.5,0.6,0.6,1,0.6
		c0.2,0,0.4-0.1,0.6-0.3c0.2-0.2,0.5-0.3,0.7-0.6c0.2-0.2,0.5-0.5,0.7-0.8c0.2-0.3,0.5-0.6,0.7-0.9c0.5-0.7,1.1-1.4,1.7-2.3l1,4
		l-0.8,0.9c-0.4,0.5-0.9,0.9-1.3,1.4c-0.5,0.5-0.9,0.9-1.4,1.3c-0.5,0.4-1.1,0.7-1.6,1c-0.6,0.3-1.2,0.5-1.9,0.6s-1.3-0.3-1.9-1.2
		c-0.6-0.9-1.1-2.3-1.4-4.1c-0.1-0.7-0.2-1.5-0.3-2.4c0-0.9-0.1-1.8-0.1-2.8l-0.3,0l-3.2,10.3c-0.2,0.5-0.4,0.9-0.6,1.2
		c-0.3,0.2-0.6,0.4-1,0.5c-0.5,0.1-0.9,0-1.3-0.1c-0.3-0.2-0.6-0.4-0.9-0.7c-0.2-0.3-0.4-0.7-0.5-1.2
		C187.2,94.8,187.1,94.3,187,93.9z"/>
	<path fill="#FFFFFF" d="M211.9,91.6c-0.6,0.7-1.2,1.3-1.8,1.8c-0.7,0.5-1.3,0.8-2,0.9c-0.6,0.1-1.2,0.1-1.8-0.1
		c-0.6-0.1-1.1-0.4-1.6-0.8c-0.5-0.4-0.9-0.9-1.3-1.5c-0.4-0.6-0.6-1.3-0.8-2.1c-0.2-0.9-0.2-1.9-0.1-2.9s0.3-2,0.6-3
		c0.3-1,0.7-2,1.2-2.9c0.5-0.9,1-1.8,1.7-2.5c0.6-0.7,1.3-1.4,2.1-1.9c0.8-0.5,1.5-0.8,2.4-1c0.3,0,0.5,0,0.7,0.1
		c0.2,0.1,0.3,0.2,0.5,0.3c0.1,0.1,0.3,0.2,0.4,0.4c0.1,0.1,0.3,0.2,0.4,0.2c0.2,0,0.3,0.1,0.5,0s0.3,0,0.5-0.1c0.1,0,0.3,0,0.4-0.1
		c0.1,0,0.3-0.1,0.4-0.1c0.2,0,0.4,0,0.5,0c0.2,0,0.3,0.1,0.5,0.2c0.1,0.1,0.3,0.3,0.4,0.5c0.1,0.2,0.2,0.5,0.3,0.9
		c0.1,0.3,0.1,0.7,0.1,1.3s0.1,1.2,0.1,1.8c0,0.7,0.1,1.4,0.1,2.1s0,1.5,0,2.2c0,1.7,0,3.6,0,5.6c0.3-0.3,0.7-0.6,1.1-1
		c0.4-0.4,0.8-0.9,1.2-1.5c0.4-0.6,0.9-1.3,1.4-2.2c0.5-0.9,1.1-2,1.7-3.3L223,87c-0.2,0.4-0.4,0.9-0.7,1.3c-0.3,0.5-0.6,0.9-1,1.4
		s-0.7,0.9-1.1,1.4c-0.4,0.5-0.8,0.9-1.2,1.3c-0.9,1-1.9,1.9-3,2.8c0,1.3-0.1,2.7-0.2,4s-0.3,2.5-0.5,3.7c-0.2,1.2-0.6,2.2-1,3.2
		c-0.4,1-0.9,1.9-1.5,2.6c-0.6,0.8-1.3,1.4-2.1,1.9c-0.8,0.5-1.7,0.9-2.8,1c-0.4,0.1-0.9,0.1-1.4,0.1c-0.5,0-1-0.1-1.4-0.3
		c-0.5-0.2-0.9-0.5-1.2-0.9c-0.3-0.4-0.6-1-0.7-1.8c-0.1-0.5-0.1-1.2,0.1-1.9c0.2-0.7,0.4-1.5,0.8-2.4c0.4-0.8,0.8-1.7,1.3-2.7
		c0.5-0.9,1.1-1.9,1.8-2.8c0.6-1,1.3-1.9,2.1-2.8c0.7-0.9,1.5-1.8,2.2-2.7L211.9,91.6z M207.7,108.1c0.5-0.1,1-0.3,1.4-0.7
		c0.4-0.4,0.8-0.8,1.1-1.4c0.3-0.6,0.6-1.2,0.8-1.8c0.2-0.7,0.4-1.4,0.5-2.1c0.1-0.7,0.2-1.4,0.3-2c0.1-0.7,0.1-1.2,0.1-1.7
		c-0.4,0.4-0.8,0.9-1.3,1.4c-0.4,0.5-0.8,1.1-1.2,1.7c-0.4,0.6-0.7,1.2-1.1,1.8s-0.6,1.2-0.8,1.7c-0.2,0.5-0.4,1.1-0.5,1.5
		c-0.1,0.5-0.1,0.8-0.1,1.1C207,108,207.2,108.2,207.7,108.1z M207.1,88.3c0.1,0.3,0.1,0.6,0.2,0.9c0.1,0.3,0.2,0.5,0.4,0.7
		c0.1,0.2,0.3,0.4,0.5,0.5s0.5,0.1,0.7,0.1c0.5-0.1,0.8-0.3,1.1-0.8c0.3-0.5,0.5-1,0.7-1.6c0.2-0.6,0.3-1.2,0.4-1.8
		c0.1-0.6,0.1-1.1,0.1-1.5l0.2-5.6c-0.5,0.1-1,0.3-1.4,0.6c-0.4,0.3-0.8,0.7-1.2,1.2c-0.3,0.5-0.7,1.1-0.9,1.7
		c-0.3,0.6-0.5,1.2-0.6,1.9c-0.2,0.6-0.2,1.3-0.3,1.9C207,87.1,207,87.7,207.1,88.3z"/>
</g>
<g enable-background="new    ">
	<path fill="#FFFFFF" d="M167.8,114.1c0.1,0.8,0.5,1.5,1.1,2c0.6,0.6,1.3,1,2.2,1.4c0.9,0.4,1.8,0.8,2.9,1.1c1.1,0.3,2.2,0.7,3.3,1
		c1.1,0.3,2.2,0.7,3.3,1.2c1.1,0.4,2.1,0.9,3,1.6c0.9,0.6,1.7,1.3,2.3,2.2c0.6,0.9,1,1.9,1.3,3.1c0.2,1.1,0.2,2.1,0,3.1
		c-0.2,1-0.5,1.9-1,2.7c-0.5,0.8-1.1,1.6-1.9,2.3c-0.7,0.7-1.6,1.3-2.5,1.9c-0.9,0.5-1.9,1-2.9,1.4s-2.1,0.7-3.2,0.8
		c-1.5,0.3-3,0.3-4.5,0.2c-1.5-0.1-2.9-0.5-4.1-1c-1.3-0.6-2.3-1.3-3.2-2.4s-1.4-2.3-1.7-3.8c-0.1-0.8-0.1-1.5,0-2.1
		c0.1-0.6,0.4-1.2,0.7-1.6c0.3-0.5,0.7-0.8,1.1-1.1c0.4-0.3,0.8-0.4,1.2-0.5c0.4-0.1,0.7,0,1,0.2c0.3,0.2,0.5,0.5,0.6,0.9
		c0,0.2,0,0.4,0,0.7s0,0.5,0,0.8c0,0.3,0,0.6,0,0.9c0,0.3,0,0.7,0.1,1.1c0.1,0.9,0.5,1.6,1,2.1c0.5,0.6,1.1,1,1.8,1.3
		c0.7,0.3,1.5,0.5,2.4,0.5c0.9,0.1,1.8,0,2.7-0.2c1.1-0.2,2.1-0.5,3.1-0.9c1-0.4,1.9-1,2.7-1.6c0.8-0.6,1.3-1.4,1.7-2.2
		c0.4-0.8,0.5-1.7,0.4-2.6c-0.1-0.9-0.5-1.6-1.1-2.2c-0.6-0.6-1.3-1.1-2.2-1.6c-0.9-0.4-1.8-0.8-2.9-1.2c-1.1-0.3-2.2-0.7-3.3-1
		c-1.1-0.4-2.2-0.7-3.3-1.1c-1.1-0.4-2.1-0.9-3-1.5c-0.9-0.6-1.7-1.2-2.3-2c-0.6-0.8-1-1.7-1.2-2.8c-0.2-1-0.1-2.1,0.2-3.2
		c0.3-1.1,0.9-2.1,1.8-3.1c0.9-1,2-1.8,3.4-2.5c1.4-0.7,3.1-1.3,5.1-1.6c1.3-0.2,2.5-0.2,3.8-0.1c1.3,0.2,2.5,0.5,3.5,1.1
		c1.1,0.5,2,1.2,2.7,2.1c0.7,0.9,1.2,1.9,1.4,3.1c0.1,0.7,0.1,1.4,0,2.2c-0.1,0.8-0.4,1.6-0.8,2.5c-0.4,0.9-0.8,1.5-1.4,2
		c-0.5,0.5-1.1,0.8-1.5,0.8c-0.4,0.1-0.7,0-1-0.2s-0.4-0.5-0.5-0.9c-0.1-0.3,0-0.7,0-1.2c0.1-0.5,0.2-1,0.5-1.6
		c0.2-0.6,0.4-1.1,0.5-1.6c0.1-0.5,0.1-0.9,0-1.4c-0.1-0.6-0.4-1.1-0.8-1.6c-0.4-0.4-0.9-0.7-1.6-0.9c-0.6-0.2-1.4-0.3-2.3-0.4
		s-1.8,0.1-2.8,0.2c-1.1,0.2-2,0.5-2.8,0.9c-0.8,0.4-1.4,0.8-1.9,1.3c-0.5,0.5-0.8,1-1,1.5C167.8,113.1,167.7,113.7,167.8,114.1z"/>
	<path fill="#FFFFFF" d="M200.8,119.1c0.5,0.6,0.9,1.4,1.2,2.1c0.3,0.8,0.5,1.5,0.7,2.2c0.1,0.7,0.2,1.5,0.1,2.2
		c0,0.8-0.1,1.5-0.3,2.2c-0.2,0.7-0.4,1.4-0.8,2.1c-0.3,0.7-0.7,1.3-1.2,1.8c-0.5,0.5-1,1-1.6,1.4c-0.6,0.4-1.3,0.6-2,0.7
		c-1.1,0.2-2,0.1-2.9-0.2c-0.8-0.3-1.6-0.8-2.2-1.5c-0.6-0.7-1.1-1.5-1.5-2.4c-0.4-0.9-0.7-1.9-0.8-2.8c-0.2-1.3-0.2-2.6,0-3.9
		c0.2-1.2,0.6-2.3,1.2-3.3c0.6-1,1.4-1.8,2.4-2.5c1-0.7,2.2-1.1,3.5-1.4c1.2-0.2,2.3-0.2,3.4,0c1.1,0.2,2.1,0.5,3.1,1
		c1,0.5,1.9,1,2.8,1.7c0.9,0.7,1.7,1.3,2.5,2.1l0.1,2.6c-0.4-0.4-0.9-0.8-1.6-1.2c-0.6-0.4-1.3-0.8-2-1.2s-1.4-0.7-2.1-1.1
		s-1.3-0.6-1.8-0.8L200.8,119.1z M196.8,130.3c0.4-0.1,0.8-0.4,1.1-0.8c0.3-0.5,0.6-1.1,0.8-1.8s0.3-1.4,0.3-2.2
		c0-0.8,0-1.6-0.1-2.3c-0.1-0.6-0.2-1.1-0.4-1.5c-0.2-0.5-0.4-0.9-0.6-1.2c-0.2-0.3-0.5-0.6-0.8-0.7c-0.3-0.2-0.6-0.2-1-0.1
		c-0.5,0.1-0.9,0.4-1.3,0.9c-0.4,0.5-0.7,1.1-0.9,1.8s-0.4,1.5-0.4,2.3c-0.1,0.8,0,1.6,0.1,2.4c0.1,0.5,0.2,1,0.4,1.4
		c0.2,0.4,0.4,0.8,0.7,1.1c0.3,0.3,0.6,0.5,1,0.7C195.9,130.3,196.4,130.4,196.8,130.3z"/>
	<path fill="#FFFFFF" d="M216.7,116.4c0.5,0.6,0.9,1.4,1.2,2.1c0.3,0.8,0.5,1.5,0.7,2.2c0.1,0.7,0.2,1.5,0.1,2.2
		c0,0.8-0.1,1.5-0.3,2.2s-0.4,1.4-0.8,2.1c-0.3,0.7-0.7,1.3-1.2,1.8s-1,1-1.6,1.4c-0.6,0.4-1.3,0.6-2,0.7c-1.1,0.2-2,0.1-2.9-0.2
		c-0.8-0.3-1.6-0.8-2.2-1.5s-1.1-1.5-1.5-2.4c-0.4-0.9-0.7-1.9-0.8-2.8c-0.2-1.3-0.2-2.6,0-3.9c0.2-1.2,0.6-2.3,1.2-3.3
		c0.6-1,1.4-1.8,2.4-2.5s2.2-1.1,3.5-1.4c1.2-0.2,2.3-0.2,3.4,0c1.1,0.2,2.1,0.5,3.1,1c1,0.5,1.9,1,2.8,1.7c0.9,0.7,1.7,1.3,2.5,2.1
		l0.1,2.6c-0.4-0.4-0.9-0.8-1.6-1.2c-0.6-0.4-1.3-0.8-2-1.2c-0.7-0.4-1.4-0.7-2.1-1.1c-0.7-0.3-1.3-0.6-1.8-0.8L216.7,116.4z
		 M212.8,127.6c0.4-0.1,0.8-0.4,1.1-0.8s0.6-1.1,0.8-1.8c0.2-0.7,0.3-1.4,0.3-2.2c0-0.8,0-1.6-0.1-2.3c-0.1-0.6-0.2-1.1-0.4-1.5
		c-0.2-0.5-0.4-0.9-0.6-1.2c-0.2-0.3-0.5-0.6-0.8-0.7c-0.3-0.2-0.6-0.2-1-0.1c-0.5,0.1-0.9,0.4-1.3,0.9c-0.4,0.5-0.7,1.1-0.9,1.8
		c-0.2,0.7-0.4,1.5-0.4,2.3c-0.1,0.8,0,1.6,0.1,2.4c0.1,0.5,0.2,1,0.4,1.4c0.2,0.4,0.4,0.8,0.7,1.1c0.3,0.3,0.6,0.5,1,0.7
		C211.9,127.6,212.3,127.6,212.8,127.6z"/>
	<path fill="#FFFFFF" d="M223.2,125.5c-0.1-0.8-0.2-1.7-0.3-2.8c-0.1-1.1-0.1-2.2-0.2-3.3c0-1.1-0.1-2.2,0-3.2c0-1,0-1.9,0.1-2.7
		c0-0.6,0.2-1.1,0.5-1.5c0.3-0.4,0.8-0.7,1.5-0.8s1.2,0,1.5,0.4c0.3,0.4,0.5,0.9,0.7,1.5c0,0.2,0.1,0.4,0.1,0.8c0,0.3,0,0.7,0,1
		c0,0.4,0,0.8,0,1.2c0,0.4,0,0.8,0,1.1c0,0.3,0,0.6,0,0.9c0,0.3,0,0.4,0,0.5l0.4-0.1c0.1-0.1,0.1-0.4,0.2-0.7
		c0.1-0.3,0.2-0.7,0.4-1.1c0.1-0.4,0.3-0.9,0.5-1.4c0.2-0.5,0.3-0.9,0.5-1.4c0.1-0.4,0.3-0.8,0.4-1.1c0.1-0.3,0.2-0.6,0.3-0.7
		c0.3-0.7,0.6-1.3,1.1-1.6s1-0.5,1.6-0.6c0.6-0.1,1.1,0.1,1.6,0.5s0.7,1.1,0.9,2c0,0.1,0,0.4,0,0.7c0,0.3,0,0.7,0,1.2
		c0,0.5,0,1,0,1.5c0,0.5,0,1.1,0,1.7c0,0.6,0,1.1,0.1,1.7c0,0.5,0.1,1,0.2,1.5c0.1,0.8,0.3,1.4,0.6,1.8c0.3,0.5,0.6,0.7,1,0.6
		c0.2,0,0.4-0.1,0.6-0.3s0.5-0.3,0.7-0.6c0.2-0.2,0.5-0.5,0.7-0.8c0.2-0.3,0.5-0.6,0.7-0.9c0.5-0.7,1.1-1.4,1.7-2.3l1,4l-0.8,0.9
		c-0.4,0.5-0.9,0.9-1.3,1.4c-0.5,0.5-0.9,0.9-1.4,1.3c-0.5,0.4-1.1,0.7-1.6,1c-0.6,0.3-1.2,0.5-1.9,0.6c-0.7,0.1-1.3-0.3-1.9-1.2
		c-0.6-0.9-1.1-2.3-1.4-4.1c-0.1-0.7-0.2-1.5-0.3-2.4s-0.1-1.8-0.1-2.8l-0.3,0l-3.2,10.3c-0.2,0.5-0.4,0.9-0.6,1.2
		c-0.3,0.2-0.6,0.4-1,0.5c-0.5,0.1-0.9,0-1.3-0.1c-0.3-0.2-0.6-0.4-0.9-0.7s-0.4-0.7-0.5-1.2C223.4,126.4,223.3,126,223.2,125.5z"/>
	<path fill="#FFFFFF" d="M248.7,121.6c0,0.1,0,0.2,0,0.4c0,0.2,0,0.4,0,0.7s-0.1,0.6-0.1,0.9c-0.1,0.3-0.2,0.6-0.4,0.9
		c-0.2,0.3-0.5,0.5-0.8,0.8c-0.3,0.2-0.8,0.4-1.3,0.5c-0.5,0.1-0.9,0.1-1.3,0c-0.4-0.1-0.7-0.2-1-0.4c-0.3-0.2-0.6-0.5-0.8-0.8
		s-0.4-0.8-0.5-1.3c-0.1-0.4-0.1-0.9,0-1.3c0.1-0.4,0.2-0.9,0.4-1.2c0.2-0.4,0.5-0.7,0.9-1c0.4-0.3,0.9-0.5,1.5-0.6
		c1-0.2,1.7,0,2.3,0.4c0.6,0.4,1,1.1,1.1,2.1C248.7,121.5,248.7,121.6,248.7,121.6z M244.5,116.1c-0.1-1.3-0.1-2.6-0.1-4
		c0-1.4,0.1-2.8,0.2-4.2s0.2-2.8,0.3-4.1c0.1-1.4,0.3-2.7,0.4-3.9s0.3-2.4,0.4-3.5c0.1-1.1,0.3-2.1,0.4-3c0.1-0.6,0.2-1.1,0.4-1.5
		c0.2-0.4,0.5-0.7,0.9-1c0.3-0.3,0.7-0.5,1.1-0.6c0.4-0.1,0.8-0.2,1.2-0.3c0.2,0,0.4,0,0.6,0c0.2,0,0.3,0.1,0.5,0.2
		c0.1,0.1,0.3,0.3,0.4,0.5c0.1,0.2,0.2,0.5,0.2,0.9c0,0.2,0.1,0.5,0.1,0.8c0,0.3,0,0.6,0,1c-0.1,1.5-0.2,3-0.5,4.5
		c-0.2,1.5-0.6,3.2-1,4.9c-0.4,1.8-0.9,3.7-1.4,5.8c-0.5,2.1-1.1,4.5-1.8,7.2c0,0.1,0,0.3-0.1,0.4c-0.1,0.1-0.2,0.3-0.3,0.4
		s-0.3,0.2-0.4,0.3c-0.2,0.1-0.3,0.1-0.5,0.1c-0.2,0-0.4,0-0.6,0c-0.2-0.1-0.3-0.2-0.3-0.5C244.5,116.4,244.5,116.3,244.5,116.1z"/>
</g>
<text transform="matrix(0.9858 -0.168 0.168 0.9858 260.0971 123.1247)" fill="#FFFFFF" font-family="'Pacifico-Regular'" font-size="38.0468"> </text>
</svg>
