<?xml version="1.0" encoding="utf-8"?>
<!-- Generator: Adobe Illustrator 17.1.0, SVG Export Plug-In . SVG Version: 6.00 Build 0)  -->
<!DOCTYPE svg PUBLIC "-//W3C//DTD SVG 1.1//EN" "http://www.w3.org/Graphics/SVG/1.1/DTD/svg11.dtd">
<svg version="1.1" id="Layer_1" xmlns="http://www.w3.org/2000/svg" xmlns:xlink="http://www.w3.org/1999/xlink" x="0px" y="0px"
	 viewBox="0 0 360 216" enable-background="new 0 0 360 216" xml:space="preserve">
<circle fill="none" stroke="#FFFFFF" stroke-width="3.4485" stroke-miterlimit="10" cx="198.1" cy="104.6" r="52.7"/>
<path fill="#2C9560" d="M202.6,134c0.3,1,0.7,1.9,1.2,3.4c-1.4-0.6-2.6-1-3.6-1.6c-1-0.5-1.9-1.2-2.7-2c-4-3.8-8.4-3.5-13.1-1.3
	c-4.5,2.1-9.2,3.8-13.8,5.7c-0.2-0.2-0.3-0.4-0.5-0.6c1.2-1.1,2.3-2.5,3.6-3.4c1.7-1.2,3.6-2.1,5.5-3.2c2.6-1.5,4.7-3.6,5.7-6.5
	c0.6-1.6,0.1-2.9-0.9-4c-1.1-1.2-2.4-1.8-4.1-1.3c-2.7,0.8-5.3,1.9-8.1,2.5c-4.2,0.8-8.5,1.2-13,1.8c0-1.4,0-2.2,0-3.3
	c5.3-1,10.6-2.6,15-6.1c-0.1-0.2-0.1-0.5-0.2-0.7c-1.8,0.6-3.7,0.9-5.3,1.8c-3.9,2.1-7.8,3-12.1,2c-0.8-0.2-1.6-0.6-2.4-1
	c0.6-0.7,1-1.5,1.7-1.9c4.6-2.6,9.2-5.1,13.8-7.7c0.5-0.3,1.1-0.4,1.4-0.8c0.4-0.6,0.4-1.4,0.6-2c-0.6-0.1-1.2-0.4-1.7-0.3
	c-1.4,0.4-2.8,1.1-4.3,1.5c-2.7,0.8-3.9,0.1-5-2.9c3.8-2.1,7.7-4.3,11.6-6.5c2.6-1.5,3.4-3.5,2.3-6.2c-2.3,0.2-4.7,0.5-7.3,0.8
	c0.8-2.2,2.4-3.3,4.2-4.4c3.7-2.2,7.4-4.6,11-6.9c0.5-0.3,0.9-0.8,1.4-1.2c-0.1-0.2-0.2-0.3-0.2-0.5c-0.7,0.2-1.4,0.4-2.1,0.5
	c-0.4,0.1-0.8,0.1-1.2,0.1c0-0.5-0.1-1.1,0.1-1.4c1.6-1.6,3.3-3.1,5.1-4.6c-1.5-1.1-0.6-2.2,0.8-3.2c1.2-0.9,2.5-1.7,3.6-2.7
	c1.9-1.7,3.6-3.5,5.7-5.6c1.1,0.8,2.8,1.7,4,3c2.5,2.8,5.6,4.4,9.1,5.5c2.1,0.7,4.3,1.4,6.2,2.6c1.6,0.9,2.7,2.5,4.5,4.1
	c-1.9,0.5-3.2,0.8-4.9,1.3c3,1.1,5.6,2.1,7.2,4.8c-3.8-0.2-7-3-10.7-1.9c-0.1,0.3-0.2,0.6-0.4,0.9c7,4.4,14,8.7,20.9,13.1
	c-0.1,0.3-0.2,0.6-0.3,0.9c-3.1-0.4-6.2-0.8-9.2-1.1c-0.7-0.1-1.5,0.2-2.2,0.3c0,0.3,0,0.5,0,0.8c2.8,0.8,5.6,1.7,8.4,2.5
	c1.3,0.4,2.6,0.6,3.8,1c0.5,0.2,0.8,0.6,1.2,1c-0.4,0.3-0.8,0.8-1.3,0.8c-2.9,0.4-5.7,0.7-8.6,1c-0.8,0.1-1.5,0.2-2.3,0.6
	c3.4,0.3,6.7,1.1,9.4,3.3c2.6,2,5.6,3.6,7.4,6.8c-3,1.1-5.5,0.9-8-0.1c-2.1-0.9-3.9-0.3-5.8,1.2c6.4,2.3,12.6,4.8,16.6,10.8
	c-2.6,1.2-4.8,0.6-7.2-0.1c-4.2-1.4-8.3-2.9-12.5-4c-3.3-0.9-6.8-1.2-10.2-1.8c-2.2-0.4-4.2,1-4.2,3.5c0,4.7,1.9,8.6,5.7,11.6
	c1.7,1.3,3.3,2.8,5.1,4.4c-2.3,1-4,0.4-5.8-0.3c-2.7-1.1-5.4-2.2-8.1-3.3C202.8,133.7,202.7,133.9,202.6,134z M172.7,101.3
	c-0.1,0.3-0.2,0.5-0.2,0.8c0.7,0.6,1.5,1.9,2.1,1.8c2.1-0.4,4.2-1.2,6.3-1.9c0.3-0.1,0.6-0.9,0.5-1.3c0-0.3-0.7-0.7-1.1-0.7
	C177.8,100.4,175.3,100.9,172.7,101.3z M221.2,111.5c1.6,0.1,2.7-0.6,2.8-1.8c0.1-1.4-1.5-2.8-3.6-2.8c-1.3,0-2.6,0-3,1.6
	C217.1,109.7,219.3,111.4,221.2,111.5z M214,108.8c0,0,0-0.1,0-0.1c0.3,0,0.6,0.1,0.8,0c0.8-0.5,1.5-1,2.3-1.5
	c-0.6-0.7-1.3-1.9-1.9-1.9c-1.9,0-3.8,0.5-5.7,0.8c-0.3,0.1-0.7,0.7-0.6,1c0,0.3,0.6,0.7,0.9,0.8C211.2,108.3,212.6,108.5,214,108.8
	z M183.1,89.8c-1.4-1.2-2-2.2-2.9-2.4c-1.8-0.4-4.4,1.1-4,1.9c0.5,1.2,1.6,3.1,2.4,3C180,92.2,181.3,91,183.1,89.8z M187,111.5
	c0-1.9-1.3-3.6-3.1-4c-0.5-0.1-1.2,0-1.6,0.3c-0.3,0.2-0.3,1-0.1,1.4c0.7,1.4,1.5,2.7,2.4,4.1c0.3,0.4,1,0.9,1.2,0.7
	c0.4-0.2,0.8-0.8,1-1.3C187,112.2,186.9,111.7,187,111.5z M191.5,79.5c-0.9-0.3-1.9-1-2.2-0.8c-1.5,1.1-2.9,2.4-4.2,3.8
	c-0.3,0.3-0.3,1.2-0.1,1.4c0.4,0.3,1.2,0.4,1.6,0.2c1.4-0.9,2.7-1.9,4-2.9C190.9,80.9,191,80.4,191.5,79.5z M208.3,89.6
	c0.4-0.3,1.5-0.7,1.7-1.4c0.4-1.1-1.4-2.8-2.8-2.5c-1.1,0.2-3,1.1-3,1.7C204.2,89.5,206.3,89.1,208.3,89.6z M200,99.1
	c-0.2-1.9-0.4-3.6-2.2-3.4c-0.8,0-1.9,1.1-2.2,2c-0.4,1,1.8,2.8,3.2,2.6C199.4,100.1,199.8,99.4,200,99.1z M196.3,113.1
	c0.4-0.4,1.2-1,1.4-1.8c0.3-1.1-1.9-3-3.1-2.6c-0.5,0.2-1.1,1.1-1.2,1.8C193.3,112,194.1,113,196.3,113.1z M194,87.6
	c1.2-0.4,2.3-0.5,3.3-1.1c0.5-0.3,0.6-1.1,0.9-1.7c-0.5-0.3-1.1-0.8-1.6-0.7c-1.1,0.2-2.1,0.6-3.1,1.1c-0.5,0.3-0.7,0.9-1.1,1.4
	C192.9,87,193.5,87.3,194,87.6z M185,84.9c-1.1,1-1.8,1.7-2.6,2.5c0.7,0.7,1.3,1.6,2.1,1.9c1,0.3,2.8-1.4,2.5-2.4
	C186.9,86.2,186,85.8,185,84.9z M196.1,76.5c-2.1,0.1-4.4,1.5-4.1,2.4c0.1,0.4,1,0.9,1.6,0.9c1.6,0.1,3.6-1.3,3.4-2.3
	C196.9,77,196.2,76.6,196.1,76.5z M216.9,93.3c0.1,0.1,0.3,0.2,0.4,0.3c0.4-0.5,0.7-1,1.1-1.5c-1.2-0.5-2.4-1-3.6-1.4
	c-0.2-0.1-0.7,0.7-1,1.1c1,0.5,1.9,1,2.9,1.5C216.8,93.3,216.9,93.3,216.9,93.3z M199.3,87.5c1.7-0.2,3.5,0,4-2
	c0.1-0.3-0.8-1.2-1.4-1.3C200.7,83.9,199.5,85.4,199.3,87.5z M192.2,111.9c-0.8-1.1-1.5-1.9-2.1-2.8c-0.4,0.6-1,1.1-1,1.7
	c-0.2,1.1,0.1,2.4,1.5,2.5C191,113.3,191.4,112.6,192.2,111.9z M193.6,93.3c-0.8,1-1.8,1.8-1.7,2.1c0.4,0.7,1.2,1.3,1.9,1.9
	c0.5-0.6,1.3-1.2,1.3-1.8C195.1,94.8,194.3,94.2,193.6,93.3z M200.4,79.2c0.9-0.8,1.5-1.3,2-1.8c-0.6-0.4-1.1-1.2-1.7-1.2
	c-0.7,0-1.3,0.8-1.9,1.2C199.3,77.9,199.7,78.4,200.4,79.2z M190.1,98c0.2-0.4,0.5-0.7,0.7-1.1c-0.7-0.4-1.3-0.9-2-1.1
	c-0.7-0.2-1.5,0.1-2.2,0.1c0.4,0.6,0.7,1.4,1.3,1.7C188.5,98,189.4,97.9,190.1,98z M203,77.9c0,0.3,0,0.5,0,0.8
	c1.1,0.1,2.3,0.2,3.4,0.3c0-0.5,0.1-1.1-0.2-1.3C205.1,76.6,204,77.1,203,77.9z M187.8,74.9c-0.2-0.1-0.4-0.3-0.6-0.4
	c-0.9,0.7-1.9,1.4-2.8,2.1c0.1,0.3,0.2,0.5,0.4,0.8c0.7-0.2,1.6-0.3,2.2-0.8C187.4,76.3,187.5,75.5,187.8,74.9z"/>
<circle fill="none" stroke="#FFFFFF" stroke-width="6.8969" stroke-miterlimit="10" cx="194.8" cy="107.5" r="102.7"/>
<path fill="#FFFFFF" d="M120.3,114.2c-6.3-1-7.9,8.8-1.5,9.8S126.6,115.2,120.3,114.2z"/>
<path fill="#FFFFFF" d="M273.7,114.2c-6.3-1-7.9,8.8-1.5,9.8C278.5,125,280.1,115.2,273.7,114.2z"/>
<g>
	<path fill="#FFFFFF" stroke="#FFFFFF" stroke-width="1.7242" stroke-miterlimit="10" d="M119.6,82c-1.7,0.5-2.8,1.5-3.2,3.4
		c-0.5,1.9,0.4,4.4,2.5,4.9c1.9,0.5,3.3-1.2,4.3-2.6l1.1-1.6c2.2-3.1,4.7-5.3,8.7-4.3c4.4,1,6.8,5.2,5.7,9.6
		c-0.9,3.9-4.6,6.3-8.6,5.9l0.1-3.2c2.7,0.7,5.1-1,5.7-3.6s-1.1-5-3.7-5.6c-2.6-0.6-4.2,1.2-5.6,3.1l-1.1,1.5
		c-1.8,2.5-4,4.6-7.4,3.8c-3.9-0.9-5.5-5-4.6-8.6c0.6-2.7,2.5-4.6,5.2-5.4L119.6,82z"/>
	<path fill="#FFFFFF" stroke="#FFFFFF" stroke-width="1.7242" stroke-miterlimit="10" d="M135.7,60.9l-8.6-5.2l1.6-2.7l21.4,13
		l-1.6,2.7l-10.3-6.2l-6.2,10.2l10.3,6.2l-1.6,2.7l-21.4-13l1.6-2.7l8.6,5.2L135.7,60.9z"/>
	<path fill="#FFFFFF" stroke="#FFFFFF" stroke-width="1.7242" stroke-miterlimit="10" d="M152.6,55l1.5,6.7l-2.7,2l-6.1-28
		l25.2,13.6l-2.7,2l-6-3.3L152.6,55z M149.4,41.2l2.5,10.7l7.1-5.3L149.4,41.2z"/>
	<path fill="#FFFFFF" stroke="#FFFFFF" stroke-width="1.7242" stroke-miterlimit="10" d="M173.6,41.2l2.2-19.6l11.5,16l2.3-19.1
		l3.3-0.9l-3.5,27.7l-11.4-15.9l-2.2,19.5L159,26.5l3.3-0.9L173.6,41.2z"/>
	<path fill="#FFFFFF" stroke="#FFFFFF" stroke-width="1.7242" stroke-miterlimit="10" d="M200.9,37.9l-3.7,5.8l-3.3-0.4l15.3-24.2
		l8.4,27.4l-3.3-0.4l-2-6.6L200.9,37.9z M208.3,25.9l-5.7,9.4l8.8,1.2L208.3,25.9z"/>
	<path fill="#FFFFFF" stroke="#FFFFFF" stroke-width="1.7242" stroke-miterlimit="10" d="M234.3,55.8l-3.3-1.8l-1.5-12.8l-1.1-0.6
		l-5,9.3l-2.7-1.5l11.8-22l3.3,1.8c2,1,4,2.2,5.3,4.1c1.3,2.1,1.2,4.7,0.1,6.8c-1.7,3.2-5.2,4.6-8.6,3.3L234.3,55.8z M229.5,38.3
		l0.9,0.5c2.8,1.5,6.1,2.6,8-0.9c1.8-3.4-1.2-5.7-3.9-7.2l-0.7-0.4L229.5,38.3z"/>
	<path fill="#FFFFFF" stroke="#FFFFFF" stroke-width="1.7242" stroke-miterlimit="10" d="M254,51.7L254,51.7l-14.8,7.8l-2-2.5
		l23.7-12l-10.2,18.9l20.8-5.4l-17.4,20.1l-2-2.5l11.2-12.5l0-0.1l-18,4.6L254,51.7z"/>
	<path fill="#FFFFFF" stroke="#FFFFFF" stroke-width="1.7242" stroke-miterlimit="10" d="M262.4,86.5l-6.7-1.6l-0.7-3.3l27.9,6.6
		L259.7,105l-0.7-3.3l5.6-4L262.4,86.5z M276.2,89.5l-10.8-2.4l1.7,8.7L276.2,89.5z"/>
</g>
<g>
	<path fill="#FFFFFF" stroke="#FFFFFF" stroke-miterlimit="10" d="M145.8,137.7l9,12.5l-2.6,1.9l-6.9-9.6l-6.5,4.7l6.7,9.3l-2.6,1.9
		l-6.7-9.3l-8.8,6.4l6.9,9.6l-2.6,1.9l-9-12.5L145.8,137.7z"/>
	<path fill="#FFFFFF" stroke="#FFFFFF" stroke-miterlimit="10" d="M156.6,152.2l3.4,2.3l-1,11.9l11-5.2l3.4,2.3l-14.5,6.7l-1.2,17.3
		l-3.3-2.2l1-13.5l-12.4,5.8l-3.3-2.2l15.9-7.4L156.6,152.2z"/>
	<path fill="#FFFFFF" stroke="#FFFFFF" stroke-miterlimit="10" d="M171.8,192.7l-3.4-0.9l7.6-27.6l4,1.1c8.5,2.3,10.3,6,9,11.1
		c-1.6,5.8-6.7,6.8-11.9,5.4l-2-0.5L171.8,192.7z M175.9,178l1.1,0.3c3.5,1,7.5,1.4,8.7-3c1.2-4.3-2.8-6-6.2-6.9l-0.9-0.3L175.9,178
		z"/>
	<path fill="#FFFFFF" stroke="#FFFFFF" stroke-miterlimit="10" d="M213,196l-4.3,0.2l-9.1-11.7l-1.5,0.1l0.6,12.1l-3.6,0.2
		l-1.5-28.6l4.3-0.2c2.5-0.1,5.3-0.2,7.6,0.9c2.5,1.3,4,3.9,4.1,6.6c0.2,4.1-2.3,7.7-6.5,8.4L213,196z M198,181.7l1.1-0.1
		c3.6-0.2,7.6-1.1,7.3-5.6c-0.2-4.5-4.5-4.9-8-4.7l-1,0L198,181.7z"/>
	<path fill="#FFFFFF" stroke="#FFFFFF" stroke-miterlimit="10" d="M211.7,166.9l14.5-5.3l1.1,3.1l-11.1,4l2.7,7.5l10.8-3.9l1.1,3.1
		l-10.8,3.9l3.7,10.2l11.1-4l1.1,3.1l-14.5,5.3L211.7,166.9z"/>
	<path fill="#FFFFFF" stroke="#FFFFFF" stroke-miterlimit="10" d="M241.8,157c-1.9-0.8-3.6-0.7-5.3,0.6c-1.8,1.4-2.9,4.1-1.4,6.1
		c1.4,1.8,3.8,1.4,5.7,0.9l2.1-0.6c4.2-1.2,8-1.2,10.9,2.6c3.1,4.1,2.2,9.6-1.9,12.7c-3.7,2.8-8.6,2.3-11.9-1l2.4-2.8
		c1.9,2.5,5.3,2.8,7.7,1c2.5-1.9,2.6-5.3,0.8-7.6c-1.9-2.5-4.6-2-7.2-1.3l-2.1,0.5c-3.5,0.9-6.9,1.2-9.4-2c-2.8-3.7-1.2-8.4,2.2-11
		c2.5-1.9,5.6-2.3,8.5-1L241.8,157z"/>
	<path fill="#FFFFFF" stroke="#FFFFFF" stroke-miterlimit="10" d="M254.1,142.1c-2.1-0.2-3.6,0.4-4.9,2.2c-1.3,1.9-1.5,4.8,0.5,6.3
		c1.8,1.3,4.1,0.2,5.7-0.9l1.8-1.2c3.7-2.4,7.3-3.5,11.2-0.8c4.2,3,4.9,8.5,1.9,12.7c-2.7,3.8-7.6,4.7-11.7,2.5l1.5-3.4
		c2.5,1.9,5.9,1.2,7.7-1.3s1-5.8-1.5-7.6c-2.5-1.8-5-0.6-7.3,0.9l-1.8,1.1c-3,1.8-6.3,3.2-9.5,0.8c-3.8-2.7-3.6-7.7-1.1-11.2
		c1.9-2.6,4.7-3.8,7.8-3.5L254.1,142.1z"/>
</g>
</svg>
