<?xml version="1.0" encoding="utf-8"?>
<!-- Generator: Adobe Illustrator 17.1.0, SVG Export Plug-In . SVG Version: 6.00 Build 0)  -->
<!DOCTYPE svg PUBLIC "-//W3C//DTD SVG 1.1//EN" "http://www.w3.org/Graphics/SVG/1.1/DTD/svg11.dtd">
<svg version="1.1" id="Layer_1" xmlns="http://www.w3.org/2000/svg" xmlns:xlink="http://www.w3.org/1999/xlink" x="0px" y="0px"
	 viewBox="0 0 360 216" enable-background="new 0 0 360 216" xml:space="preserve">
<path fill="#FFFFFF" d="M46.1-125.9c-0.1-0.1-0.2-0.2-0.4-0.4c0.9-0.7,1.6-1.7,2.5-2.4c1.1-0.9,2.5-1.5,3.7-2.2
	c1.7-1.1,3.2-2.5,4-4.5c0.4-1.1,0.1-2-0.6-2.7c-0.7-0.9-1.6-1.2-2.8-0.9c-1.9,0.6-3.6,1.4-5.6,1.7c-2.8,0.5-5.8,0.9-8.9,1.2
	c0-1,0-1.5,0-2.2c3.6-0.7,7.3-1.9,10.3-4.2c0-0.1-0.1-0.4-0.1-0.5c-1.2,0.4-2.5,0.6-3.6,1.2c-2.6,1.5-5.3,2.1-8.3,1.4
	c-0.6-0.1-1.1-0.5-1.6-0.6c0.4-0.5,0.6-1,1.1-1.4c3.1-1.7,6.3-3.5,9.4-5.2c0.4-0.1,0.7-0.2,0.9-0.5c0.2-0.4,0.2-0.9,0.4-1.4
	c-0.4-0.1-0.9-0.2-1.1-0.2c-1,0.2-2,0.7-2.8,1c-1.9,0.5-2.7,0.1-3.3-2c2.6-1.5,5.3-3,7.9-4.5c1.9-1,2.4-2.4,1.6-4.2
	c-1.6,0.1-3.2,0.4-4.9,0.5c0.6-1.5,1.6-2.2,2.8-3c2.6-1.5,5.1-3.1,7.5-4.7c0.4-0.2,0.6-0.6,0.9-0.9c0-0.1-0.1-0.2-0.1-0.4
	c-0.5,0.1-1,0.2-1.5,0.4c-0.2,0-0.6,0-0.9,0.1c0-0.4-0.1-0.7,0.1-1c1.1-1.1,2.2-2.1,3.5-3.2c-1-0.7-0.4-1.5,0.5-2.2
	c0.9-0.6,1.7-1.2,2.5-1.9c1.2-1.1,2.5-2.5,3.8-3.8c0.7,0.6,2,1.1,2.7,2.1c1.7,2,3.8,3,6.3,3.7c1.5,0.5,3,1,4.2,1.7
	c1.1,0.6,1.9,1.7,3.1,2.8c-1.2,0.4-2.2,0.6-3.3,0.9c2,0.7,3.8,1.4,4.9,3.3c-2.6-0.1-4.8-2-7.3-1.4c-0.1,0.2-0.1,0.4-0.2,0.6
	c4.8,3,9.5,5.9,14.4,8.9c-0.1,0.2-0.1,0.4-0.2,0.6c-2.1-0.2-4.2-0.5-6.3-0.7c-0.5,0-1,0.1-1.5,0.2c0,0.1,0,0.4,0,0.5
	c1.9,0.6,3.8,1.1,5.7,1.7c0.9,0.2,1.7,0.4,2.6,0.7c0.4,0.1,0.6,0.5,0.9,0.6c-0.2,0.2-0.6,0.5-0.9,0.6c-2,0.2-4,0.5-5.9,0.7
	c-0.5,0.1-1,0.1-1.6,0.4c2.4,0.2,4.6,0.7,6.4,2.2c1.7,1.4,3.8,2.5,5.1,4.7c-2,0.7-3.7,0.6-5.4-0.1c-1.5-0.6-2.7-0.2-4,0.9
	c4.5,1.6,8.7,3.2,11.4,7.3c-1.7,0.7-3.3,0.5-4.9-0.1c-2.8-1-5.7-2-8.5-2.7c-2.2-0.6-4.7-0.9-7.1-1.2c-1.6-0.1-2.8,0.7-2.8,2.5
	c0,3.2,1.4,5.9,3.8,7.9c1.1,0.9,2.2,1.9,3.5,3c-1.6,0.7-2.7,0.2-4-0.2C73.7-126.9,62.2-133.6,46.1-125.9z M47.6-151.1
	c0,0.1-0.1,0.4-0.1,0.5c0.5,0.5,1,1.4,1.5,1.2c1.5-0.2,2.8-0.7,4.3-1.2c0.2-0.1,0.4-0.6,0.4-0.9s-0.5-0.5-0.7-0.5
	C51.1-151.8,49.4-151.5,47.6-151.1z M80.7-144.2c1.1,0.1,1.9-0.4,1.9-1.2c0.1-1-1.1-1.9-2.5-2c-0.9,0-1.9,0-2,1.1
	C77.9-145.4,79.4-144.3,80.7-144.2z M75.8-146.1C75.8-146.1,75.8-146.2,75.8-146.1c0.2-0.1,0.4,0,0.5-0.1c0.5-0.4,1-0.6,1.6-1
	c-0.5-0.5-0.9-1.2-1.4-1.2c-1.2,0-2.6,0.4-3.8,0.6c-0.2,0-0.5,0.5-0.5,0.7s0.4,0.5,0.6,0.5C73.9-146.4,74.8-146.3,75.8-146.1z
	 M54.7-159.1c-0.9-0.7-1.4-1.5-2-1.6c-1.2-0.2-3,0.7-2.7,1.2c0.4,0.9,1.1,2.1,1.6,2.1C52.6-157.4,53.4-158.3,54.7-159.1z
	 M57.3-144.2c0-1.4-0.9-2.5-2.1-2.7c-0.4-0.1-0.9,0-1.1,0.2c-0.1,0.1-0.2,0.7-0.1,1c0.5,1,1,1.9,1.6,2.7c0.1,0.2,0.6,0.6,0.9,0.5
	s0.5-0.5,0.6-0.9C57.3-143.7,57.3-144.1,57.3-144.2z M60.5-166.1c-0.6-0.2-1.2-0.7-1.5-0.5c-1,0.7-2,1.6-2.8,2.6
	c-0.1,0.1-0.2,0.9,0,1c0.2,0.1,0.9,0.2,1.1,0.1c1-0.6,1.9-1.2,2.7-2C60-165.1,60.1-165.5,60.5-166.1z M71.9-159.2
	c0.2-0.2,1-0.5,1.1-1c0.2-0.7-1-1.9-1.9-1.7c-0.7,0.1-2,0.7-2,1.2C69.2-159.2,70.5-159.5,71.9-159.2z M66.3-152.7
	c-0.1-1.4-0.2-2.5-1.5-2.4c-0.5,0-1.2,0.7-1.5,1.4c-0.2,0.6,1.2,1.9,2.2,1.7C65.8-152,66.1-152.5,66.3-152.7z M63.7-143.1
	c0.2-0.2,0.9-0.7,1-1.2c0.2-0.7-1.4-2-2.1-1.7c-0.4,0.1-0.7,0.7-0.9,1.2C61.7-144,62.2-143.2,63.7-143.1z M62.1-160.5
	c0.9-0.2,1.6-0.4,2.2-0.7c0.4-0.1,0.5-0.7,0.6-1.1c-0.4-0.1-0.7-0.5-1.1-0.5c-0.7,0.1-1.5,0.4-2.1,0.7c-0.4,0.1-0.5,0.6-0.7,1
	C61.4-161,61.7-160.8,62.1-160.5z M56-162.4c-0.7,0.7-1.2,1.2-1.7,1.7c0.5,0.5,0.9,1.1,1.5,1.4c0.7,0.2,2-1,1.7-1.6
	C57.3-161.5,56.7-161.8,56-162.4z M63.6-168.2c-1.5,0-3.1,1-2.8,1.6c0.1,0.2,0.7,0.6,1.1,0.6c1.1,0,2.5-0.9,2.4-1.6
	C64.1-167.8,63.7-168.1,63.6-168.2z M77.8-156.7c0.1,0.1,0.2,0.1,0.2,0.2c0.2-0.4,0.5-0.7,0.7-1c-0.9-0.4-1.6-0.7-2.5-1
	c-0.1,0-0.5,0.5-0.7,0.7c0.6,0.4,1.4,0.7,2,1C77.7-156.7,77.8-156.7,77.8-156.7z M65.7-160.7c1.1-0.1,2.4,0,2.7-1.4
	c0-0.2-0.6-0.9-1-0.9C66.7-163.1,65.9-162.1,65.7-160.7z M61-144c-0.6-0.7-1-1.4-1.5-2c-0.2,0.4-0.6,0.7-0.7,1.1
	c-0.1,0.7,0,1.6,1,1.7C60.1-143,60.4-143.5,61-144z M61.9-156.7c-0.5,0.6-1.2,1.2-1.1,1.4c0.2,0.5,0.9,0.9,1.4,1.2
	c0.4-0.4,0.9-0.7,0.9-1.2C63-155.6,62.4-156,61.9-156.7z M66.6-166.4c0.6-0.5,1-0.9,1.4-1.2c-0.4-0.2-0.7-0.9-1.1-0.7
	c-0.5,0-0.9,0.5-1.4,0.7C65.7-167.2,66.1-166.8,66.6-166.4z M59.5-153.5c0.1-0.2,0.4-0.5,0.5-0.7c-0.5-0.2-0.9-0.6-1.4-0.7
	c-0.5-0.1-1,0-1.5,0.1c0.2,0.4,0.5,1,0.9,1.1C58.4-153.5,59-153.5,59.5-153.5z M68.3-167.2c0,0.1,0,0.4,0,0.5c0.7,0,1.5,0.1,2.4,0.1
	c0-0.4,0-0.7-0.1-0.9C69.6-168.1,69-167.7,68.3-167.2z M57.9-169.2c-0.1-0.1-0.2-0.2-0.4-0.2c-0.6,0.5-1.2,1-2,1.5
	c0.1,0.1,0.1,0.4,0.2,0.5c0.5-0.1,1.1-0.2,1.5-0.5C57.6-168.3,57.8-168.8,57.9-169.2z"/>
<g>
	<path fill="#FFFFFF" d="M101.1-148.9c0,1.2,0.4,2.2,1.1,3.2c0.7,1,1.6,1.9,2.8,2.6s2.5,1.6,4,2.4c1.5,0.7,3,1.5,4.6,2.2
		c1.5,0.7,3.1,1.6,4.6,2.5c1.5,0.9,2.8,1.9,4,3c1.1,1.1,2.1,2.4,2.8,3.8c0.7,1.4,1.1,3,1.1,4.8c0,1.6-0.2,3.2-0.7,4.6
		c-0.5,1.4-1.2,2.6-2.2,3.7c-0.9,1.1-2,2.1-3.2,2.8c-1.2,0.9-2.6,1.5-4.1,2.1c-1.5,0.5-3,1-4.6,1.2c-1.6,0.2-3.2,0.4-4.8,0.4
		c-2.2,0-4.5-0.2-6.7-0.9c-2.1-0.6-4.1-1.4-5.8-2.5s-3-2.5-4.1-4.2c-1-1.7-1.5-3.7-1.5-5.9c0-1.1,0.2-2.2,0.6-3.1
		c0.4-0.9,0.9-1.6,1.4-2.2c0.6-0.6,1.1-1,1.9-1.4c0.6-0.2,1.2-0.5,1.9-0.5c0.6,0,1.1,0.1,1.5,0.5c0.4,0.4,0.6,0.9,0.6,1.5
		c0,0.4,0,0.6-0.1,1c-0.1,0.4-0.1,0.7-0.2,1.1c-0.1,0.4-0.6,1-0.6,1.5c-0.1,0.5-0.1,1-0.1,1.6c0,1.2,0.2,2.4,0.9,3.3
		c0.6,1,1.4,1.7,2.4,2.4c1,0.6,2.1,1,3.3,1.4c1.2,0.2,2.6,0.5,4,0.5c1.6,0,3.2-0.2,4.8-0.6c1.6-0.4,3-1,4.3-1.7
		c1.2-0.7,2.2-1.6,3.1-2.7s1.2-2.4,1.2-3.7c0-1.2-0.4-2.5-1.1-3.5s-1.6-2-2.8-2.8c-1.1-0.9-2.5-1.7-4-2.5c-1.5-0.7-3-1.5-4.6-2.4
		c-1.5-0.7-3.1-1.6-4.6-2.5c-1.5-0.9-2.8-1.9-4-2.8c-1.1-1-2.1-2.2-2.8-3.5c-0.7-1.2-1.1-2.7-1.1-4.5c0-1.5,0.4-3.1,1.1-4.6
		c0.7-1.5,1.9-2.8,3.3-4c1.5-1.2,3.3-2.1,5.6-2.8c2.2-0.7,4.8-1.1,7.8-1.1c1.9,0,3.7,0.2,5.6,0.9c1.9,0.6,3.5,1.4,4.8,2.4
		c1.5,1,2.6,2.2,3.5,3.7c0.9,1.5,1.4,3.1,1.4,4.8c0,1-0.1,2.1-0.5,3.2s-0.9,2.2-1.7,3.5c-0.7,1.1-1.6,2-2.5,2.6
		c-0.9,0.6-1.7,0.9-2.5,0.9c-0.5,0-1-0.1-1.4-0.5c-0.4-0.4-0.5-0.7-0.5-1.5c0-0.5,0.1-1,0.4-1.7c0.2-0.6,0.6-1.4,1.1-2.2
		c0.5-0.7,0.9-1.6,1.1-2.2c0.2-0.7,0.4-1.4,0.4-2c0-1-0.2-1.7-0.7-2.5c-0.5-0.7-1.2-1.2-2.1-1.7c-0.9-0.5-2-0.9-3.2-1.1
		c-1.2-0.2-2.6-0.4-4.1-0.4c-1.6,0-3.1,0.2-4.3,0.6c-1.2,0.4-2.2,0.9-3.1,1.5c-0.9,0.6-1.4,1.2-1.9,2
		C101.3-150.4,101.1-149.6,101.1-148.9z"/>
	<path fill="#FFFFFF" d="M140.4-130c0.7-1,1.6-2.1,2.5-3.2c1-1.1,1.9-2.2,2.8-3.2s2-1.7,3-2.5c1-0.6,2-1,2.8-1c0.2,0,0.5,0,0.7,0.1
		c0.2,0.1,0.5,0.2,0.7,0.5c0.2,0.2,0.5,0.5,0.6,0.9c0.1,0.4,0.2,0.9,0.2,1.5c0,1.2-0.1,2.5-0.5,3.6c-0.4,1.2-0.7,2.4-1.1,3.6
		c-0.4,1.2-0.7,2.4-1.1,3.6c-0.4,1.2-0.5,2.5-0.5,3.8c0,0.7,0.1,1.4,0.4,1.7c0.2,0.5,0.5,0.6,0.9,0.6c0.5,0,0.9-0.1,1.4-0.2
		c0.5-0.1,1-0.4,1.5-0.7c0.5-0.2,1-0.6,1.5-1c0.5-0.4,0.9-0.7,1.4-1.1c1-1,2-2,3-3.2l0.5,7.3c-0.4,0.2-0.7,0.6-1.2,1
		s-1.1,0.7-1.7,1.2c-0.6,0.4-1.2,0.9-2,1.4c-0.7,0.5-1.5,0.9-2.1,1.1c-0.7,0.4-1.5,0.6-2.1,0.9c-0.7,0.2-1.4,0.4-2.1,0.4
		c-1,0-1.9-0.2-2.6-0.9c-0.7-0.5-1.4-1.2-1.9-2.1c-0.5-0.9-0.9-1.7-1.1-2.7c-0.2-1-0.4-1.9-0.4-2.8c0-0.6,0.1-1.2,0.2-2
		c0.1-0.7,0.4-1.5,0.6-2.2c0.2-0.7,0.5-1.5,0.7-2.1c0.2-0.7,0.5-1.4,0.7-1.9c0.2-0.5,0.5-1,0.6-1.4c0.1-0.4,0.2-0.5,0.4-0.6
		l-0.6-0.1c-0.4,0.2-0.9,0.7-1.6,1.5c-0.7,0.9-1.6,1.9-2.5,3.1c-1,1.2-1.9,2.6-2.8,4.2c-1,1.6-1.9,3.2-2.7,4.8
		c-0.4,0.9-0.7,1.5-1,2.1s-0.5,1.1-0.7,1.5s-0.5,0.7-0.9,0.9c-0.2,0.2-0.6,0.2-1.1,0.2c-0.6,0-1.1-0.1-1.5-0.5
		c-0.4-0.4-0.6-0.9-0.7-1.4c-0.1-0.6-0.2-1.2-0.4-2c0-0.7-0.1-1.5-0.1-2.2c0-1.2,0-2.8,0-4.8c0-2,0.1-4.2,0.2-6.6
		c0.1-2.4,0.4-4.9,0.6-7.7s0.6-5.3,1.1-7.9c0.5-2.6,1.1-5.1,1.9-7.4c0.7-2.4,1.7-4.5,2.7-6.2c1-1.7,2.4-3.2,3.8-4.3
		c1.5-1.1,3.1-1.6,5.1-1.6c1,0,1.9,0.1,2.5,0.5c0.6,0.2,1.1,0.7,1.5,1.2c0.4,0.5,0.6,1.1,0.7,1.9c0.1,0.7,0.2,1.6,0.2,2.5
		c0,1.4-0.2,2.8-0.6,4.5c-0.4,1.6-0.9,3.3-1.5,5.1c-0.6,1.7-1.4,3.6-2.1,5.4s-1.6,3.6-2.5,5.3c-0.9,1.7-1.6,3.3-2.5,4.8
		c-0.9,1.5-1.5,2.8-2.1,4L140.4-130z M142.9-146.9c1.1-2.8,1.9-5.2,2.4-7.1c0.5-1.9,0.7-3.3,0.7-4.2c0-1.4-0.1-2.1-0.5-2.1
		c-0.5,0-1.2,0.7-2.1,2.4c-0.9,1.6-2,3.8-3.3,6.8c-0.4,1-0.6,2.1-0.9,3.1c-0.2,1.1-0.5,2.1-0.7,3.2c-0.2,1.1-0.4,2.1-0.6,3.1
		c-0.1,1-0.4,2-0.5,3c-0.4,2.2-0.5,4.3-0.7,6.4c0.5-1.1,1-2.4,1.6-3.7c0.6-1.4,1.1-2.7,1.7-4c0.6-1.4,1.1-2.6,1.6-3.7
		C142.1-145.1,142.5-146.1,142.9-146.9z"/>
	<path fill="#FFFFFF" d="M187.7-119.7c-0.4,0.6-1,1.2-1.7,2.1c-0.7,0.7-1.5,1.5-2.4,2.2c-0.9,0.7-1.9,1.4-2.8,1.9
		c-1,0.5-2,0.7-3,0.7c-1.2,0-2.2-0.4-3-1.1c-0.7-0.7-1.5-1.9-2.1-3.3c-0.5,0.5-1,1-1.6,1.6c-0.6,0.5-1.4,1-2.1,1.5
		c-0.7,0.4-1.6,0.7-2.4,1.1c-0.9,0.2-1.6,0.4-2.5,0.4s-1.7-0.1-2.6-0.5c-0.9-0.4-1.6-0.9-2.2-1.5c-0.6-0.6-1.1-1.5-1.5-2.5
		c-0.4-1-0.6-2-0.6-3.2c0-1.4,0.2-2.7,0.6-4.2s0.9-2.8,1.6-4.2c0.6-1.4,1.5-2.7,2.4-4c0.9-1.2,2-2.4,3-3.2c1.1-0.9,2.2-1.6,3.5-2.2
		c1.2-0.5,2.5-0.9,3.7-0.9c0.4,0,0.7,0.1,1,0.2s0.5,0.4,0.6,0.6s0.2,0.4,0.5,0.6c0.2,0.2,0.4,0.4,0.5,0.5c0.2,0.1,0.5,0.1,0.6,0.1
		c0.2,0,0.5,0,0.7,0c0.2,0,0.4,0,0.6,0c0.2,0,0.4,0,0.6,0s0.5,0,0.7,0.1c0.2,0,0.5,0.1,0.6,0.4c0.1,0.1,0.4,0.5,0.4,0.7
		c0.1,0.4,0.1,0.7,0.1,1.4c0,0.9-0.1,1.9-0.2,3c-0.1,1.1-0.4,2.2-0.6,3.3c-0.2,1.1-0.4,2.2-0.6,3.3s-0.2,2.2-0.2,3.2
		c0,0.9,0.1,1.5,0.2,2c0.1,0.5,0.5,0.7,1,0.7c0.4,0,0.7-0.1,1.2-0.2c0.4-0.2,0.9-0.5,1.2-0.7c0.4-0.4,0.9-0.6,1.2-1.1
		c0.4-0.4,0.9-0.7,1.2-1.2c0.9-1,1.9-2.1,2.7-3.3L187.7-119.7z M164.3-121.8c0,0.5,0,0.9,0.1,1.4c0.1,0.4,0.1,0.9,0.4,1.1
		c0.2,0.2,0.4,0.6,0.6,0.9s0.6,0.4,1,0.4c0.6,0,1.2-0.2,1.9-0.9c0.5-0.6,1-1.2,1.5-2.1c0.4-0.9,0.7-1.7,1-2.6
		c0.2-0.9,0.4-1.6,0.5-2.2l1.7-8c-0.7,0-1.5,0.2-2.2,0.6c-0.7,0.4-1.4,0.9-2,1.5c-0.6,0.6-1.2,1.4-1.7,2.2s-1,1.7-1.4,2.6
		c-0.4,0.9-0.7,1.9-0.9,2.7C164.4-123.5,164.3-122.7,164.3-121.8z"/>
	<path fill="#FFFFFF" d="M196.3-126.5c-0.5,2-1.1,3.8-1.9,5.4c-0.7,1.6-1.5,3.1-2.4,4.3c-0.9,1.2-1.7,2.1-2.6,2.8
		c-0.9,0.6-1.7,1-2.6,1c-1.5,0-2.5-1-3.1-3.1c-0.6-2.1-1-5.2-1-9.3c0-0.6,0-1.1,0-1.6s0-0.9,0-1.4c0-0.5,0-1,0.1-1.5
		c0-0.5,0.1-1.1,0.1-1.9c0-0.1,0-0.5,0.1-1s0.1-1,0.2-1.5c0.1-0.6,0.4-1.1,0.5-1.7c0.2-0.6,0.5-1.1,0.9-1.7c0.4-0.5,0.7-0.9,1.2-1.2
		c0.5-0.4,1.1-0.5,1.7-0.5h0.6c0.7,0,1.4,0.1,1.9,0.5c0.4,0.4,0.6,0.7,0.6,1.2l-2,14.8h0.4c0.7-1.9,1.5-3.6,2.1-5.1
		c0.6-1.5,1.1-3,1.6-4.2c0.5-1.2,1-2.4,1.5-3.2c0.5-0.9,1-1.7,1.5-2.2c0.5-0.6,1.1-1.1,1.9-1.4c0.7-0.2,1.5-0.5,2.5-0.5
		c0.7,0,1.4,0.1,1.9,0.5c0.4,0.4,0.6,0.7,0.6,1.2l-2.2,14.8h0.4l6.6-14.6c0.2-0.5,0.7-1,1.5-1.4c0.7-0.4,1.6-0.6,2.6-0.6
		c1,0,1.9,0.2,2.5,0.6c0.6,0.4,1,1,1,1.6c0,0.5-0.1,1.1-0.2,1.6c-0.1,0.5-0.4,1.1-0.6,1.6s-0.4,1-0.6,1.2s-0.2,0.5-0.2,0.6
		c-0.4,0.7-0.7,1.4-1.1,2c-0.4,0.6-0.6,1.1-0.9,1.6c-0.4,0.5-0.6,1.1-0.9,1.5c0.2,0.7,0.6,1.4,1,1.9s0.7,0.9,1.2,1.4
		c0.5,0.4,1.1,0.6,1.9,0.6c0.6,0,1.2-0.1,2.1-0.5c0.7-0.4,1.5-0.6,2.2-1.1c0.9-0.5,1.6-1,2.5-1.6v6.4c-1.2,0.7-2.5,1.4-3.7,1.9
		c-1.2,0.5-2.5,0.7-3.7,0.7c-1,0-1.9-0.1-2.6-0.4c-0.9-0.2-1.6-0.6-2.2-1s-1.1-1.1-1.5-1.9s-0.6-1.7-0.6-2.7c-0.6,1.5-1.2,2.8-2,4
		c-0.6,1.2-1.4,2.2-2.1,3.1c-0.7,0.9-1.5,1.6-2.1,2.1c-0.7,0.5-1.5,0.7-2.2,0.7c-0.2,0-0.5-0.2-0.6-0.6c-0.2-0.4-0.4-0.9-0.5-1.6
		c-0.1-0.6-0.2-1.5-0.4-2.4s-0.1-1.9-0.2-2.8c0-1-0.1-2-0.1-3.1c0-1,0-2.1,0-3.1L196.3-126.5z"/>
	<path fill="#FFFFFF" d="M248.8-119.7c-0.4,0.6-1,1.2-1.7,2.1c-0.7,0.7-1.5,1.5-2.4,2.2c-0.9,0.7-1.9,1.4-2.8,1.9
		c-1,0.5-2,0.7-3,0.7c-1.2,0-2.2-0.4-3-1.1c-0.7-0.7-1.5-1.9-2.1-3.3c-0.5,0.5-1,1-1.6,1.6c-0.6,0.5-1.4,1-2.1,1.5
		c-0.7,0.4-1.6,0.7-2.4,1.1c-0.9,0.2-1.6,0.4-2.5,0.4c-0.9,0-1.7-0.1-2.6-0.5c-0.9-0.4-1.6-0.9-2.2-1.5c-0.6-0.6-1.1-1.5-1.5-2.5
		c-0.4-1-0.6-2-0.6-3.2c0-1.4,0.2-2.7,0.6-4.2s0.9-2.8,1.6-4.2c0.6-1.4,1.5-2.7,2.4-4c0.9-1.2,2-2.4,3-3.2c1.1-0.9,2.2-1.6,3.5-2.2
		c1.2-0.5,2.5-0.9,3.7-0.9c0.4,0,0.7,0.1,1,0.2c0.2,0.1,0.5,0.4,0.6,0.6s0.2,0.4,0.5,0.6c0.2,0.2,0.4,0.4,0.5,0.5
		c0.2,0.1,0.5,0.1,0.6,0.1c0.2,0,0.5,0,0.7,0c0.2,0,0.4,0,0.6,0s0.4,0,0.6,0c0.2,0,0.5,0,0.7,0.1c0.2,0,0.5,0.1,0.6,0.4
		c0.1,0.1,0.4,0.5,0.4,0.7c0.1,0.4,0.1,0.7,0.1,1.4c0,0.9-0.1,1.9-0.2,3c-0.1,1.1-0.4,2.2-0.6,3.3c-0.2,1.1-0.4,2.2-0.6,3.3
		c-0.2,1.1-0.2,2.2-0.2,3.2c0,0.9,0.1,1.5,0.2,2c0.1,0.5,0.5,0.7,1,0.7c0.4,0,0.7-0.1,1.2-0.2c0.4-0.2,0.9-0.5,1.2-0.7
		c0.4-0.4,0.9-0.6,1.2-1.1c0.4-0.4,0.9-0.7,1.2-1.2c0.9-1,1.9-2.1,2.7-3.3L248.8-119.7z M225.4-121.8c0,0.5,0,0.9,0.1,1.4
		c0.1,0.4,0.1,0.9,0.4,1.1c0.2,0.2,0.4,0.6,0.6,0.9c0.2,0.2,0.6,0.4,1,0.4c0.6,0,1.2-0.2,1.9-0.9c0.5-0.6,1-1.2,1.5-2.1
		c0.4-0.9,0.7-1.7,1-2.6c0.2-0.9,0.4-1.6,0.5-2.2l1.7-8c-0.7,0-1.5,0.2-2.2,0.6c-0.7,0.4-1.4,0.9-2,1.5s-1.2,1.4-1.7,2.2
		c-0.5,0.9-1,1.7-1.4,2.6c-0.4,0.9-0.7,1.9-0.9,2.7C225.5-123.5,225.4-122.7,225.4-121.8z"/>
	<path fill="#FFFFFF" d="M245.6-118.7c0-0.9,0-1.7,0.1-2.8c0.1-1.1,0.2-2.2,0.4-3.3s0.4-2.4,0.5-3.6c0.2-1.2,0.5-2.4,0.6-3.5
		c0.2-1.1,0.5-2.1,0.7-3.1c0.2-1,0.5-1.7,0.7-2.4c0.1-0.4,0.2-0.7,0.5-1c0.1-0.2,0.4-0.4,0.5-0.6c0.2-0.1,0.4-0.2,0.7-0.2
		c0.2,0,0.6-0.1,1.1-0.1c0.5,0,0.9,0,1.1,0.1c0.2,0,0.5,0.1,0.6,0.4c0.1,0.1,0.2,0.4,0.2,0.7c0,0.4,0,0.7,0,1.4c0,0.6,0,1.5,0,2.5
		c0,1,0,1.9,0,2.8h0.2c0.4-0.7,0.7-1.6,1.2-2.5s1-1.7,1.6-2.5c0.6-0.7,1.2-1.5,2.1-2s1.6-0.9,2.6-0.9c0.4,0,0.7,0,1,0.1
		c0.4,0.1,0.6,0.2,0.9,0.5c0.2,0.2,0.5,0.5,0.6,0.9c0.1,0.4,0.2,0.7,0.2,1.1c0,0.4,0,0.7-0.1,1.4c-0.1,0.6-0.2,1.1-0.2,1.7
		c-0.1,0.6-0.2,1.2-0.2,1.7c-0.1,0.6-0.1,1.1-0.1,1.5c0,0.6,0.1,1.2,0.2,1.6c0.1,0.5,0.2,0.7,0.5,1.1c0.2,0.2,0.5,0.5,0.7,0.6
		c0.2,0.1,0.5,0.1,0.9,0.1c0.9,0,1.7-0.1,2.6-0.5c0.9-0.4,1.7-0.7,2.4-1.2c0.9-0.5,1.7-1.1,2.5-1.9l-0.4,6.4c-0.5,0.4-1,0.6-1.6,1
		s-1.2,0.7-2,1.1c-0.7,0.4-1.4,0.6-2.1,0.9c-0.7,0.2-1.5,0.4-2.2,0.4c-1.4,0-2.5-0.2-3.3-0.9c-0.9-0.6-1.5-1.2-2-2.2
		c-0.5-0.9-0.9-1.9-1.1-3.1c-0.2-1.2-0.4-2.2-0.6-3.5h-0.5l-4.9,13.7c-0.2,0.7-0.5,1.4-0.7,1.7c-0.2,0.5-0.5,0.9-0.7,1.1
		c-0.2,0.2-0.5,0.5-0.7,0.6c-0.2,0.1-0.6,0.1-0.9,0.1c-0.7,0-1.4-0.1-1.9-0.5s-0.9-0.7-1.1-1.2c-0.2-0.5-0.4-1.1-0.5-1.9
		S245.6-118,245.6-118.7z"/>
	<path fill="#FFFFFF" d="M280.6-118.1c0-0.2,0-0.6,0-1c0-0.5,0.1-1,0.1-1.5c0.1-0.6,0.1-1.1,0.2-1.9c0.1-0.6,0.1-1.2,0.2-1.9
		c0.2-1.5,0.5-3.1,0.7-4.7h-0.4c-0.2,0.2-0.5,0.7-0.7,1.2c-0.2,0.5-0.6,1.4-1.2,2.4c-0.5,1.1-1.1,2.5-2,4.1s-1.9,3.8-3.1,6.3
		c-0.4,0.7-0.7,1.2-1.2,1.5c-0.5,0.2-1,0.4-1.6,0.4c-0.7,0-1.4-0.1-1.9-0.5c-0.5-0.4-0.9-0.7-1.1-1.2c-0.2-0.5-0.4-1.1-0.5-1.9
		c-0.1-0.7,0.1-1.2,0.1-2s0-1.6,0.1-2.6c0.1-1,0.2-2.1,0.4-3.2c0.1-1.1,0.4-2.2,0.5-3.5c0.2-1.2,0.4-2.4,0.6-3.3
		c0.2-1.1,0.4-2.1,0.6-3c0.2-0.9,0.4-1.6,0.6-2.2c0.1-0.6,0.4-1,0.5-1.4c0.1-0.4,0.4-0.6,0.6-0.9c0.2-0.2,0.5-0.4,0.7-0.4
		c0.2-0.1,0.6-0.1,1.1-0.1c0.7,0,1.2,0,1.6,0.1c0.4,0,0.7,0.1,0.9,0.4c0.2,0.1,0.2,0.4,0.4,0.7c0,0.4,0,0.7,0,1.4c0,0.4,0,0.6,0,1.1
		c0,0.4-0.1,0.9-0.1,1.2c0,0.4-0.1,1-0.1,1.4c-0.1,0.5-0.1,1-0.2,1.4c-0.1,1.1-0.4,2.2-0.5,3.3l0.2,0.4c0,0,0.2-0.4,0.6-1
		c0.4-0.6,0.7-1.4,1.4-2.4c0.6-1,1.1-1.9,1.7-2.8s1.2-1.9,1.7-2.6c0.5-0.7,1.1-1.4,1.7-1.9c0.6-0.5,1.4-0.7,2.1-0.7
		c0.7,0,1.5,0.2,2,0.6c0.5,0.5,0.9,1.1,0.9,1.9s0,1.4-0.1,2s-0.2,1.2-0.4,1.9s-0.2,1.2-0.4,1.7c-0.1,0.6-0.2,1.1-0.4,1.7
		c-0.1,0.4-0.1,0.7-0.1,0.7s0,0.1,0,0.2l0.2,0.4c0,0,0.2-0.4,0.6-1c0.4-0.6,0.9-1.4,1.4-2.2c0.5-0.9,1.1-1.9,1.7-2.8
		s1.2-1.9,1.7-2.6c0.5-0.7,1.1-1.4,1.6-1.9c0.5-0.5,1.2-0.7,2-0.7c0.9,0,1.6,0.2,2.2,0.6s0.9,1.1,0.9,1.9c0,1.2-0.1,2.5-0.2,3.6
		c-0.1,1.1-0.2,2.2-0.5,3.3c-0.2,1.1-0.4,2.2-0.5,3.3c-0.1,1.1-0.2,2.4-0.2,3.6c0,1,0.1,1.7,0.4,2.4c0.2,0.6,0.6,1,1,1
		c0.4,0,0.7-0.1,1.2-0.2c0.5-0.1,0.9-0.4,1.2-0.6c0.5-0.2,0.9-0.5,1.2-0.9c0.4-0.4,0.9-0.7,1.2-1.1c0.9-0.9,1.7-1.7,2.6-2.8l0.5,6.4
		c-0.9,0.6-1.6,1.4-2.4,2c-0.7,0.7-1.6,1.4-2.5,1.9c-0.9,0.5-1.9,1-3,1.4c-1.1,0.4-2.2,0.5-3.6,0.5c-0.6,0-1.2-0.2-1.6-0.6
		c-0.5-0.4-0.9-1-1.1-1.9c-0.2-0.9-0.5-1.7-0.6-2.7c-0.1-1-0.1-2.2-0.1-3.3s0-2.4,0.1-3.7c0.1-1.2,0.2-2.6,0.4-4h-0.4l-5.7,14.6
		c-0.5,0.7-1,1.2-1.6,1.6c-0.6,0.2-1.2,0.4-2,0.4c-0.6,0-1-0.1-1.4-0.5c-0.4-0.4-0.6-0.7-0.9-1.2c-0.2-0.5-0.4-1.1-0.4-1.6
		C280.6-117,280.6-117.5,280.6-118.1z"/>
	<path fill="#FFFFFF" d="M333.8-119.7c-0.4,0.6-1,1.2-1.7,2.1c-0.7,0.9-1.5,1.5-2.4,2.2c-0.9,0.7-1.9,1.4-2.8,1.9
		c-1,0.5-2,0.7-3,0.7c-1.2,0-2.2-0.4-3-1.1c-0.9-0.7-1.5-1.9-2.1-3.3c-0.5,0.5-1,1-1.6,1.6c-0.6,0.5-1.4,1-2.1,1.5
		c-0.7,0.4-1.6,0.7-2.4,1.1c-0.7,0.4-1.6,0.4-2.5,0.4c-0.9,0-1.7-0.1-2.6-0.5s-1.6-0.9-2.2-1.5c-0.6-0.6-1.1-1.5-1.5-2.5
		c-0.4-1-0.6-2-0.6-3.2c0-1.4,0.2-2.7,0.6-4.2c0.4-1.5,0.9-2.8,1.6-4.2c0.6-1.4,1.5-2.7,2.4-4c0.9-1.2,2-2.4,3-3.2
		c1.1-0.9,2.2-1.6,3.5-2.2c1.2-0.5,2.5-0.9,3.7-0.9c0.4,0,0.7,0.1,1,0.2c0.2,0.1,0.5,0.4,0.6,0.6s0.2,0.4,0.5,0.6
		c0.2,0.2,0.4,0.4,0.5,0.5c0.2,0.1,0.5,0.1,0.6,0.1c0.2,0,0.5,0,0.7,0s0.4,0,0.6,0s0.4,0,0.6,0s0.5,0,0.7,0.1c0.2,0,0.5,0.1,0.6,0.4
		c0.1,0.1,0.4,0.5,0.4,0.7c0,0.2,0.1,0.7,0.1,1.4c0,0.9-0.1,1.9-0.2,3s-0.4,2.2-0.6,3.3c-0.2,1.1-0.4,2.2-0.6,3.3s-0.2,2.2-0.2,3.2
		c0,0.9,0.1,1.5,0.2,2s0.5,0.7,1,0.7c0.4,0,0.7-0.1,1.2-0.2c0.4-0.2,0.9-0.5,1.2-0.7c0.4-0.2,0.9-0.6,1.2-1.1
		c0.4-0.5,0.9-0.7,1.2-1.2c0.9-1,1.9-2.1,2.7-3.3L333.8-119.7z M310.4-121.8c0,0.5,0,0.9,0.1,1.4s0.1,0.9,0.4,1.1
		c0.2,0.2,0.4,0.6,0.6,0.9c0.2,0.2,0.6,0.4,1,0.4c0.6,0,1.2-0.2,1.9-0.9c0.5-0.6,1-1.2,1.5-2.1c0.4-0.9,0.7-1.7,1-2.6
		c0.2-0.9,0.4-1.6,0.5-2.2l1.7-8c-0.7,0-1.5,0.2-2.2,0.6c-0.7,0.4-1.4,0.9-2,1.5c-0.6,0.6-1.2,1.4-1.7,2.2s-1,1.7-1.4,2.6
		c-0.4,0.9-0.6,1.9-0.9,2.7C310.6-123.4,310.4-122.7,310.4-121.8z"/>
</g>
<g>
	<path fill="#FFFFFF" d="M76.1-85.7c-1.5,1.6-3.1,3-4.9,4.1c-1.9,1.1-3.8,2.1-5.8,3c-2,0.7-4.1,1.4-6.2,1.9
		c-2.1,0.4-4.1,0.6-6.1,0.6c-2.1,0-4.2-0.2-6.1-0.7c-1.9-0.5-3.6-1.2-4.9-2.4c-1.5-1-2.6-2.4-3.3-4c-0.7-1.6-1.2-3.5-1.2-5.7
		c0-1.9,0.4-3.6,1-5.3c0.6-1.7,1.7-3.2,3.1-4.6c1.4-1.4,3.2-2.4,5.3-3.2c2.2-0.7,4.8-1.2,7.8-1.4c-2,0-3.7-0.2-5.3-0.9
		c-1.5-0.6-2.7-1.4-3.7-2.4c-1-1-1.7-2.1-2.2-3.5c-0.5-1.4-0.7-2.7-0.7-4.2c0-1.4,0.2-2.6,0.7-3.7c0.5-1.1,1.1-2.1,2-3.1
		c0.9-0.9,1.9-1.7,3-2.4c1.1-0.6,2.4-1.2,3.7-1.7c1.4-0.5,2.7-0.7,4.2-1c1.5-0.2,3-0.4,4.5-0.4c2.1,0,4.2,0.2,6.3,0.7
		c2.1,0.5,3.8,1.1,5.4,2.1c1.6,1,2.8,2.1,3.8,3.5c1,1.4,1.5,3,1.5,4.9c0,0.6-0.2,1.4-0.6,2c-0.5,0.6-1,1.2-1.6,1.7
		c-0.6,0.5-1.2,0.9-2,1.2c-0.7,0.2-1.2,0.5-1.7,0.5c-0.4,0-0.6-0.4-0.6-1s0.1-1.4,0.2-2.4c0.1-1,0.5-2.1,1-3.6
		c-0.5-0.4-1.2-0.7-2.1-1.2c-1-0.4-2-0.7-3.2-1.1c-1.2-0.4-2.5-0.6-3.8-0.9c-1.4-0.2-2.7-0.4-4-0.4c-1.2,0-2.4,0.1-3.5,0.4
		c-1.1,0.2-2.1,0.6-3,1.1c-0.9,0.5-1.5,1.1-2,2c-0.5,0.9-0.7,1.9-0.7,3.1c0,1,0.1,1.9,0.5,2.5c0.4,0.6,0.9,1.2,1.5,1.7
		c0.6,0.5,1.2,0.9,2,1.1c0.7,0.2,1.6,0.6,2.4,0.9c0.9,0.2,1.6,0.5,2.5,0.7c0.7,0.2,1.5,0.5,2.2,0.7c0.6,0.2,1.2,0.6,1.7,1
		c0.5,0.4,0.7,0.9,0.9,1.5c0,0.4,0.1,0.7,0.1,1.1c0,0.4,0,0.7,0,1.1c0,1-0.2,1.7-0.6,2.2c-0.4,0.5-1.1,0.7-2.2,0.7
		c-0.5,0-1.1,0-1.7-0.1c-0.7,0-1.4-0.1-2-0.1c-1.5,0-2.8,0.2-4.3,0.6c-1.4,0.4-2.7,1-3.8,1.7c-1.1,0.7-2,1.6-2.7,2.7
		c-0.7,1.1-1,2.4-1,3.8c0,1.4,0.2,2.5,0.6,3.5c0.4,0.9,1,1.6,1.6,2.2c0.7,0.6,1.5,1,2.5,1.2c1,0.2,2,0.4,3,0.4
		c1.2,0,2.6-0.1,4.1-0.4c1.5-0.2,2.8-0.6,4.2-1.1c1.4-0.5,2.8-1,4.1-1.6c1.4-0.6,2.6-1.2,3.7-2c1.1-0.7,2.1-1.5,3.1-2.2
		c0.9-0.7,1.6-1.6,2-2.4L76.1-85.7z"/>
	<path fill="#FFFFFF" d="M75.3-91.6c0,0.5,0,1,0,1.6c0,0.5,0,1,0,1.4c0,0.4,0,0.9,0,1.2c0,0.4,0.1,0.6,0.2,0.9
		c0.1,0.2,0.2,0.5,0.5,0.6c0.2,0.1,0.5,0.2,0.9,0.2c0.2,0,0.4-0.1,0.6-0.4c0.2-0.2,0.5-0.6,0.9-1c0.4-0.5,0.6-1,1.1-1.6
		c0.5-0.6,0.9-1.2,1.4-2c-0.6-1.4-1.1-2.7-1.7-4.3c-0.5-1.5-1.1-3.2-1.6-5.1c0-0.1,0-0.2,0-0.2c0-0.4,0.1-0.6,0.4-1
		c0.2-0.4,0.6-0.7,1.1-1c0.4-0.4,0.9-0.6,1.4-0.7c0.5-0.2,1-0.4,1.5-0.4c0.4,0,0.6,0.1,1,0.2c0.2,0.1,0.5,0.4,0.6,0.6
		c0.2,0.5,0.5,1.2,1,2.4c0.5,1.1,1,2.2,1.5,3.6c1-1,2-2,3.1-3c1.1-1,2.4-2,3.7-2.8c0.5-0.4,0.9-0.5,1.2-0.6c0.4-0.1,0.7-0.2,1.1-0.2
		s0.7,0.1,1.1,0.2c0.4,0.1,0.6,0.4,0.9,0.7c0.2,0.2,0.4,0.6,0.5,1s0.1,0.7,0.1,1.2c0,0.6-0.1,1.1-0.4,1.7c-0.2,0.5-0.6,1-1.1,1.2
		c-1.5,0.9-2.7,1.9-4.1,3c-1.2,1.1-2.5,2.2-3.6,3.5c0.4,0.7,0.9,1.6,1.2,2.2c0.4,0.7,0.9,1.4,1.2,1.9c0.4,0.5,0.7,1,1.1,1.2
		c0.4,0.2,0.7,0.5,1,0.5c0.4,0,0.9-0.1,1.5-0.2c0.6-0.2,1.2-0.5,1.9-0.9c0.6-0.4,1.4-0.7,2-1.1s1.4-0.9,2-1.4c0.6-0.5,1.1-1,1.7-1.4
		c0.5-0.5,0.9-0.9,1.2-1.4c0,0.6,0,1.1,0,1.6c0,0.5,0,1,0,1.4c0,0.5,0,0.9,0,1.4c0,0.5,0,1,0,1.6c-0.6,0.6-1.4,1.2-2.4,2
		c-1,0.7-2,1.5-3.2,2.1c-1.2,0.6-2.4,1.2-3.7,1.6c-1.4,0.5-2.6,0.6-4,0.6c-0.7,0-1.7-0.5-2.8-1.5c-1.1-1-2.4-2.6-3.7-4.9
		c-0.7,0.9-1.5,1.7-2.2,2.5s-1.4,1.5-2,2c-0.6,0.5-1.2,1-1.7,1.4c-0.5,0.4-1,0.5-1.5,0.5c-0.9,0-1.6-0.2-2.2-0.7
		c-0.6-0.5-1.1-1.1-1.4-1.9c-0.4-0.7-0.6-1.5-0.7-2.4c-0.1-0.9-0.2-1.7-0.2-2.5L75.3-91.6z"/>
	<path fill="#FFFFFF" d="M112.6-83.7c1.9,0,3.5-0.1,5.1-0.5c1.5-0.4,2.8-0.9,4.1-1.5s2.4-1.4,3.3-2.2c1-0.9,1.9-1.7,2.7-2.7l0.2,6.3
		c-0.6,0.7-1.2,1.4-2.1,2.1c-0.9,0.6-1.7,1.2-2.7,1.7c-1,0.5-2,0.9-3.1,1.2c-1.1,0.2-2.1,0.5-3.2,0.5c-0.1,0-0.2,0-0.5,0
		c-0.2,0-0.5-0.1-1-0.2c-0.5-0.1-1.1-0.2-2-0.4c-0.9-0.1-2.1-0.4-3.6-0.6v0.5c0,3.3-0.2,6.3-0.9,9c-0.6,2.7-1.4,5.1-2.2,6.9
		c-1,2-2,3.3-3.2,4.5c-1.2,1-2.5,1.6-3.7,1.6c-1,0-1.9-0.2-2.6-0.7c-0.7-0.5-1.2-1.2-1.6-2.1c-0.4-0.9-0.7-1.9-0.9-3.1
		c-0.1-1.1-0.2-2.4-0.2-3.7c0-0.7,0.1-1.6,0.4-2.5c0.2-1,0.6-2,1-3c0.4-1,0.9-2.1,1.4-3.1c0.5-1.1,1-2.1,1.6-3.1
		c1.2-2.4,2.6-4.7,4.2-7.2c0.2-1.5,0.4-2.8,0.6-4.3s0.5-3,0.7-4.3c0.4-1.4,0.7-2.7,1.2-4c0.5-1.2,1.1-2.4,1.9-3.3
		c0.7-1,1.6-1.7,2.7-2.2c1.1-0.5,2.4-0.9,3.8-0.9c1.1,0,2.1,0.1,3.1,0.5c1,0.2,1.9,0.7,2.6,1.5c0.7,0.7,1.4,1.6,1.7,2.6
		c0.4,1.1,0.6,2.4,0.6,4c0,1.2-0.1,2.5-0.5,3.6s-1,2.2-1.7,3.3c-0.7,1.1-1.7,2.1-3,3c-1.2,0.9-2.6,1.7-4.2,2.5L112.6-83.7z
		 M99.6-66.8c0,0.1,0,0.4,0.1,0.7c0.1,0.4,0.1,0.6,0.4,1c0.1,0.4,0.4,0.6,0.6,0.9c0.2,0.2,0.5,0.4,0.9,0.4s0.6-0.1,0.7-0.5
		c0.2-0.4,0.4-0.7,0.5-1.4c0.1-0.6,0.2-1.2,0.2-2c0-0.7,0.1-1.5,0.1-2.2c0-0.7,0-1.5,0.1-2.2c0-0.7,0-1.4,0.1-2c0-1,0.1-1.9,0.1-2.5
		c0-0.7,0-1.2,0.1-1.7c0-0.5,0-1,0-1.2c-0.4,0.6-0.7,1.4-1,2.1c-0.4,0.7-0.6,1.6-1,2.5c-0.2,0.9-0.6,1.7-0.7,2.6
		c-0.1,0.9-0.5,1.6-0.6,2.4s-0.4,1.4-0.4,2C99.7-67.4,99.6-67,99.6-66.8z M109.1-86.4c1.1-0.5,2-1.1,2.8-1.9
		c0.9-0.7,1.5-1.4,2.1-2.2c0.6-0.7,1-1.6,1.4-2.4c0.4-0.9,0.6-1.6,0.9-2.5c0.1-0.4,0.1-0.9,0.1-1.4c0-0.5,0-1-0.1-1.5
		s-0.4-0.9-0.7-1.2s-0.9-0.5-1.4-0.5c-0.6,0-1.2,0.2-1.7,0.6c-0.5,0.4-1,0.9-1.4,1.5c-0.4,0.6-0.7,1.4-1,2.2
		c-0.2,0.9-0.5,1.9-0.6,2.8s-0.2,2.1-0.4,3.1C109.2-88.7,109.1-87.5,109.1-86.4z"/>
	<path fill="#FFFFFF" d="M124.8-84.6c0-0.9,0-1.7,0.1-2.8c0.1-1.1,0.2-2.2,0.4-3.3c0.1-1.1,0.4-2.4,0.5-3.6c0.2-1.2,0.5-2.4,0.6-3.5
		c0.2-1.1,0.5-2.1,0.7-3.1c0.2-1,0.5-1.7,0.7-2.4c0.1-0.4,0.2-0.7,0.5-1c0.1-0.2,0.4-0.4,0.5-0.6c0.2-0.1,0.4-0.2,0.7-0.2
		c0.2,0,0.6-0.1,1.1-0.1s0.9,0,1.1,0.1c0.2,0,0.5,0.1,0.6,0.4c0.1,0.1,0.2,0.4,0.2,0.7c0,0.4,0,0.7,0,1.4c0,0.6,0,1.5,0,2.5
		c0,1,0,1.9,0,2.8h0.2c0.4-0.7,0.7-1.6,1.2-2.5s1-1.7,1.6-2.5c0.6-0.7,1.2-1.5,2.1-2c0.7-0.5,1.6-0.9,2.6-0.9c0.4,0,0.7,0,1,0.1
		c0.2,0.1,0.6,0.2,0.9,0.5s0.5,0.5,0.6,0.9c0.1,0.4,0.2,0.7,0.2,1.1c0,0.4,0,0.7-0.1,1.4c-0.1,0.6-0.2,1.1-0.2,1.7
		c-0.1,0.6-0.2,1.2-0.2,1.7c-0.1,0.6-0.1,1.1-0.1,1.5c0,0.6,0.1,1.2,0.2,1.6c0.1,0.5,0.2,0.7,0.5,1.1c0.2,0.2,0.5,0.5,0.7,0.6
		c0.2,0.1,0.5,0.1,0.9,0.1c0.9,0,1.7-0.1,2.6-0.5c0.9-0.4,1.7-0.7,2.4-1.2c0.9-0.5,1.7-1.1,2.5-1.9l-0.4,6.4c-0.5,0.4-1,0.6-1.6,1
		c-0.6,0.4-1.2,0.7-2,1.1s-1.4,0.6-2.1,0.9s-1.5,0.4-2.2,0.4c-1.4,0-2.5-0.2-3.3-0.9c-0.9-0.6-1.5-1.2-2-2.2
		c-0.5-0.9-0.9-1.9-1.1-3.1c-0.2-1.2-0.4-2.2-0.6-3.5h-0.5l-4.9,13.7c-0.2,0.7-0.5,1.4-0.7,1.7c-0.2,0.5-0.5,0.9-0.7,1.1
		c-0.2,0.2-0.5,0.5-0.7,0.6s-0.6,0.1-0.9,0.1c-0.7,0-1.4-0.1-1.9-0.5c-0.5-0.4-0.9-0.7-1.1-1.2c-0.2-0.5-0.4-1.1-0.5-1.9
		S124.8-83.8,124.8-84.6z"/>
	<path fill="#FFFFFF" d="M157.7-78.8c-1.7,0-3.2-0.4-4.5-1c-1.2-0.6-2.4-1.5-3.2-2.5c-0.9-1-1.5-2.2-2-3.6c-0.4-1.4-0.6-2.8-0.6-4.3
		c0-1,0.1-2.1,0.2-3.2c0.2-1.1,0.5-2.2,0.9-3.3c0.4-1.1,0.9-2.1,1.6-3.1c0.6-1,1.4-1.9,2.2-2.6c0.9-0.7,1.7-1.4,2.8-1.9
		c1-0.5,2.2-0.6,3.5-0.6c1,0,2,0.1,2.8,0.5c0.9,0.4,1.6,0.7,2.2,1.4c0.6,0.6,1.1,1.4,1.5,2.1c0.4,0.9,0.5,1.7,0.5,2.8
		s-0.2,2.2-0.9,3.3c-0.6,1.1-1.4,2.2-2.4,3.2c-1,1-2.1,1.9-3.5,2.7c-1.4,0.7-2.8,1.4-4.5,1.9c0.2,0.5,0.5,0.9,0.9,1.2
		c0.2,0.4,0.5,0.6,0.9,0.7c0.2,0.1,0.6,0.4,0.9,0.4c0.2,0.1,0.6,0.1,1,0.1c1.1,0,2.2-0.2,3.5-0.6c1.2-0.5,2.4-1,3.6-1.6
		c1.1-0.6,2.2-1.4,3.2-2.1c1-0.7,1.9-1.5,2.6-2.2l3.6,3.7c-1.6,1.6-3.3,3.1-5.1,4.5c-0.7,0.5-1.6,1.1-2.5,1.6
		c-0.9,0.5-1.9,1-2.8,1.4c-1,0.4-2,0.7-3.1,1S158.8-78.8,157.7-78.8z M154.1-91.8c0.6,0,1.4-0.1,2.1-0.5c0.7-0.4,1.5-0.7,2.1-1.4
		c0.6-0.5,1.2-1.1,1.7-1.7c0.5-0.6,0.7-1.2,0.7-1.9c0-0.9-0.1-1.5-0.5-2c-0.2-0.5-0.6-0.7-1.1-0.7c-0.7,0-1.5,0.1-2,0.5
		c-0.6,0.2-1,0.6-1.4,1.1c-0.4,0.5-0.6,1-0.9,1.6c-0.2,0.6-0.4,1.2-0.5,1.9c-0.1,0.6-0.2,1.2-0.2,1.7
		C154.1-92.6,154.1-92.1,154.1-91.8z"/>
	<path fill="#FFFFFF" d="M169.2-89.4c1-0.9,1.9-1.6,2.5-2.2c0.6-0.6,1.2-1.1,1.6-1.6c0.5-0.5,0.9-1,1.2-1.5c0.4-0.5,0.9-1.1,1.4-1.7
		c0.5-0.6,1.1-1.5,1.9-2.5c0.7-1,1.7-2.2,2.8-3.7c0.2-0.4,0.5-0.6,0.7-1c0.2-0.4,0.6-0.6,1-0.9c0.4-0.2,0.7-0.5,1.2-0.6
		c0.4-0.1,0.9-0.2,1.5-0.2c0.9,0,1.6,0.1,2,0.2c0.5,0.2,0.9,0.4,1,0.7c0.2,0.2,0.4,0.6,0.4,0.9c0,0.2,0,0.6,0,0.7
		c0,0.5-0.1,0.9-0.5,1.5c-0.4,0.5-0.7,1-1.1,1.5c-0.4,0.5-0.9,1-1.2,1.4s-0.6,0.7-0.6,0.9c0,0.6,0,1.1,0.1,1.6
		c0.1,0.5,0.2,0.9,0.4,1.4s0.2,0.9,0.4,1.5c0.1,0.5,0.2,1.1,0.4,1.7c0.1,0.6,0.2,1.4,0.4,2.2s0.1,1.9,0.1,3.1
		c0.6-0.5,1.4-0.9,2.1-1.2s1.5-0.7,2.4-1.1c0.9-0.4,1.6-0.9,2.5-1.2c0.9-0.5,1.7-1,2.6-1.7v6.2c-1.1,0.9-2.5,1.7-4,2.5
		c-1.5,0.7-3.1,1.5-4.7,2c-1.6,0.6-3.3,1-4.9,1.4c-1.6,0.4-3.2,0.5-4.7,0.5c-1.1,0-2.1-0.1-3-0.2c-1-0.2-1.7-0.5-2.5-1
		c-0.7-0.4-1.2-1-1.7-1.7c-0.5-0.7-0.7-1.5-0.7-2.5c-0.2,0-0.5,0.1-0.7,0.1s-0.5,0-0.7,0c-0.2,0-0.6,0-0.9,0s-0.5-0.1-0.6-0.2
		s-0.4-0.4-0.5-0.6c-0.1-0.2-0.1-0.6-0.1-1.1c0-0.5,0.1-0.9,0.4-1.2c0.2-0.4,0.5-0.7,0.7-1c0.2-0.2,0.6-0.5,0.9-0.7
		C168.6-89.4,169-89.2,169.2-89.4z M172.7-85.8c0.2,0,0.5,0.1,0.7,0.4c0.2,0.2,0.6,0.6,0.9,0.9c0.4,0.4,0.7,0.6,1.2,0.9
		c0.5,0.2,1,0.4,1.6,0.4c0.7,0,1.4-0.1,1.7-0.4c0.5-0.2,0.9-0.5,1.1-1c0.2-0.4,0.5-0.9,0.6-1.4c0.1-0.5,0.1-1.1,0.1-1.6
		c0-0.5,0-1-0.1-1.5c-0.1-0.5-0.1-1-0.2-1.5c-0.1-0.5-0.2-0.9-0.4-1.4c-0.1-0.4-0.2-0.7-0.4-1.1L172.7-85.8z"/>
	<path fill="#FFFFFF" d="M192.9-89.4c1-0.9,1.9-1.6,2.5-2.2c0.6-0.6,1.2-1.1,1.6-1.6c0.5-0.5,0.9-1,1.2-1.5c0.4-0.5,0.9-1.1,1.4-1.7
		c0.5-0.6,1.1-1.5,1.9-2.5c0.7-1,1.7-2.2,2.8-3.7c0.2-0.4,0.5-0.6,0.7-1c0.2-0.4,0.6-0.6,1-0.9c0.4-0.2,0.7-0.5,1.2-0.6
		c0.4-0.1,0.9-0.2,1.5-0.2c0.9,0,1.6,0.1,2,0.2c0.5,0.2,0.9,0.4,1,0.7c0.2,0.2,0.4,0.6,0.4,0.9c0,0.2,0,0.6,0,0.7
		c0,0.5-0.1,0.9-0.5,1.5c-0.4,0.5-0.7,1-1.1,1.5c-0.4,0.5-0.9,1-1.2,1.4c-0.4,0.4-0.6,0.7-0.6,0.9c0,0.6,0,1.1,0.1,1.6
		c0.1,0.5,0.2,0.9,0.4,1.4s0.2,0.9,0.4,1.5c0.1,0.5,0.2,1.1,0.4,1.7c0.1,0.6,0.2,1.4,0.4,2.2s0.1,1.9,0.1,3.1
		c0.6-0.5,1.4-0.9,2.1-1.2s1.6-0.7,2.4-1.1c0.9-0.4,1.6-0.9,2.5-1.2c0.9-0.5,1.7-1,2.6-1.7v6.2c-1.1,0.9-2.5,1.7-4,2.5
		c-1.5,0.7-3.1,1.5-4.7,2c-1.6,0.6-3.3,1-4.9,1.4c-1.7,0.4-3.2,0.5-4.7,0.5c-1.1,0-2.1-0.1-3-0.2c-1-0.2-1.7-0.5-2.5-1
		c-0.7-0.4-1.2-1-1.7-1.7c-0.5-0.7-0.7-1.5-0.7-2.5c-0.2,0-0.5,0.1-0.7,0.1s-0.5,0-0.7,0c-0.2,0-0.6,0-0.9,0c-0.2,0-0.5-0.1-0.6-0.2
		s-0.4-0.4-0.5-0.6c-0.1-0.2-0.1-0.6-0.1-1.1c0-0.5,0.1-0.9,0.4-1.2c0.2-0.4,0.5-0.7,0.7-1c0.2-0.2,0.6-0.5,0.9-0.7
		C192.5-89,192.7-89.2,192.9-89.4z M196.5-85.8c0.2,0,0.5,0.1,0.7,0.4c0.2,0.2,0.6,0.6,0.9,0.9s0.7,0.6,1.2,0.9
		c0.5,0.2,1,0.4,1.6,0.4c0.7,0,1.4-0.1,1.7-0.4c0.5-0.2,0.9-0.5,1.1-1c0.2-0.4,0.5-0.9,0.6-1.4c0.1-0.5,0.1-1.1,0.1-1.6
		c0-0.5,0-1-0.1-1.5c-0.1-0.5-0.1-1-0.2-1.5c-0.1-0.5-0.2-0.9-0.4-1.4c-0.1-0.4-0.2-0.7-0.4-1.1L196.5-85.8z"/>
</g>
<path fill="#028141" d="M172,60.5c0.2,0.6,0.4,1.1,0.7,2c-0.8-0.4-1.5-0.6-2.1-0.9c-0.6-0.3-1.1-0.7-1.6-1.1c-2.3-2.2-4.9-2-7.6-0.8
	c-2.6,1.2-5.3,2.2-8,3.3c-0.1-0.1-0.2-0.2-0.3-0.4c0.7-0.7,1.3-1.4,2.1-2c1-0.7,2.1-1.2,3.2-1.8c1.5-0.9,2.7-2.1,3.3-3.8
	c0.3-0.9,0.1-1.7-0.5-2.3c-0.6-0.7-1.4-1-2.4-0.7c-1.6,0.5-3.1,1.1-4.7,1.4c-2.4,0.5-4.9,0.7-7.5,1.1c0-0.8,0-1.3,0-1.9
	c3.1-0.6,6.2-1.5,8.7-3.6c0-0.1-0.1-0.3-0.1-0.4c-1,0.3-2.1,0.5-3.1,1c-2.2,1.2-4.5,1.8-7,1.2c-0.5-0.1-0.9-0.4-1.4-0.6
	c0.3-0.4,0.6-0.9,1-1.1c2.6-1.5,5.3-3,8-4.5c0.3-0.1,0.6-0.2,0.8-0.4c0.2-0.3,0.2-0.8,0.4-1.2c-0.3-0.1-0.7-0.2-1-0.2
	c-0.8,0.2-1.6,0.6-2.5,0.9c-1.6,0.5-2.3,0.1-2.9-1.7c2.2-1.2,4.5-2.5,6.7-3.8c1.5-0.9,1.9-2,1.3-3.6c-1.4,0.1-2.8,0.3-4.2,0.4
	c0.5-1.3,1.4-1.9,2.4-2.6c2.2-1.3,4.3-2.6,6.4-4c0.3-0.2,0.5-0.5,0.8-0.7c0-0.1-0.1-0.2-0.1-0.3c-0.4,0.1-0.8,0.2-1.2,0.3
	c-0.2,0-0.5,0-0.7,0.1c0-0.3-0.1-0.7,0.1-0.8c0.9-0.9,1.9-1.8,2.9-2.7c-0.9-0.7-0.3-1.3,0.4-1.9c0.7-0.5,1.5-1,2.1-1.6
	c1.1-1,2.1-2.1,3.3-3.2c0.7,0.5,1.6,1,2.3,1.8c1.5,1.7,3.3,2.6,5.3,3.2c1.2,0.4,2.5,0.8,3.6,1.5c0.9,0.5,1.6,1.4,2.6,2.4
	c-1.1,0.3-1.8,0.5-2.8,0.7c1.7,0.7,3.3,1.2,4.2,2.8c-2.2-0.1-4.1-1.7-6.2-1.1c-0.1,0.2-0.1,0.4-0.2,0.6c4.1,2.5,8.1,5.1,12.2,7.6
	c-0.1,0.2-0.1,0.4-0.2,0.5c-1.8-0.2-3.6-0.4-5.4-0.6c-0.4,0-0.9,0.1-1.3,0.2c0,0.2,0,0.3,0,0.5c1.6,0.5,3.2,1,4.9,1.4
	c0.7,0.2,1.5,0.4,2.2,0.6c0.3,0.1,0.5,0.4,0.7,0.6c-0.2,0.2-0.5,0.5-0.8,0.5c-1.7,0.2-3.3,0.4-5,0.6c-0.4,0.1-0.9,0.1-1.3,0.3
	c2,0.2,3.9,0.7,5.4,1.9c1.5,1.2,3.3,2.1,4.3,4c-1.7,0.6-3.2,0.5-4.7-0.1c-1.2-0.5-2.3-0.2-3.4,0.7c3.7,1.3,7.3,2.8,9.6,6.3
	c-1.5,0.7-2.8,0.4-4.2-0.1c-2.4-0.8-4.8-1.7-7.3-2.3c-1.9-0.5-4-0.7-5.9-1.1c-1.3-0.2-2.4,0.6-2.4,2c0,2.8,1.1,5,3.3,6.7
	c1,0.8,1.9,1.6,3,2.5c-1.3,0.6-2.3,0.2-3.4-0.2c-1.6-0.6-3.1-1.3-4.7-1.9C172.2,60.3,172.1,60.4,172,60.5z M154.7,41.5
	c0,0.1-0.1,0.3-0.1,0.4c0.4,0.4,0.9,1.1,1.2,1c1.2-0.2,2.5-0.7,3.7-1.1c0.2-0.1,0.3-0.5,0.3-0.7c0-0.2-0.4-0.4-0.6-0.4
	C157.6,41,156.2,41.3,154.7,41.5z M182.8,47.4c0.9,0.1,1.5-0.3,1.6-1.1c0.1-0.8-0.9-1.6-2.1-1.6c-0.7,0-1.5,0-1.7,0.9
	C180.5,46.4,181.7,47.4,182.8,47.4z M178.7,45.8C178.7,45.8,178.7,45.8,178.7,45.8c0.2-0.1,0.3,0,0.5-0.1c0.5-0.3,0.9-0.6,1.3-0.9
	c-0.4-0.4-0.7-1.1-1.1-1.1c-1.1,0-2.2,0.3-3.3,0.5c-0.2,0-0.4,0.4-0.4,0.6c0,0.2,0.3,0.4,0.5,0.5C177,45.6,177.8,45.7,178.7,45.8z
	 M160.7,34.9c-0.8-0.7-1.2-1.3-1.7-1.4c-1-0.2-2.5,0.6-2.3,1.1c0.3,0.7,0.9,1.8,1.4,1.8C158.9,36.3,159.6,35.5,160.7,34.9z
	 M163,47.4c0-1.1-0.7-2.1-1.8-2.3c-0.3-0.1-0.7,0-0.9,0.2c-0.2,0.1-0.2,0.6-0.1,0.8c0.4,0.8,0.9,1.6,1.4,2.4
	c0.1,0.2,0.6,0.5,0.7,0.4c0.3-0.1,0.4-0.5,0.6-0.8C163,47.9,162.9,47.6,163,47.4z M165.6,28.8c-0.5-0.2-1.1-0.6-1.3-0.4
	c-0.9,0.6-1.7,1.4-2.4,2.2c-0.2,0.2-0.2,0.7-0.1,0.8c0.2,0.1,0.7,0.2,0.9,0.1c0.8-0.5,1.6-1.1,2.3-1.7
	C165.2,29.7,165.3,29.4,165.6,28.8z M175.3,34.7c0.3-0.2,0.8-0.4,1-0.8c0.2-0.6-0.8-1.6-1.6-1.5c-0.7,0.1-1.8,0.6-1.7,1
	C173,34.7,174.2,34.4,175.3,34.7z M170.5,40.2c-0.1-1.1-0.2-2.1-1.3-2c-0.5,0-1.1,0.7-1.3,1.2c-0.2,0.6,1.1,1.6,1.9,1.5
	C170.2,40.8,170.4,40.4,170.5,40.2z M168.4,48.4c0.2-0.2,0.7-0.6,0.8-1c0.2-0.6-1.1-1.7-1.8-1.5c-0.3,0.1-0.7,0.7-0.7,1
	C166.7,47.7,167.1,48.3,168.4,48.4z M167,33.5c0.7-0.2,1.4-0.3,1.9-0.6c0.3-0.1,0.4-0.6,0.6-1c-0.3-0.1-0.7-0.5-0.9-0.4
	c-0.6,0.1-1.2,0.4-1.8,0.7c-0.3,0.2-0.4,0.5-0.6,0.8C166.4,33.2,166.7,33.4,167,33.5z M161.8,32c-0.6,0.6-1.1,1-1.5,1.4
	c0.4,0.4,0.7,0.9,1.2,1.1c0.6,0.2,1.6-0.8,1.5-1.4C162.9,32.8,162.4,32.5,161.8,32z M168.2,27.1c-1.2,0-2.6,0.9-2.4,1.4
	c0.1,0.3,0.6,0.5,0.9,0.5c0.9,0,2.1-0.7,2-1.3C168.7,27.4,168.3,27.2,168.2,27.1z M180.4,36.9c0.1,0.1,0.2,0.1,0.3,0.2
	c0.2-0.3,0.4-0.6,0.6-0.9c-0.7-0.3-1.4-0.6-2.1-0.8c-0.1,0-0.4,0.4-0.6,0.6c0.6,0.3,1.1,0.6,1.7,0.9
	C180.3,36.9,180.3,36.9,180.4,36.9z M170.1,33.5c1-0.1,2,0,2.3-1.1c0-0.2-0.5-0.7-0.8-0.8C170.9,31.4,170.2,32.3,170.1,33.5z
	 M166,47.7c-0.5-0.6-0.9-1.1-1.2-1.6c-0.2,0.3-0.6,0.6-0.6,1c-0.1,0.7,0.1,1.4,0.9,1.5C165.3,48.5,165.6,48,166,47.7z M166.8,36.9
	c-0.5,0.6-1,1.1-1,1.2c0.2,0.4,0.7,0.7,1.1,1.1c0.3-0.3,0.7-0.7,0.8-1C167.7,37.8,167.2,37.4,166.8,36.9z M170.7,28.7
	c0.5-0.5,0.8-0.8,1.2-1.1c-0.3-0.2-0.7-0.7-1-0.7c-0.4,0-0.7,0.4-1.1,0.7C170.1,27.9,170.4,28.2,170.7,28.7z M164.8,39.6
	c0.1-0.2,0.3-0.4,0.4-0.6c-0.4-0.2-0.8-0.5-1.2-0.6c-0.4-0.1-0.9,0-1.3,0.1c0.2,0.3,0.4,0.8,0.7,1C163.9,39.6,164.4,39.5,164.8,39.6
	z M172.3,27.9c0,0.1,0,0.3,0,0.4c0.7,0,1.3,0.1,2,0.1c0-0.3,0-0.6-0.1-0.8C173.5,27.2,172.8,27.4,172.3,27.9z M163.4,26.2
	c-0.1-0.1-0.2-0.2-0.4-0.3c-0.6,0.4-1.1,0.8-1.7,1.2c0.1,0.2,0.1,0.3,0.2,0.5c0.4-0.1,0.9-0.2,1.3-0.5
	C163.2,27,163.3,26.5,163.4,26.2z"/>
<g>
	<path fill="#FFFFFF" d="M75.8,83.3c-1.2-2-2.7-3-5-3c-2.5,0-5.2,1.7-5.2,4.4c0,2.5,2.4,3.7,4.4,4.5l2.2,0.9
		c4.4,1.7,7.8,4.2,7.8,9.4c0,5.7-4.4,9.8-10,9.8c-5.1,0-9-3.7-9.7-8.8l4-0.8c0,3.5,2.7,5.9,6.1,5.9c3.4,0,5.8-2.8,5.8-6.1
		c0-3.4-2.7-4.8-5.4-5.9l-2.2-0.9c-3.6-1.5-6.8-3.6-6.8-7.9c0-5.1,4.5-8.1,9.2-8.1c3.5,0,6.4,1.7,8.1,4.7L75.8,83.3z"/>
	<path fill="#FFFFFF" d="M102.7,90V77.3h3.9v31.4h-3.9V93.6H87.8v15.1h-3.9V77.3h3.9V90H102.7z"/>
	<path fill="#FFFFFF" d="M116.7,100.8l-3.6,7.9h-4.2l15-32.7l15,32.7h-4.2l-3.6-7.9H116.7z M123.9,84.6l-5.6,12.7h11.1L123.9,84.6z"
		/>
	<path fill="#FFFFFF" d="M146.9,99.8l8.9-23.1l8.9,23.1l8.8-22.5h4.2l-13,32.6l-8.9-23l-8.9,23l-13-32.6h4.2L146.9,99.8z"/>
	<path fill="#FFFFFF" d="M180.4,100.8l-3.6,7.9h-4.2l15-32.7l15,32.7h-4.2l-3.6-7.9H180.4z M187.5,84.6L182,97.2h11.1L187.5,84.6z"
		/>
	<path fill="#FFFFFF" d="M224.6,108.7h-4.7l-9.2-13.3H209v13.3h-3.9V77.3h4.7c2.8,0,5.8,0,8.3,1.5c2.6,1.5,4.1,4.5,4.1,7.5
		c0,4.5-3,8.2-7.5,8.8L224.6,108.7z M209,92.2h1.2c4,0,8.3-0.7,8.3-5.7c0-4.9-4.7-5.6-8.5-5.6h-1V92.2z"/>
	<path fill="#FFFFFF" d="M233,88L233,88l-3.7,20.7h-4l6.4-32.7l10.8,24.7L253.2,76l6.4,32.7h-4L251.9,88h-0.1l-9.4,21.4L233,88z"/>
	<path fill="#FFFFFF" d="M267.6,100.8l-3.6,7.9h-4.2l15-32.7l15,32.7h-4.2l-3.6-7.9H267.6z M274.7,84.6l-5.6,12.7h11.1L274.7,84.6z"
		/>
</g>
<g>
	<path fill="#FFFFFF" d="M96.7,121.2h16.8v3.6h-12.9v8.8h12.6v3.6h-12.6V149h12.9v3.6H96.7V121.2z"/>
	<path fill="#FFFFFF" d="M116.6,121.2h4.4l6.4,11.4l6.8-11.4h4.4l-9,14.9l9.5,16.4h-4.4l-7.4-12.8l-7.7,12.8h-4.4l9.9-16.4
		L116.6,121.2z"/>
	<path fill="#FFFFFF" d="M146.2,152.5h-3.9v-31.4h4.5c9.6,0,12.6,3.3,12.6,9.1c0,6.6-5,9.1-11,9.1h-2.2V152.5z M146.2,135.9h1.2
		c4,0,8.3-0.7,8.3-5.7c0-4.9-4.7-5.5-8.5-5.5h-1V135.9z"/>
	<path fill="#FFFFFF" d="M182.4,152.5h-4.7l-9.2-13.3h-1.6v13.3h-3.9v-31.4h4.7c2.8,0,5.8,0,8.3,1.5c2.6,1.5,4.1,4.5,4.1,7.5
		c0,4.5-3,8.2-7.5,8.8L182.4,152.5z M166.8,136h1.2c4,0,8.3-0.7,8.3-5.7c0-4.9-4.7-5.6-8.5-5.6h-1V136z"/>
	<path fill="#FFFFFF" d="M185.4,121.2h16.8v3.6h-12.9v8.8h12.6v3.6h-12.6V149h12.9v3.6h-16.8V121.2z"/>
	<path fill="#FFFFFF" d="M221,127.1c-1.2-2-2.7-3-5-3c-2.5,0-5.2,1.7-5.2,4.4c0,2.5,2.4,3.7,4.4,4.5l2.2,0.9
		c4.4,1.7,7.8,4.2,7.8,9.4c0,5.7-4.4,9.8-10,9.8c-5.1,0-9-3.7-9.7-8.8l3.9-0.8c0,3.5,2.7,5.9,6.1,5.9s5.8-2.8,5.8-6.1
		c0-3.4-2.7-4.8-5.4-5.9l-2.2-0.9c-3.6-1.5-6.8-3.6-6.8-7.9c0-5.1,4.5-8.1,9.2-8.1c3.5,0,6.4,1.7,8.1,4.7L221,127.1z"/>
	<path fill="#FFFFFF" d="M243.4,127.1c-1.2-2-2.7-3-5-3c-2.5,0-5.2,1.7-5.2,4.4c0,2.5,2.4,3.7,4.4,4.5l2.2,0.9
		c4.4,1.7,7.8,4.2,7.8,9.4c0,5.7-4.4,9.8-10,9.8c-5.1,0-9-3.7-9.7-8.8l4-0.8c0,3.5,2.7,5.9,6.1,5.9s5.8-2.8,5.8-6.1
		c0-3.4-2.7-4.8-5.4-5.9l-2.2-0.9c-3.6-1.5-6.8-3.6-6.8-7.9c0-5.1,4.5-8.1,9.2-8.1c3.5,0,6.4,1.7,8.1,4.7L243.4,127.1z"/>
</g>
<path fill="none" stroke="#FFFFFF" stroke-width="4.2911" stroke-miterlimit="10" d="M266.3,129c-9.4,46-50.1,80.6-98.8,80.6
	c-48.2,0-88.5-33.8-98.5-79"/>
<path fill="none" stroke="#FFFFFF" stroke-width="4.2911" stroke-miterlimit="10" d="M79.9,58.6C97.3,28.2,130,7.8,167.5,7.8
	c39.4,0,73.6,22.6,90.2,55.6"/>
</svg>
